<svg id="Layer_1" data-name="Layer 1" xmlns="http://www.w3.org/2000/svg" viewBox="0 0 512 512">
  <title>Animal Spine 512x512px</title>
  <g>
    <path d="M116.3115,381.3193a6.0036,6.0036,0,0,1-5.4756-8.4492c9.3057-20.8262,17.9121-33.05,26.3106-37.37,7.0674-3.6289,14.6523-4.28,24.2539-5.1045,15.96-1.3706,37.8184-3.2471,71.7969-20.8906,56.456-29.3257,94.2177-11.7637,95.7988-11.0025a5.9988,5.9988,0,0,1,2.6318,2.479c.2461.441,24.9317,44.3575,52.5762,69.9317a6,6,0,0,1-8.1484,8.8086c-26.1094-24.1534-48.7784-62.231-53.8721-71.0738-7.2832-2.7724-38.3125-11.9428-83.4561,11.5064-36.1,18.7456-59.3349,20.7407-76.3,22.1973-8.6123.7392-14.8339,1.2734-19.7968,3.8212-2.6211,1.3487-9.9082,7.1309-20.8389,31.5923A6,6,0,0,1,116.3115,381.3193Z"/>
    <path d="M58.2891,381.3115c-.1592,0-.3184-.0063-.4786-.019a6,6,0,0,1-5.51-6.4536c2.7207-34.4742-1.1455-41.9326-1.9483-43.0777-6.9746-9.9848-22.9541-28.0312-29.5009-35.3271a6,6,0,0,1,8.9316-8.0147c8.3145,9.2657,23.3193,26.3233,30.4014,36.4619,3.12,4.4522,6.9453,14.5821,4.0791,50.9019A6.0005,6.0005,0,0,1,58.2891,381.3115Z"/>
    <g>
      <g>
        <path d="M61.3548,196.3371c2.4633-2.3173,10.7075-10.8945,13.277-13.0934s7.2954.4337,5.9592,2.1954-9.4242,11.5272-6.49,12.6435,2.7365,1.3676,1.6733,5.9045,1.2615,11.2027-3.7572,9.48-15.8293-7.8989-16.18-9.5636C54.7653,198.8232,59.2429,198.3237,61.3548,196.3371Z"/>
        <path d="M82.9817,194.6863c3.4606-2.56,9.5948-12.58,13.2907-13.27s4.079,4.67.36,9.0894-7.52,8.7435-5.0208,9.7372,5.53-.2809,4.9235,1.8041-1.3556,4.87-.8208,7.132,3.9683,7.2377-3.2795,6.7633c-5.3209-.3483-10.6322-1.1276-13.4445-1.5805a2.1158,2.1158,0,0,1-1.7745-2.27c.1346-1.61.2925-3.8982.2715-5.5726C77.44,202.7174,78.01,198.3642,82.9817,194.6863Z"/>
        <path d="M97.9407,201.5537c1.8412-.8434,6.0951-5.7317,9.38-13.4416s9.4847-11.2106,9.8367-8.59-1.3035,9.6235-3.5445,13.4319-2.7827,8.3972-.2255,7.67,2.2639,3.047,2.5086,7.0486,2.77,7.2542-4.7652,7.6874-11.0907,3.275-13.2988-1.6818S96.2121,202.3455,97.9407,201.5537Z"/>
        <path d="M116.6407,203.3668a7.5852,7.5852,0,0,1,1.4682-4.7681c2.2258-3.0106,6.0864-9.2775,7.5856-13.9212,2.0126-6.2342,4.2893-10.5029,6.9639-7.3776s-2.6659,12.8519-2.5936,15.4971,3.7261,3.8971,4.0583,6.7732-1.0595,2.9069.1161,7.4438.8271,6.3826-2.3121,6.5555-11.0224,1.1607-12.7429.6565-2.1511-3.594-2.34-6.3872C116.7567,206.5385,116.6885,204.826,116.6407,203.3668Z"/>
        <path d="M135.2676,202.0358a7.5852,7.5852,0,0,1,1.4682-4.7681c2.2258-3.0106,6.0864-9.2775,7.5856-13.9212,2.0126-6.2342,5.5107-10.13,8.1853-7.0048s-3.8872,12.4791-3.8149,15.1243,3.726,3.897,4.0582,6.7731-1.06,2.9069.1162,7.4439-.1295,6.4644-3.2688,6.6372-10.0658,1.0789-11.7863.5748-2.1511-3.594-2.34-6.3872C135.3837,205.2075,135.3155,203.495,135.2676,202.0358Z"/>
        <path d="M153.9037,200.0047a6.731,6.731,0,0,1,1.4709-4.4963c2.2552-2.8312,6.1605-8.7292,7.6638-13.1077,2.0182-5.8783,5.5674-9.5383,8.3176-6.57s-3.8954,11.7674-3.8057,14.2671,3.3039,2.294,3.66,5.0134-.54,4.15.6879,8.4442.496,6.0631-2.709,6.2077-10.8632,1.003-12.6233.5164-2.2184-3.4086-2.4276-6.0488C154.0411,203.0021,153.9613,201.3836,153.9037,200.0047Z"/>
        <path d="M172.3761,198.1673a5.9819,5.9819,0,0,1,.9855-4.0874c1.7979-2.6676,4.8411-8.169,5.8637-12.1544,1.3727-5.35,4.2585-8.8439,6.9048-6.4079s-2.62,10.7006-2.3636,12.9089,3.0891,1.799,3.5971,4.1831-.1851,3.7153,1.206,7.4326.8679,5.3366-1.9614,5.6911-9.5535,1.6561-11.1473,1.3494-2.2062-2.8632-2.5781-5.1875C172.71,200.8132,172.5245,199.385,172.3761,198.1673Z"/>
        <path d="M188.1807,195.2351a5.3874,5.3874,0,0,1,.3687-3.7687,43.1359,43.1359,0,0,0,3.7127-11.5728c.5564-4.9435,2.6943-8.42,5.3587-6.5774s-1.0008,9.8712-.4967,11.8089.0835,1.1884,2.3893,3.6272c1.5082,1.5952,1.64,2.9916,3.3448,6.1335s1.44,4.6515-1.039,5.3209-8.3142,2.67-9.7741,2.5952-2.3252-2.2783-2.9471-4.305C188.8085,197.5534,188.4651,196.3026,188.1807,195.2351Z"/>
        <path d="M201.683,190.1165a9.6874,9.6874,0,0,1,.0354-6.5745c1.7585-4.7945,5.2168-12.9978,7.4841-10.4207,3.1488,3.5789-3.565,8.929-.9114,11.7285s4.7132-1.0588,6.4429,4.0949,1.6367,6.35-1.4166,7.5025-6.8082,3.2758-8.3857.6449A37.6936,37.6936,0,0,1,201.683,190.1165Z"/>
        <path d="M217.9363,180.5139l-1.0708-1.7978a2.8328,2.8328,0,0,1,1.594-4.1552l2.6271-.8155a2.8331,2.8331,0,0,1,3.044.9258l3.2341,4.0054a2.8329,2.8329,0,0,0,2.71,1.0077l.0682-.0123a2.8394,2.8394,0,0,1,3.2965,3.265c-.2671,1.7022-.3071,3.53.4163,4.59a12.043,12.043,0,0,0,.829,1.0689,2.8381,2.8381,0,0,1-1.4965,4.6456l-2.4575.5507a2.8221,2.8221,0,0,0-1.7627,1.2313c-1.3118,2.0471-4.3384,6.6685-5.4184,7.4553-1.3951,1.0164-1.159-6.1989-.6284-7.1547.2237-.4031-.5551-.0619-1.5394.2306a2.8361,2.8361,0,0,1-3.5984-2.2018c-.4289-2.302-1.1039-5.163-1.9631-6.33-.7663-1.041.1447-2.0009,1.2536-2.7027A2.8075,2.8075,0,0,0,217.9363,180.5139Z"/>
        <path d="M240.21,170.0967l3.25.0046a2.3192,2.3192,0,0,1,1.7894.848l3.7478,4.5673a.7972.7972,0,0,0,.6815.2888l2.6049-.2142a.7934.7934,0,0,1,.8015,1.0992c-.7569,1.7971-1.8966,5.1981-.8379,7.4376.8869,1.8761,1.7506,3.3933,2.307,4.3177a.7939.7939,0,0,1-.5494,1.1923l-7.7944,1.3473a.7772.7772,0,0,0-.489.29c-.9553,1.23-5.4541,6.8478-8.4817,7.5812-2.518.61-1.1334-5.3585.16-7.6629.3186-.5677.03-2.43-1.02-3.6907-.941-1.13-1.1552-4.5088-.9664-6.26a3.9743,3.9743,0,0,1,2.5394-3.273l1.5255-.5851a.7971.7971,0,0,0,.3881-1.1705l-1.6194-2.5592A2.319,2.319,0,0,1,240.21,170.0967Z"/>
        <path d="M257.9323,167.0783l3.25-.006a2.3194,2.3194,0,0,1,1.7922.8421l3.7628,4.5551a.7971.7971,0,0,0,.6825.2865l2.6041-.2227a.7934.7934,0,0,1,.8051,1.0966c-.751,1.8-1.88,5.2043-.8135,7.44.893,1.8732,1.7617,3.3875,2.3211,4.31a.7939.7939,0,0,1-.5455,1.1941l-7.79,1.3728a.7771.7771,0,0,0-.4881.292c-.9512,1.2331-5.4316,6.8657-8.4568,7.609-2.5159.6182-1.1509-5.3548.1349-7.6635.3168-.5686.2366-1.9472-.8663-3.7113a10.5542,10.5542,0,0,1-1.1326-5.5864c.1547-1.4811,1.12-3.39,2.5089-3.9275l1.5236-.59a.7971.7971,0,0,0,.3843-1.1718l-1.6278-2.5539A2.3191,2.3191,0,0,1,257.9323,167.0783Z"/>
        <path d="M276.2434,163.4712l3.249.0665a2.3187,2.3187,0,0,1,1.773.8818l3.66,4.6378a.797.797,0,0,0,.6759.3017l2.6085-.1646a.7933.7933,0,0,1,.78,1.1142c-.7909,1.7824-1.9951,5.1611-.9792,7.42.8511,1.8926,1.6858,3.426,2.2245,4.3608a.7939.7939,0,0,1-.572,1.1817l-7.8185,1.1988a.777.777,0,0,0-.4945.2811c-.9785,1.2115-5.5833,6.7428-8.6243,7.4185-2.5291.562-1.0313-5.3791.3057-7.6585.3294-.5615.28-1.9415-.7834-3.73a10.5555,10.5555,0,0,1-1.0078-5.61c.1877-1.4773,1.1956-3.3638,2.5959-3.8706l1.5363-.5559a.7973.7973,0,0,0,.41-1.163l-1.57-2.5895A2.319,2.319,0,0,1,276.2434,163.4712Z"/>
        <path d="M294.2868,160.4634l3.249.0664a2.3192,2.3192,0,0,1,1.773.8819l3.66,4.6377a.7968.7968,0,0,0,.6759.3017l2.6085-.1646a.7934.7934,0,0,1,.78,1.1143c-.7909,1.7824-1.9951,5.1611-.9792,7.42.8511,1.8926,1.6858,3.4259,2.2245,4.3608a.7938.7938,0,0,1-.572,1.1816l-7.8185,1.1988a.7774.7774,0,0,0-.4945.2811c-.9785,1.2116-5.5833,6.7429-8.6243,7.4185-2.5291.562-1.0313-5.379.3057-7.6585.3294-.5614.28-1.9414-.7834-3.73a10.5552,10.5552,0,0,1-1.0078-5.61c.1877-1.4772,1.1956-3.3638,2.5959-3.87l1.5363-.556a.7972.7972,0,0,0,.41-1.1629l-1.57-2.59A2.319,2.319,0,0,1,294.2868,160.4634Z"/>
        <path d="M311.6192,158.37l3.2488-.0764a2.3194,2.3194,0,0,1,1.81.8032l3.86,4.4725a.7974.7974,0,0,0,.6886.2717l2.5987-.279a.7933.7933,0,0,1,.8286,1.0788c-.7118,1.8155-1.7664,5.2438-.6523,7.4562.9334,1.8534,1.8346,3.3486,2.4139,4.2589a.7939.7939,0,0,1-.5195,1.2056l-7.7584,1.5411a.7767.7767,0,0,0-.4816.3025c-.9243,1.2534-5.2818,6.9816-8.29,7.79-2.5021.6725-1.2667-5.3286-.031-7.6646.3043-.5753.1943-1.9518-.9466-3.6917a10.5555,10.5555,0,0,1-1.2532-5.5606c.1227-1.4841,1.0467-3.413,2.4234-3.9808l1.51-.6229a.7971.7971,0,0,0,.3589-1.18l-1.6827-2.5179A2.319,2.319,0,0,1,311.6192,158.37Z"/>
        <path d="M329.9565,155.2362l3.2488-.0763a2.3189,2.3189,0,0,1,1.81.8031l3.86,4.4725a.7974.7974,0,0,0,.6886.2718l2.5987-.2791a.7934.7934,0,0,1,.8287,1.0789c-.7119,1.8154-1.7665,5.2438-.6524,7.4562.9334,1.8534,1.8347,3.3486,2.4139,4.2589a.7939.7939,0,0,1-.5195,1.2056l-7.7584,1.541a.7768.7768,0,0,0-.4816.3026c-.9243,1.2533-5.2818,6.9816-8.29,7.79-2.502.6725-1.2666-5.3286-.031-7.6646.3043-.5754.1943-1.9518-.9465-3.6917a10.5548,10.5548,0,0,1-1.2533-5.5606c.1227-1.4841,1.0468-3.4131,2.4234-3.9808l1.51-.6229a.7972.7972,0,0,0,.3588-1.18l-1.6826-2.518A2.319,2.319,0,0,1,329.9565,155.2362Z"/>
        <path d="M220.2351,206.6443a2.24,2.24,0,0,0,1.6127,2.0519c2.9228.8623,9.1547,3.4348,11.1152,10.0327,1.95,6.5623.3181,13.2194-.611,16.1172a1.6969,1.6969,0,0,0,.99,2.1026h0a1.69,1.69,0,0,0,2.2213-1.0207c1.1425-3.3423,3.314-11.2275,1.4968-18.7285-1.6707-6.896-9.3055-10.9237-13.7432-12.7216a2.2365,2.2365,0,0,0-3.0817,2.1664Z"/>
        <path d="M224.03,222.8961c-4.1181-14.81-8.6644-18.6259-10.15-19.5452a1.435,1.435,0,0,0-1.1334-.1763,1.4551,1.4551,0,0,0-.806,2.2794c2.5817,3.5136,8.0725,12.43,10.15,27.1015.98,6.8737,1.5641,11.4929,1.9188,14.506a2.6142,2.6142,0,0,1-.9149,2.32c-.3612.3029-.776.6724-1.2516,1.1231a2.67,2.67,0,0,1-4.4949-1.58c-1.2275-9.829-3.4781-21.8459-7.5865-30.4611-2.9857-6.29-5.0664-10.2148-6.5042-12.6513a2.5776,2.5776,0,0,0-3.1843-1.1262,2.7641,2.7641,0,0,0-1.4191,4.0805c2.758,4.3448,12.0772,20.0616,13.324,35.98.4829,6.1969.7349,11.0713.8517,14.8052a2.6347,2.6347,0,0,1-.66,1.8269q-.6582.7428-1.3193,1.45a2.66,2.66,0,0,1-4.602-1.6645c-.538-9.6407-2.0159-23.0236-5.8818-34.7033-4.0426-12.2159-7.871-16.9762-10.39-18.8275a2.774,2.774,0,0,0-4.08,1.0327l-.2016.4156a2.776,2.776,0,0,0,.4282,3.1232c3.3877,3.64,12.1906,14.81,14.0419,34.0657a169.5845,169.5845,0,0,1,.9545,24.0322,2.6373,2.6373,0,0,1-1.0825,2.0139q-.7992.5791-1.5472,1.0893a2.6712,2.6712,0,0,1-4.1755-2.2459,130.4464,130.4464,0,0,0-1.1891-21.061c-3.1232-17.9585-15.49-36.0178-15.49-36.0178-.8438-2.2542-8.2614-3.8032-6.1583-.4785s15.3012,23.2478,17.1021,46.5963c1.099,14.2864-1.0085,31.7905-3.6892,39.53a2.5869,2.5869,0,0,1-1.5517,1.5877c-2.3773.8838-4.9,1.7881-7.5245,2.6808a2.6619,2.6619,0,0,1-3.4591-3.08,110.4449,110.4449,0,0,0,.1425-45.7682c-2.7077-13.0848-14.6968-42.642-14.6968-42.642-.8563-2.2416-5.919.466-3.8159,3.8033,2.1032,3.3247,13.7523,32.2145,15.5406,55.55a72.7552,72.7552,0,0,1-6.1174,35.0469,2.6177,2.6177,0,0,1-1.6891,1.4513c-1.8084.5024-3.6333.9785-5.4617,1.4253a2.67,2.67,0,0,1-3.2558-3.1338c2.6211-12.878,3.3622-32.741.2029-48.0838-2.6946-13.0863-14.0229-43.03-14.0229-43.03-.8466-2.2529-5.9174.4663-3.8142,3.7923s13.4871,29.3972,15.2854,52.7376c1.182,15.3424-5.8215,37.9089-5.8671,38.2226a2.7453,2.7453,0,0,1-2.3992,2.2107c-1.8139.2588-4.5209.4421-6.5869.5611a2.5126,2.5126,0,0,1-2.649-2.7561c.3942-3.9728,1.0573-10.89,1.1751-13.6.535-12.3076-3.0209-29.46-6.6758-40.7154-4.0157-12.3666-6.866-25.9365-6.6316-34.6637l.0834-2.5554a2.6744,2.6744,0,0,0-.9322-2.1177l-.0857-.0735a2.6721,2.6721,0,0,0-4.4022,1.7953c-.2834,3.2142.2991,7.6547.6886,12.1719.761,8.8255,6.0636,22.5685,10.2844,44.6673A86.8375,86.8375,0,0,1,125.881,311.2a2.494,2.494,0,0,1-2.6205,1.9022c-3.4339-.263-10.2677-.8338-13.8713-1.4606a2.6787,2.6787,0,0,1-2.2087-3.0372c.5314-3.4949,1.0231-7.0862,1.215-9.2275.7934-8.7526.1133-29.1669-2.292-40.753-2.6447-12.7195-4.433-26.4591-3.3877-35.1235l.3149-2.5187a2.6932,2.6932,0,0,0-.73-2.2291l-.3274-.34a2.4887,2.4887,0,0,0-4.2315,1.272,73.9527,73.9527,0,0,0-1.2467,12.4425c-.0631,8.8658,4.6848,23.147,6.8257,45.551A87.3166,87.3166,0,0,1,101.12,306.93a2.6706,2.6706,0,0,1-3.3865,1.9091A59.1955,59.1955,0,0,1,81.3928,300.32a2.6481,2.6481,0,0,1-.7864-3.494c5.1593-8.9254,3.89-26.597,2.915-46.108a132.3027,132.3027,0,0,1,1.8964-31.2105,2.4746,2.4746,0,0,0-2.9143-2.8972l-.0031.0008a2.6625,2.6625,0,0,0-1.99,2.175c-.9085,5.8744-3.5293,24.82-2.5979,42.5705.5905,11.2544-1.72,23.049-3.224,29.328a2.6645,2.6645,0,0,1-4.5445,1.1778c-.1788-.1925-.3429-.372-.4861-.5324-2.9706-3.3055-5.3482-6.0642-7.244-8.3717a2.64,2.64,0,0,1-.461-2.5092c1.9421-5.8927,4.7041-11.3487,4.8055-29.974a216.3111,216.3111,0,0,1,2.8129-33.5527,2.66,2.66,0,0,0-2.07-3.1107l-.2085-.044a2.4907,2.4907,0,0,0-3.0563,2.2c-.6065,7.2766-2.219,26.8534-2.7623,35.7642-.6,9.8432-.3818,18.4219-4.7677,23.634-.4-.6132-.7138-1.14-.9645-1.566a1.8106,1.8106,0,0,0-2.7328-.5415l-.05.05a1.8061,1.8061,0,0,0-.4282,2.3172c3.4381,5.856,18.5881,29.23,46.3822,38.612,2.2543.7556,4.5841,1.4357,7.0021,1.99.9193.2141,1.8512.4155,2.7957.5919,17.48,3.3624,38.8513-.34,57.0239-5.39h.0378c1.3979-.3778,2.77-.7682,4.1307-1.1712,5.4908-1.6246,10.6164-3.3373,15.1626-4.9744,2.1788-.7808,4.2316-1.5365,6.1206-2.2669,5.5034-2.1158,9.6719-3.8914,11.9009-4.8863a2.2047,2.2047,0,0,0,1.209-2.7329,2.2294,2.2294,0,0,0-2.1031-1.5363,2.1514,2.1514,0,0,0-.9068.2014c-1.1484.5071-2.7076,1.1864-4.6068,1.9858a2.6816,2.6816,0,0,1-3.7088-2.7955c.5348-4.2728.9077-9.066,1.126-13.9321l.0113-.0052a47.2369,47.2369,0,0,0,6.5612-3.8663c2.0025-1.3979,3.9671-2.9343,5.8812-4.5589,2.2165-1.9016,4.3574-3.904,6.36-5.9064,1.9646-1.9772,3.8032-3.9418,5.4655-5.7931,2.6195-2.9217,4.7982-5.5915,6.3724-7.5813.9894-1.2547,1.738-2.24,2.1994-2.856a2.6307,2.6307,0,0,0,.5236-1.6213A94.3893,94.3893,0,0,0,224.03,222.8961Z"/>
      </g>
      <path d="M412.8258,198.6623c-7.7085-3.7131-10.6147-8.7332-13.82-13.47-3.2045-4.7436-8.524-4.7319-17.1553-7.4874-8.6247-2.7545-15.3974-19.4941-17.4557-20.3925-8.1656-3.5626-20.2816,2.7443-19.4784,11.9635.8043,9.2127,12.5072,12.8082,19.53,13.8754,7.0235,1.0607,13.2242,21.2221,19.305,26.66s26.8015,6.7548,34.611,1.73S420.5409,202.3765,412.8258,198.6623Zm-4.3216,9.6063c-3.5239,2.7413-11.6272.4918-16.0143-2.646-4.3816-3.13-3.1955-6.1248-.9254-6.4676.927-.1393,2.9245.4035,9.9514,1.6443C408.5354,202.0455,412.0345,205.5284,408.5042,208.2686Z"/>
      <path d="M399.2433,168.044c1.2837,1.4922,2.62,1.5964,7.1438,2.1152s7.8612,4.378,9.7131,3.2489,4.89-5.4959,1.807-7.35-9.097-2.5285-12.95-4.8459-5.077.2389-5.6962,2.3975-.7762,3.7048-.1951,4.2776"/>
      <path d="M419.7684,175.0914c.8089,1.7945,2.0613,2.2728,6.253,4.0507s6.3006,6.424,8.3964,5.8652,6.2452-3.8871,3.8133-6.5377-8.0092-5-11.0491-8.3133-4.937-1.2078-6.1418.6873-1.7931,3.3335-1.3979,4.0474"/>
      <path d="M382.019,156.7794c5.54,1.6964,13.1746,2.0245,14.3234,5.9659s-3.6844,7.0608-11.0228,8.711-12.5691-3.3006-11.4844-8.3818S377.7261,155.4649,382.019,156.7794Z"/>
    </g>
    <path d="M486.4434,270.2173c-.19,0-.3819-.0093-.5762-.0274a6,6,0,0,1-5.4033-6.542,129.51,129.51,0,0,0-4.3535-40.8256c-7.89-29.2876-24.6211-51.063-49.7315-64.7207-47.6553-25.9234-116.4238-14.2217-196.0518-.6729-24.5625,4.18-49.9619,8.5015-76.2451,11.99-47.8379,6.35-84.6709,3.93-109.4765-7.1929-19.5967-8.7876-24.4-19.9942-24.8838-21.2432l11.1914-4.33-.0479-.1176c.1534.351,16.5772,34.9341,121.6387,20.9882,26.0645-3.4594,51.3535-7.7626,75.8106-11.9243,81.8232-13.9223,152.49-25.9487,203.7988,1.9615,27.84,15.143,47.1006,40.2373,55.6992,72.57a138.98,138.98,0,0,1,4.5967,44.6557A6.0005,6.0005,0,0,1,486.4434,270.2173Z"/>
    <path d="M444.5254,381.3115a6,6,0,0,1-5.69-4.102c-.6123-1.8355-14.8867-45.3531-5.6621-80.1114A161.1541,161.1541,0,0,0,437.5,237.9907a6,6,0,0,1,11.8564-1.853c.1885,1.2,4.5059,29.7876-4.5849,64.0386-8.294,31.2524,5.31,72.8227,5.4482,73.2392a6.0043,6.0043,0,0,1-5.6943,7.896Z"/>
  </g>
</svg>
