<svg id="Layer_1" data-name="Layer 1" xmlns="http://www.w3.org/2000/svg" viewBox="0 0 512 512">
  <title>Bone 512x512px</title>
  <path d="M384.9893,491.4971a55.0918,55.0918,0,0,1-36.53-13.78c-.919-.7861-1.7813-1.6289-2.5664-2.415a55.38,55.38,0,0,1-15.9844-34.1944A115.7961,115.7961,0,0,0,296.6064,369.52L142.4785,215.3906a115.7979,115.7979,0,0,0-71.581-33.2988,55.2721,55.2721,0,0,1,.997-110.1963A55.276,55.276,0,0,1,182.0928,70.9a115.7888,115.7888,0,0,0,33.3008,71.58L369.5215,296.6094a115.795,115.795,0,0,0,71.581,33.2988,55.2715,55.2715,0,0,1-.997,110.1953,55.2236,55.2236,0,0,1-55.1162,51.3936ZM75.7754,83.7617a43.2733,43.2733,0,0,0-3.8281,86.376,127.819,127.819,0,0,1,79.0136,36.7656L305.0938,361.0371A127.81,127.81,0,0,1,341.8613,440.05a43.367,43.367,0,0,0,12.5157,26.7676c.7109.7109,1.3154,1.2959,1.955,1.8437A43.2535,43.2535,0,0,0,428.2383,436.07a7.7887,7.7887,0,0,1,7.8076-7.832h.1758a43.3142,43.3142,0,0,0,32.5312-14.7031l.001-.001a43.2954,43.2954,0,0,0-28.7012-71.6719,127.8136,127.8136,0,0,1-79.0136-36.7656L206.9063,150.9629A127.81,127.81,0,0,1,170.1387,71.95a43.2722,43.2722,0,0,0-86.377,3.98,7.7717,7.7717,0,0,1-2.2812,5.5508A7.9515,7.9515,0,0,1,75.7754,83.7617Z"/>
</svg>
