<svg id="Layer_1" data-name="Layer 1" xmlns="http://www.w3.org/2000/svg" viewBox="0 0 512 512">
  <title>Clavicle 512x512px</title>
  <g>
    <path d="M363.2119,417.1685c-2.3035-48.15-6.8323-111.1037-25.1494-125.65s-41.4976-34.2021-20.8818-70.9089,61.3741-22.289,71.07-19.651,35.3913,3.1894,31.4779,36.9815-9.15,123.4965-8.1523,159.3726c.7576,27.2521,3.3422,65.9073,4.5411,82.9168a7.9905,7.9905,0,0,1-8.0249,8.55l-33.4617-.1837a8,8,0,0,1-7.9443-7.5654Z"/>
    <path d="M163.2083,155.7326c8.5908,11.3277,31.1079,28.2982,40.7413,32.1114s15.0522,23.933,21.8257,24.8361,11.7407-13.0954,10.5366-23.7825,31.9107-23.7824,49.5217-16.5574,36.77,17.3322,33.1577,29.8255-18.3287,22.1935-19.2319,37.5468,6.5452,45.67-21.7529,62.2273-88.3532,67.5152-102.8033,90.3945-30.5593,62.837-57.3522,76.986-43.0494,23.4815-59.0047-30.7065-11.1386-94.5279-8.4292-126.1375S73.2964,211.0244,85.6392,193.2628s31.81-27.5957,41.1427-35.9246S151.869,140.7807,163.2083,155.7326Z"/>
    <path d="M311.1242,156.4327a16.2466,16.2466,0,0,1,9.4372-2.9961c9.2871.02,28.814,1.1566,29.05,10.3535.31,12.0716-12.798,31.9293-20.813,27.8726s-15.5406-11.8791-26.143-16.9222C294.2425,170.7389,304.0232,161.465,311.1242,156.4327Z"/>
    <path d="M158.4828,100.0827c17.4448,8.191,37.7308,20.6215,56.9977,26.6424S254.2148,136.76,265.2531,136.76s30.5058-3.01,35.5232,10.4362-8.4292,20.07-30.7065,18.4641-13.2459-9.6334-38.5336-10.2355-25.4885,2.0069-29.7031-5.2181S157.88,138.533,128.6794,132.99c-25.6312-4.8657-63.52-3.254-71.6485-18.6073S61.5465,90.6,77.05,79.4612s23.632-7.5261,42.7483,1.8062S151.4123,96.7629,158.4828,100.0827Z"/>
    <path d="M457.1953,487.8018a6.0026,6.0026,0,0,1-5.9394-5.2041c-4.7481-35.4278-3.9434-83.7793,2.46-147.8155q.3808-3.8013.7871-7.7383c5.0606-49.3486,11.3584-110.7651-23.53-167.9619C394.3252,99.0054,315.3477,86.4688,238.97,74.3452,161.1348,61.9907,64.6865,29.228,63.7217,28.8984A6,6,0,0,1,67.5986,17.542c.9561.3262,96.45,32.7612,173.252,44.9517,38.7724,6.1542,78.8652,12.5185,114.3369,25.4316,40.166,14.6226,68.3066,35.854,86.0293,64.9077,36.9951,60.6484,30.1914,126.9922,25.2236,175.4346q-.4012,3.9213-.7832,7.708c-6.31,63.0967-7.13,110.5361-2.5068,145.0283A6.0015,6.0015,0,0,1,458,487.748,6.0639,6.0639,0,0,1,457.1953,487.8018Z"/>
    <path d="M299.8262,489.3145a6,6,0,0,1-5.9932-5.8008l-3.02-90.98a6,6,0,1,1,11.9941-.3984l3.0195,90.98a6.0011,6.0011,0,0,1-5.7978,6.1963C299.9609,489.3135,299.8936,489.3145,299.8262,489.3145Z"/>
    <path d="M273.7529,487.8018a6.0051,6.0051,0,0,1-5.8925-7.1661c7.8828-39.8232,23.0585-89.5615,23.2109-90.0586a6,6,0,1,1,11.4746,3.5118c-.15.4922-15.1514,49.6611-22.9141,88.8769A6.0017,6.0017,0,0,1,273.7529,487.8018Z"/>
  </g>
</svg>
