<svg id="Layer_1" data-name="Layer 1" xmlns="http://www.w3.org/2000/svg" viewBox="0 0 512 512">
  <title>Eyes 512x512px</title>
  <g>
    <g>
      <path d="M256.0081,141.3229A114.6771,114.6771,0,1,0,370.6851,256,114.7992,114.7992,0,0,0,256.0081,141.3229Zm0,191.8235A77.1464,77.1464,0,1,1,333.1545,256,77.2388,77.2388,0,0,1,256.0081,333.1464Z"/>
      <path d="M320.3223,249.48a64.6442,64.6442,0,1,1-127.8284-5.4666,8.2167,8.2167,0,0,1,10.69-6.2431,27.1,27.1,0,0,0,34.5941-34.5936,8.2167,8.2167,0,0,1,6.243-10.6907,64.61,64.61,0,0,1,76.301,56.994Z"/>
    </g>
    <path d="M256.1973,397.5273c-105.77,0-193.876-81.8173-226.8467-116.9941a35.278,35.278,0,0,1,.1045-48.3105c18.8242-19.8931,49.3613-48.7022,87.9375-72.979,47.207-29.7081,93.9072-44.771,138.8047-44.771,44.7519,0,91.3017,14.9682,138.3564,44.49,38.5518,24.1865,69.1182,52.9517,87.9717,72.8232a35.1732,35.1732,0,0,1,0,48.4288c-18.8535,19.8715-49.42,48.6367-87.9717,72.8232C347.499,382.5591,300.9492,397.5273,256.1973,397.5273Zm0-271.0546c-99.42,0-185.5918,79.7221-218.0254,113.998a23.2621,23.2621,0,0,0-.0655,31.8564c31.9014,34.0357,117.0137,113.2,218.0909,113.2,99.165,0,185.2246-79.4248,217.623-113.5722a23.1759,23.1759,0,0,0,0-31.91v0C441.4219,205.8975,355.3623,126.4727,256.1973,126.4727Z"/>
  </g>
</svg>
