<svg id="Layer_1" data-name="Layer 1" xmlns="http://www.w3.org/2000/svg" viewBox="0 0 512 512">
  <title>Finger 512x512px</title>
  <g>
    <path d="M319.8062,267.5488a6,6,0,0,1-5.9947-5.8369l-5.78-212.1172a20.9274,20.9274,0,0,0-41.8052-.61L255.3008,229.3506a6,6,0,0,1-11.9785-.7246L254.248,48.252a32.9276,32.9276,0,0,1,65.7779.999l5.7807,212.1347a6,6,0,0,1-5.8339,6.1612C319.917,267.5479,319.8613,267.5488,319.8062,267.5488Z"/>
    <path d="M213.1929,246.4092a6,6,0,0,1-6-6V219.6943a18.44,18.44,0,0,1,15.2343-18.1787l27.8223-4.9424a6,6,0,1,1,2.0986,11.8145L224.5259,213.33a6.4556,6.4556,0,0,0-5.333,6.3642v20.7149A6,6,0,0,1,213.1929,246.4092Z"/>
    <path d="M173.01,264.6787a6,6,0,0,1-6-6V242.5469a24.8471,24.8471,0,0,1,19.3857-24.1182l25.5073-5.6152a6,6,0,1,1,2.58,11.7187l-25.5073,5.6153a12.7744,12.7744,0,0,0-9.9658,12.3994v16.1318A6,6,0,0,1,173.01,264.6787Z"/>
    <path d="M177.7188,488.8945a6.0022,6.0022,0,0,1-5.542-3.6972l-11.3047-27.1748a442.4,442.4,0,0,1-34.0552-170.6172V273.11a33.2293,33.2293,0,0,1,25.9209-32.2374l18.9868-4.1669a6,6,0,0,1,2.5723,11.7207l-18.9805,4.166A21.1526,21.1526,0,0,0,138.8169,273.11v14.2949a430.4608,430.4608,0,0,0,33.1352,166.01l11.3038,27.1729a6.0035,6.0035,0,0,1-5.5371,8.3066Z"/>
    <g>
      <path d="M292.5114,334.79c.1527,15.6584.3367,51.3555,2.8624,57.5855s7.577,6.3983,3.5359,16.5011-3.3675,20.8789-11.2813,20.037-20.3738,2.5257-21.2157-9.0924-.6735-9.0925,2.1889-18.1849,4.0411-45.4622,2.1889-56.07-11.2814-21.6366-15.3224-50.9345,22.2259-25.5094,26.8984-19.4478,20.8369-2.9045,16.7958,14.1439S292.292,312.3063,292.5114,334.79Z"/>
      <path d="M293.1007,477.87c-3.536,3.41-4.6725,8.0822-13.26,6.3142s-20.9632-7.1982-30.1819-.7577-24.7517,7.0879-28.7927,1.1446-1.3892-22.6129,3.9148-22.6129,9.85,8.84,18.8163,6.9456,18.5637-10.229,24.2465-8.9661,10.3553,6.693,16.4169,6.5667,11.7444,7.4508,9.4713,11.113"/>
      <path d="M217.4987,462.1683c-.5446,2.0331-4.2937,9.3871-4.7146,10.9025s-1.5575,7.535-7.7033,4.1674-12.1654-9.52-13.0915-17.43,1.4312-8.3314,6.3984-6.3109,8.7557,4.5462,12.7968,2.8624S218.7615,457.4537,217.4987,462.1683Z"/>
      <path d="M317.5366,435.817c4.694-.6549,7.0719,2.21,8.3348,4.6725s.1894,6.0617-2.0206,8.84-3.7885,4.1674-6.3142,4.4831-3.4728,1.01-7.135,6.3773-15.8487,5.304-17.8692,3.1571-3.0308-10.1027-2.3363-18.3111,4.1043-14.7753,7.3877-17.0484,8.2716,2.0206,10.0395,3.5991S312.1064,436.5747,317.5366,435.817Z"/>
      <path d="M284.9343,442.1733c.5437,6.0583-1.0524,13.47-2.4836,15.3646s-2.61,1.4312-6.1879-.3789-6.7772-3.9569-10.1869-2.3573-7.3413,1.5575-9.5007-3.5359-3.1277-9.5976-1.4439-14.7332,7.03-4.3778,9.766-2.4835,4.5041,1.6417,7.1981.2525S284.345,435.6066,284.9343,442.1733Z"/>
      <path d="M250.101,437.8376c-.6863,3.8235-1.0734,8.2716.6946,12.7547s2.9676,8.65-3.5991,11.3655-25.32-3.6622-26.52-8.3979.0632-6.0269,1.8311-7.8753,2.3363-4.3111,2.0837-7.2156,1.8311-10.4184,7.1982-10.2921,5.43,2.7151,9.2819,2.0836S251.427,430.45,250.101,437.8376Z"/>
      <path d="M217.3934,424.2621c5.5117,3.8056,5.0514,7.83,3.8517,12.25s-4.8619,4.2305-6.5036,7.5139-2.2731,8.5873-6.6931,7.5139-7.0719-1.8943-7.5139-8.2716-.5682-3.536,3.41-7.8928,1.6417-5.4933,3.5991-9.9764S214.7415,422.4309,217.3934,424.2621Z"/>
      <path d="M202.6814,417.9268c1.3319,4.44,1.6,6.4826-2.1469,9.5134s-6.02,6.6931-5.5565,10.3974,2.2732,7.9559-.7156,8.461a8.96,8.96,0,0,1-8.4715-3.7569c-1.8311-2.7467-6.7878-9.6923-6.3458-16.1328s4.2937-6.3774,7.3245-5.8091,5.6828.19,7.0087-1.9574,1.6417-3.3781,3.757-3.9464S201.6711,414.5592,202.6814,417.9268Z"/>
      <path d="M319.5227,354.3761c.0941,12.6713.6688,31.4324-7.5132,41.5915s-18.0277,23.123-11.8853,29.4011,13.895,1.3347,16.2179,3.8135,13.7841,12.5543,16.3411-6.564,1.23-24.3879,3.9656-36.2763,8.0239-14.8468,13.0491-19.26,3.1366-15.2162-4.7771-14.6633-7.38,1.0825-11.9482-3.4139S319.4242,341.1215,319.5227,354.3761Z"/>
      <path d="M267.5189,305.1488c-6.7163-1.8628-13.1534-7.352-8.7769-11.6332s9.6034-.5923,16.5934-3.8243,12.7377-5.8065,17.7452-.4111,1.6837,15.2-.3627,17.8741-4.5995,3.7649-10.4847.8717C275.91,304.9174,273.55,306.8215,267.5189,305.1488Z"/>
      <path d="M296.2157,178.8713c-2.5045,9.2666-7.4087,28.1192-3.1992,46.6409s9.4292,38.39,6.23,44.62-11.9549,3.7043-14.1438-1.1787-8.0822-.8419-11.7865-1.1786-13.9754-.3368-9.766-24.5833,8.5873-49.1665,7.7454-58.7641-6.5667-20.0371,1.3471-21.8892,12.1232,2.8624,14.9857,1.1786S302.9508,153.9513,296.2157,178.8713Z"/>
      <path d="M271.1273,121.8751c-2.3994,11.7444-7.0719,22.1-4.42,30.1819s7.7034,5.1776,11.7444,3.0308,8.2085.3476,12.6284,2.3206,10.3553,2.6045,10.7342-2.068-4.6725-13.6387-5.8091-25.6357-.1263-21.8471,2.5257-27.53-5.3039-3.7885-9.85-2.7782-8.9661-6.0616-13.0072-4.1674-1.1366,8.9662-2.0206,13.1335S271.1273,121.8751,271.1273,121.8751Z"/>
      <path d="M277.8624,57.3019c.6735,7.0719-2.3573,20.5422-2.1889,25.4252s3.7043,11.7865,10.2711,11.113,15.7434,0,11.45-9.4713-.3788-21.0894-4.1673-27.6562-4.839-6.1458-6.1449-6.4826-4.5893-3.7043-7.7043-1.6838-.7694,7.0731-1.0944,8.9241"/>
      <path d="M245.0286,314.2477c.092,24.5854,7.2655,53.2076,11.5466,67.0147s8.9956,20.2054,6.975,24.4149-2.5256,8.924-2.3573,13.807,0,8.2973-10.2711,7.853-17.1746-6.506-18.0165-16.6087,3.3676-18.0165,0-34.1808-4.5462-29.4663-11.113-50.5136-11.113-39.0638-3.3675-44.452,26.94-7.24,26.6038,2.8625S245.0135,310.2135,245.0286,314.2477Z"/>
      <path d="M247.7016,253.21a20.9562,20.9562,0,0,1-1.8943,5.6828c-.9471,2.1468,1.326,8.903-1.1365,11.555s-3.0308,3.3465-8.5873,1.4523-8.7768-.1908-10.9867,1.0727-9.5976,4.1681-8.4611-3.409,7.83-11.1761,11.4287-12.6915,7.0088-6.8825,8.5873-8.903S248.08,241.6555,247.7016,253.21Z"/>
      <path d="M192.3261,341.6934c5.6647,23.4193,9.345,40.8318,9.5976,50.9345s1.01,21.8693,7.9559,21.8582,7.7033,7.0609,13.6386,4.2826,7.4508-8.3347,1.5154-21.0894-15.0278-39.4006-15.6592-52.5341-2.296-15.9118,1.1882-27.4037-1.3145-21.5945-10.7858-20.9631-19.1951,1.5154-17.3009,13.0073S190.7911,335.3475,192.3261,341.6934Z"/>
      <path d="M201.5448,262.808c-2.8167,4.4389-7.3245,11.3656-9.85,13.6387s-8.7136,14.0175,0,14.3964,13.1335.8839,14.7752,0,4.2936-5.1777,3.41-12.5022,2.9045-8.3347,2.9045-14.0175S207.2023,253.8924,201.5448,262.808Z"/>
      <path d="M185.7593,363.0775a182.7277,182.7277,0,0,0,13.6387,35.4858c1.8942,3.2834.5051,7.3244-4.1674,12.2495s-9.4432,5.0514-12.9932-.6314-3.6763-23.2363-7.7174-36.1172-17.4271-25.5094-18.0586-34.0967,2.7783-10.7341,5.8091-15.1541-2.02-9.7238,7.4508-8.7135,10.229,10.7341,10.86,16.922S184.37,357.6769,185.7593,363.0775Z"/>
      <path d="M172.2048,282.5083c-2.7712,4.1042-6.9035,11.45-9.0924,12.6284s-11.0129,6.9877-6.7272,13.5545,6.7272,1.8522,10.179,1.347,4.462,1.2629,7.83.9261,4.7-2.3573,3.9076-8.5873.2458-8.84,3.936-14.1438,2.2591-12.7968-2.3713-11.45A12.5082,12.5082,0,0,0,172.2048,282.5083Z"/>
      <path d="M323.3045,298.2682c5.3509,7.2013,12.3536,14.153,20.9358,21.1963s13.4836,9.653,5.6486,21.055-15.8136,7.4035-20.3539.153-2.9294-13.374-15.9761-17.9036-22.2233-7.3549-10.6375-23.5343S321.3755,295.6723,323.3045,298.2682Z"/>
    </g>
    <path d="M334.7329,488.8945a6.0035,6.0035,0,0,1-5.4995-8.3945A537.9333,537.9333,0,0,0,372.24,308.2461l.877-11.0449a20.9629,20.9629,0,0,0-9.2686-19.0918l-47.9331-31.9307a6,6,0,1,1,6.6524-9.9863l47.9336,31.9306a32.9693,32.9693,0,0,1,14.5776,30.0284l-.877,11.0439a549.9085,549.9085,0,0,1-43.9638,176.09A6.0016,6.0016,0,0,1,334.7329,488.8945Z"/>
  </g>
</svg>
