<svg id="Layer_1" data-name="Layer 1" xmlns="http://www.w3.org/2000/svg" viewBox="0 0 512 512">
  <title>Foot 512x512px</title>
  <g>
    <g>
      <path d="M322.564,29.2041c.4927,28.3847,3.1342,147.8233,13.1966,187.61a10.1771,10.1771,0,0,0,9.8839,7.6717h.2312a10.5476,10.5476,0,0,0,10.5783-10.5387V29.1035a6,6,0,0,0-6-6H328.5631A5.9962,5.9962,0,0,0,322.564,29.2041Z"/>
      <path d="M417.6608,323.082c-16.8227,24.27-48.6266,31.4188-71.0136,15.9234s-26.9245-47.77-10.1024-72.0837a56.9981,56.9981,0,0,1,14.4314-14.4888c14.2307-9.8486,22.2957-26.4245,22.2957-43.7308V29.1035a6,6,0,0,1,6-6h28.6648a6,6,0,0,1,6,6V239.1026a55.21,55.21,0,0,0,7.5062,27.1344C430.8635,282.89,430.0558,305.1585,417.6608,323.082Z"/>
      <path d="M306.7077,308.5383c6.2316,10.6725,16.6453,26.1066,30.4452,38.0663a10.0917,10.0917,0,0,1,.4191,14.6777l-31.77,32.183a10.1411,10.1411,0,0,1-14.7109-.2486c-9.4373-10.2954-25.5439-28.4208-32.566-39.6073a10.1692,10.1692,0,0,1,1.0171-12.1916l30.776-34.55A10.1684,10.1684,0,0,1,306.7077,308.5383Z"/>
      <path d="M318.47,401.22a9.0573,9.0573,0,0,0,2.0362,12.29c15.5281,11.7517,53.4892,40.7205,66.4509,52.7883,16.4533,15.3186,65.8133,14.1839,75.4583-10.78s12.4819-30.07,3.4042-53.3314-16.4534-66.948-39.5258-54.8444-51.44,9.8341-60.8962,9.8341-14.3731,5.2954-25.72,16.6425C332.3546,381.1425,323.6928,393.4274,318.47,401.22Z"/>
      <path d="M259.0562,399.2615l-18.6969,20.6479a8.3669,8.3669,0,0,0,.4751,11.7158l36.828,34.5769a8.3673,8.3673,0,0,0,5.727,2.2671H332.14a8.3635,8.3635,0,0,0,5.2239-14.9024c-20.59-16.4105-52.5378-42.1538-66.4824-54.88A8.3425,8.3425,0,0,0,259.0562,399.2615Z"/>
      <path d="M207.4488,389.3249l7.8189,16.9409a9.59,9.59,0,0,0,15.07,3.1572L253.56,388.8338a9.59,9.59,0,0,0,1.9262-12.0006l-6.6715-11.4612a9.59,9.59,0,0,0-13.3418-3.3262l-24.37,15.11A9.59,9.59,0,0,0,207.4488,389.3249Z"/>
      <path d="M88.6739,439.8026l10.6082,16.9158a10.0828,10.0828,0,0,0,15.5544,1.9283c11.8976-11.496,33.5394-29.1164,48.8352-22.5611,22.12,9.48,44.5559,8.216,44.5559-22.7519s-41.08-27.1612-52.7719-20.3746c-8.7389,5.0725-45.0167,23.4772-62.7848,32.4507A10.1032,10.1032,0,0,0,88.6739,439.8026Z"/>
      <path d="M76.52,444.5665l9.8714,14.3107a11.0215,11.0215,0,0,1-1.8228,14.5595h0a11.0212,11.0212,0,0,1-7.7214,2.71l-23.6063-1.0113a11.0214,11.0214,0,0,1-7.195-18.9291l13.735-13.2994A11.0214,11.0214,0,0,1,76.52,444.5665Z"/>
    </g>
    <path d="M446.0122,494.8965c-30.7905,0-342.397-2.502-404.55-3.0029A22.442,22.442,0,0,1,19.2578,467.416c1.0972-11.6836,3.7871-20.24,7.9951-25.4326,12.7979-15.792,70.8306-54.0127,142.2832-81.81,75.1963-29.253,104.6753-92.3028,114.3628-113.022,14.208-30.3877,5.8638-155.378-.5332-217.2232a6,6,0,1,1,11.9365-1.2343c.7691,7.436,18.6167,182.5835-.5332,223.5405-10.1909,21.7964-41.2036,88.1255-120.8823,119.1225C101.9751,399.333,47.0942,436.56,36.5757,449.5391c-1.5152,1.8691-4.2271,6.8232-5.3706,18.998a10.223,10.223,0,0,0,2.63,7.8887,10.4089,10.4089,0,0,0,7.7241,3.4678c62.145.5019,373.7085,3.0029,404.4531,3.0029,11.4966,0,19.7437-2.9063,25.2119-8.8848,8.292-9.0654,11.1734-26.3408,8.81-52.8144-1.6533-18.5147-8.0835-41.7715-14.8906-66.3946-9.0533-32.7441-19.3145-69.8584-21.1236-105.5918-3.1147-61.5092,2.6821-218.5449,2.7407-220.124a6,6,0,0,1,11.9922.4473c-.0591,1.5737-5.8364,158.0849-2.7485,219.07,1.7427,34.415,11.8169,70.8525,20.7051,103.001,6.9565,25.1611,13.5273,48.9267,15.2768,68.5254,2.7173,30.4326-1.0664,50.1279-11.9077,61.98C472.3184,490.5947,460.8569,494.8965,446.0122,494.8965Z"/>
  </g>
</svg>
