<svg id="Layer_1" data-name="Layer 1" xmlns="http://www.w3.org/2000/svg" viewBox="0 0 512 512">
  <title>Hand 512x512px</title>
  <g>
    <g>
      <path d="M299.8,456.3961c-4.14-.3-7.4-4.74-16.9-6.22-9.48-1.48-18.38-12.46-27.5-13.8-8.4136-1.21-15.499,24.4429-9.3384,49.6339a4.0344,4.0344,0,0,0,3.9038,3.106h61.7593a4.0079,4.0079,0,0,0,3.9985-3.9026,52.3577,52.3577,0,0,1,.6968-8.3574C320.56,450.7561,303.96,456.696,299.8,456.3961Z"/>
      <path d="M349.92,442.456c-5.48-5.18-13.78,3.56-23.12,6.52-9.34,2.98-10.26,15.16-4.16,28.18.5732,1.2148,1.1045,2.8,1.7548,8.4044a4.0148,4.0148,0,0,0,3.9737,3.5557H349.643a4.0039,4.0039,0,0,0,4-4c.0246-10.0935.394-14.89,1.0171-18.04C357.92,450.456,355.4,447.656,349.92,442.456Z"/>
      <path d="M252.7334,425.4834c5.4463,2.5628,13.6772,11.6037,22.6843,15.3647s21.7947,8.7649,23.4626,9.0985,5.4485-4.8927,1.3343-12.2317-10.7862-7.2277-14.1221-10.5637-2.2239-11.5644-6.3381-13.8995-14.7891-4.003-19.126-1.0007S245.1721,421.925,252.7334,425.4834Z"/>
      <path d="M257.6262,400.6865c-2.3352-7.5614-2.8911-19.1258-4.8928-21.9057s-5.4485-3.3359-9.6738,7.45c-2.5256,6.4467-11.3423,12.12-14.011,14.0108s-1.89,6.783,2.78,8.4509,7.6724,3.7807,7.6724,8.0062,1.7793,8.2285,8.0063,1.6679S259.9614,408.2478,257.6262,400.6865Z"/>
      <path d="M308.7026,447.5744c2.9653.0741,18.0879-1.3692,25.13-6.7263s5.4116-11.9547-.3706-14.9941-19.2-5.4116-22.5358-3.8549-9.7854,7.4873-9.3406,10.8974C302.1538,437.25,305.7373,447.5,308.7026,447.5744Z"/>
      <path d="M267.6338,405.8015c2.8911,1.6123,12.7876,3.28,14.6225,2.502s.4448-16.4572,0-21.739-3.5583-11.3421-13.6772-9.2293c-8.4219,1.7583-10.8975,4.8926-9.2849,11.12S264.7427,404.1892,267.6338,405.8015Z"/>
      <path d="M299.2138,375.1483c-13.1963,0-16.6054,4.8926-12.8989,12.3058s1.186,15.1227-.2964,20.3119,3.2617,20.46,9.7852,18.681,9.1923-6.3752,13.4919-8.4509,6.0788-5.4857,2.2239-13.0471,1.2844-14.2332,2.125-18.9775S311.0746,375.1483,299.2138,375.1483Z"/>
      <path d="M334.2406,377.4463c-7.2277,2.3352-12.8139-.1111-15.4694,4.67-4.0242,7.246-3.8416,14.3815-3.1,21.9429s1.0379,11.7127,6.3753,13.4918,8.7475,5.1892,12.7507-6.0788,10.5263-18.681,10.3784-24.6115S341.4684,375.1112,334.2406,377.4463Z"/>
      <path d="M363.4113,389.2332c-4.3-2.6687-9.9336-1.9274-12.0093.5931s-3.85,5.93-6.2244,12.1575c-3.4067,8.9327-10.6774,15.0288-9.1948,19.5236s6.2271,5.0774,7.5613,8.7892,1.9275,8.6045,7.8579,1.7844,8.4509-18.5328,9.3406-24.315S367.7108,391.902,363.4113,389.2332Z"/>
      <path d="M180.5086,350.9816c8.24,4.2255,24.2966,18.1149,31.9026,29.3558,6.2029,9.1671,10.5639,19.3483,17.3247,15.1228s8.8737-13.1212,10.7753-15.1228,8.8736-8.8956,0-10.23-24.0856-5.7822-32.9594-19.7929-8.24-24.4632-16.9018-28.0216-17.5361,1.1119-20.9165,8.4509S172.2686,346.756,180.5086,350.9816Z"/>
      <path d="M137.122,299.3262c9.0671,9.5722,13.7372,19.2512,17.9123,23.1856s6.7666,6.745,11.1948.8431,4.832-7.869,9.4111-8.5716,8.8887-9.1338,0-10.3984-20.2019-4.4966-26.6665-16.0192-.6733-18.689-7.5419-19.6727-17.6431,11.5226-17.3736,16.4408S130.9288,292.7881,137.122,299.3262Z"/>
      <path d="M110.0946,259.8361c-12.5842.3474-11.6557-3.9962-18.67-6.29S79.15,255.2144,79.15,259.0716s.9285,6.4633,9.49,8.1313,18.4292,11.6062,22.83,12.9962,6.12-2.78,9.49-6.5328,5.02-7.0889,2.2693-10.9113S116.97,259.6461,110.0946,259.8361Z"/>
      <path d="M233.83,241.9386c-14.4555,6.0686-10.8974,20.3733-4.0029,25.1415s10.2089,21.5035,11.12,26.0085c4.207,20.81,8.2285,41.83,9.563,49.1993s-4.0249,19.5063-.3448,26.8753,16.1345,9.1031,22.584,1.5173,3.6289-11.27-1.7436-21.0236-8.15-39.2293-12.8772-56.5683-5.617-17.339-3.6155-33.1608S248.2857,235.87,233.83,241.9386Z"/>
      <path d="M289.3012,236.969c-16.4316,2.3062-9.3689,17.2967-4.0356,25.8008s2.2012,23.9325,1.7295,43.818c-.209,8.8148.1006,16.8428.1577,29.8389.0554,12.6068-8.07,11.9972-7.3647,22.6946.4433,6.7215,3.4594,12.617,15.4345,12.617s8.9248-10.5221,10.0781-17.2966-3.3152-14.1256-3.3152-21.1883,1.8738-50.016,1.8738-63.8532,7.7835-15.7112,7.4951-21.4767S305.7331,234.6628,289.3012,236.969Z"/>
      <path d="M310.6674,350.7559c-4.6963,13.9426-2.7883,18.7859,6.1643,20.9873s13.6492-3.2288,13.3689-13.3556a180.7128,180.7128,0,0,1,3.6558-41.8279,183.2668,183.2668,0,0,1,11.7412-37.425c4.2563-9.8333,6.311-22.6018,0-25.2436s-12.1814-.1467-17.1714,0-8.9526,7.1914-4.2563,18.1989,3.4213,18.0608,0,32.1414C320.3539,319.9353,315.3642,336.8132,310.6674,350.7559Z"/>
      <path d="M348.4369,344.4581c-2.52,6.3752-11.7129,8.0061-13.64,13.047s-5.7822,9.58,3.41,14.7236,13.9368,9.09,18.6809,0,3.41-16.9475,6.5237-27.7706S375.7172,309.1716,380.61,299.09s9.044-21.7945-1.186-26.9837-16.9018,6.3752-15.5676,14.9745a42.2868,42.2868,0,0,1-1.4827,20.0894C358.1181,318.9463,350.9574,338.0827,348.4369,344.4581Z"/>
      <path d="M227.9165,238.673a28.7505,28.7505,0,0,1,17.5064-4.6217c6.0219.28,1.12-7.9829-5.8824-17.9263s-10.9238-23.9488-12.8845-39.0741-7.1425-16.2458-15.4055-14.9855-8.5771,10.2422-7.7026,13.445c2.3655,8.6646,8.823,14.7052,11.9741,28.57s4.1316,14.8454,3.7114,24.0888S221.7544,242.4544,227.9165,238.673Z"/>
      <path d="M195.3653,147.7949c.977,9.826.2793,14.4582,6.7012,10.6681s6.0034-5.0533,12.2856-4.4918,6.1428-4.6322.6982-14.4581-6.7014-13.8966-6.5617-22.6-5.4448-9.6855-11.3084-8.5626-7.8183,11.37-3.2109,19.3711C196.9776,132.9471,194.388,137.969,195.3653,147.7949Z"/>
      <path d="M189.4219,103.4223c1.8162,2.434,8.302-1.0952,9.8587-1.0952s9.3029.6084,5.9485-5.72-5.3-5.4763-4.781-13.7514-2.9837-8.5186-7.5237-6.6933-5.16,3.4235-3.7617,7.4539a26.8132,26.8132,0,0,1,1.3618,8.123Q186.6917,99.7715,189.4219,103.4223Z"/>
      <path d="M294.9548,135.5566c-9.9824-3.2618-10.74.8895-12.51,1.4826s-6.95,1.7791-3.9172,13.4918,2.8078,14.5763,3.2853,21.7946c.8626,13.0382,2.9063,34.6934,1.2637,40.179s-4.6755,9.1924-3.4118,14.53,2.0217,7.413,7.5815,4.1513,13.1413-.5931,15.5422-.5931,7.8345-7.4131,2.78-13.64-5.8127-13.4918-6.1916-29.0593-1.8955-28.0216-.6318-34.397S304.9372,138.8183,294.9548,135.5566Z"/>
      <path d="M276.5825,122.9173c-1.9417,4.67.8174,9.0068,2.759,9.34s7.7664-2.224,10.6277-1.2231,12.0586,1.668,10.1167-6.45-4.7007-11.4532-5.416-21.6833,1.022-14.9,1.8393-18.57-1.5327-9.8965-10.5253-9.0069-8.8907,4.67-7.6641,9.5629,1.0977,13.3341,1.0217,18.0138C279.1848,112.5744,278.5239,118.247,276.5825,122.9173Z"/>
      <path d="M283.5945,71.3591c2.7009-.9637,4.2819-.5931,8.6955,1.6309s4.3477-7.2649,1.91-10.23-2.7378-5.506-3.1138-9.7112c-.3618-4.041,1.9282-6.5976,1.7964-12.1576s-6.4556-6.3011-10.606-3.7065-1.5808,7.5614,0,12.7506-.4609,9.4887-3.4912,15.0486S280.8935,72.3227,283.5945,71.3591Z"/>
      <path d="M330.6454,229.2582c-3.1137,6.3754-7.8579,5.7823-5.4858,12.7506s5.1892,9.4888,11.5644,7.1166,10.23,3.8138,15.271.869,6.3755-3.4915,2.3723-13.5964.8894-23.3,3.1136-35.606,1.779-25.6494,4.1513-29.2078,1.7791-13.047-6.3755-13.64S341.765,156.61,342.0614,164.32a118.4592,118.4592,0,0,1-2.372,29.6524C336.6335,208.0694,333.7587,222.883,330.6454,229.2582Z"/>
      <path d="M346.8358,145.3647c-2.1614,3.6316-2.9132,6.1217,1.7853,7.3668s7.1417-.5188,10.2428,1.9713,7.7053,3.32,7.1417-9.3381.8456-24.694,3.1009-29.7782,1.2215-11.2056-7.0478-12.347-11.5582,5.9141-9.397,10.4795.6246,9.3861-.0939,13.1771C350.8238,136.098,348.997,141.7333,346.8358,145.3647Z"/>
      <path d="M358.9926,97.6964c4.1137-.5074,7.2075,2.4615,9.9189,3.1621s2.8882-5.4218.9331-9.9583-2.146-5.6705-.8874-11.6916,2.5993-8.6859.7634-13.4343c0,0-.6978-4.1953-4.687-5.0158s-8.6167,6.2244-5.8736,13.9854-2.2451,11.261-4.083,14.9954S354.8788,98.2038,358.9926,97.6964Z"/>
      <path d="M402.8255,215.6189c-.5981,7.2089-3.0239,11.0025-8.1977,19.2437-5.4014,8.6036-10.7559,14.462-15.7949,17.1442s-9.8345,6.5987-6.897,11.73,8.0513,3.0215,11.2512,6.6,4.334,7.0759,7.968,5.0026,2.2276-10.8134,4.826-16.38,11.0632-24.1317,14.1445-27.1186,9.4838-2.9408,9.4118-12.96-7.739-8.1155-9.7016-8.3091S403.4237,208.41,402.8255,215.6189Z"/>
      <path d="M424.0267,175.9893c-1.1987,4.1025-.3406,5.3769-1.5,9.1855-1.5313,5.03-8.033,11.4129-10.0413,13.5368s-5.1872,5.886-1.6369,6.886,5.7441.1465,8.0959,3.8782,4.3591,2.0565,5.7815-4.559,2.9893-12.09,5.5539-15.2609,6.1116-11.4464,3.45-14.197S425.2259,171.8868,424.0267,175.9893Z"/>
      <path d="M438.9351,143.1381c-3.4519-.5792-4.9848,2.22-4.8249,7.8188a15.2743,15.2743,0,0,1-4.9715,11.5835c-3.4521,3.3786-4.2917,4.6334-1.7727,6.2744s5.5979.5791,7.8372,2.22,3.2654-.3861,2.7058-7.9154,3.1719-11.2938,4.5715-13.9967S442.387,143.7172,438.9351,143.1381Z"/>
    </g>
    <path d="M229.5942,489.35a6.0012,6.0012,0,0,1-5.9536-5.3183c-3.6079-31.4913-9.3427-53.7071-16.584-64.2442-14.9555-21.8408-25.3647-32.7051-37.4174-45.2851-3.9048-4.0752-7.9419-8.2881-12.2881-13.0479-7.6548-8.3643-13.01-16.59-18.1885-24.5449-7.1265-10.9463-13.8579-21.2862-26.4023-32.3135C93.76,287.86,79.7832,283.582,68.5532,280.1445c-1.5522-.4756-3.0346-.93-4.4507-1.3916-7.5888-2.4687-12.1757-10.0215-11.6826-19.2383.4849-9.0708,6.2466-19.3339,18.0249-21.8168,17.8843-3.7706,51.9478-4.55,72.48,8.7558,9.4932,6.1524,17.5825,13.4888,24.72,19.9614,6.8345,6.1973,13.29,12.0518,17.2573,13.12,5.1163,1.39,10.0879.8711,13.3086-1.377,3.0811-2.1514,4.8887-6.0644,5.3731-11.63,1.5542-18.0718,1.7778-39.1465-8.3511-58.3843-10.4619-19.8881-16.4287-54.4052-20.0068-78.6386-.3985-2.6988-.833-5.4043-1.272-8.1358-2.3423-14.5859-4.7642-29.6684-2.8618-48.4843,1.2358-12.2325,10.7173-20.7593,23.07-20.7593.0264,0,.0518,0,.0781.0005a25.3742,25.3742,0,0,1,25.3745,23.5146c2.3047,24.0308,7.04,45.4317,15.8335,71.5537,2.6661,7.9361,4.814,14.4859,6.54,19.7481,4.56,13.9013,6.64,20.2461,9.8091,26.7612,4.7617,9.812,6.292,9.1738,8.4121,8.2881,2.9072-1.2173,3.7729-2.2744,2.6128-16.35-1.13-13.4522-3.481-64.4453-3.12-98.0176.3877-36.11.5328-49.6216,4.3091-56.93,4.6861-9.0986,13.1372-14.01,23.8228-13.8042,12.8569.24,21.8408,9.7925,24.0307,25.5533,1.9141,13.7793,3.3624,54.4682,3.6158,68.3354.125,7.3438.6377,22.875,1.1338,37.895.5385,16.3145,1.0473,31.7241,1.0473,36.1949,0,2.727,0,8.3544.9561,9.6264a3.3,3.3,0,0,0,1.0156.0772c1.3623-.0474,1.7139-.2022,2.3467-1.7359,1.1377-2.7593,1.6655-8.0224,2.1313-12.6665,1.1909-11.6567,7.0616-51.8667,10.4546-74.7993.6236-4.1826,1.0952-7.4727,1.5034-10.3223,1.378-9.622,2.07-14.4516,5.4683-31.4741,3.0034-15.0469,15.5771-22.1465,26.44-21.38,9.3818.6607,20.6821,7.5406,21.6547,24.7564,1.0454,18.5132-.9633,36.5879-2.7358,52.5347-.7446,6.7036-1.4482,13.0356-1.8281,18.6484-1.2588,18.9267-9.4136,60.7529-12.5825,71.7031-1.356,4.6426-.774,7.5225-.09,8.25.2734.29,1.251.4243,2.8223.0693,5.5937-1.2768,16.9306-14.624,27.7529-37.6591,3.4683-7.397,6.6372-15.7906,9.7017-23.9073,6.9179-18.3227,10.8081-28.0283,16.8291-31.1191,5.98-3.08,15.0464-4.1987,21.8027.2529,4.2324,2.7881,9.0918,8.7852,8.2026,21.522-1.0044,14.6094-7.5356,32.3184-13.852,49.4443-3.2515,8.8159-6.3223,17.1426-8.5772,24.8111-2.8755,9.7871-8.684,20.3476-14.8335,31.5278-8.6792,15.7793-17.6538,32.0957-18.0449,45.9482-.7075,25.0254-8.2861,72.2227-15.4077,105.9121-2.7676,13.1153-4.5283,40.2764-5.09,78.5469a6,6,0,0,1-11.9991-.1758c.5821-39.5888,2.3814-66.791,5.3487-80.8515,6.8388-32.3526,14.4731-79.7149,15.1533-103.7705.4731-16.7539,10.1587-34.3633,19.5254-51.3926,5.8257-10.5913,11.3276-20.5947,13.835-29.1289,2.37-8.0571,5.5083-16.5684,8.8315-25.5786,6.0239-16.333,12.2524-33.2222,13.14-46.1216.22-3.148.1431-8.7114-2.8325-10.6714-2.6333-1.7349-7.23-.8345-9.6015.34-2.6846,2.1807-7.6036,15.211-11.2027,24.7427-3.145,8.3311-6.3974,16.9453-10.0649,24.7676-5.7066,12.146-20.6294,40.7637-35.9575,44.2622-7.8081,1.7666-12.2637-1.4663-14.2237-3.5518-4.1108-4.3725-5.0918-11.5966-2.69-19.8193,2.7363-9.456,10.8984-50.6074,12.1323-69.1567.3975-5.878,1.1153-12.3345,1.875-19.17,1.72-15.479,3.67-33.023,2.6817-50.5328-.4522-7.998-4.3838-13.0307-10.5171-13.4628-5.6265-.3936-12.1831,3.5151-13.8291,11.7592-3.334,16.7-3.9678,21.127-5.3574,30.8262-.4107,2.8682-.8853,6.18-1.5118,10.3838-3.3779,22.8257-9.22,62.8335-10.3857,74.2451-1.1611,11.5791-2.479,24.7163-16,25.1865a12.8276,12.8276,0,0,1-9.7319-3.39c-4.6568-4.4981-4.6568-11.834-4.6568-18.3066,0-4.273-.5293-20.3-1.041-35.7989-.4976-15.0669-1.0117-30.6469-1.1382-38.0791-.3061-16.7446-1.78-54.4863-3.5034-66.896-.9517-6.85-3.8706-15.0483-12.3691-15.2065-6.2242-.125-10.3067,2.2065-12.9341,7.3076-2.4722,4.7847-2.6612,22.39-2.9746,51.5576-.357,33.2193,1.9638,83.6055,3.08,96.8936,1.0376,12.584,1.9331,23.4443-9.9419,28.4165-14.1245,5.8974-20.6822-7.62-23.835-14.1153-3.5234-7.2441-5.8276-14.27-10.418-28.2656-1.72-5.2441-3.8608-11.771-6.5117-19.6631-9.1011-27.0356-14.0073-49.2387-16.4053-74.2378-.8291-8.7192-7.3593-12.6377-13.4633-12.6552l-.0406,0c-4.9038,0-10.3911,2.6162-11.1333,9.9658-1.7451,17.2559.5508,31.5508,2.77,45.375.4468,2.7817.8892,5.5371,1.295,8.2856,1.9878,13.4615,8.0366,54.4273,18.7549,74.8028,11.5722,21.9795,11.3911,45.1963,9.6875,65.0073-1.0059,11.5566-6.2422,17.49-10.4585,20.4336-6.1919,4.3232-14.689,5.4629-23.31,3.124-6.7529-1.8193-13.5645-7.9961-22.188-15.8164-6.8-6.166-14.5068-13.1553-23.1851-18.78C119.04,245.2734,88.25,246.209,72.92,249.44c-5.55,1.17-8.2773,6.2247-8.5171,10.7154-.1474,2.7549.6587,6.291,3.4156,7.1885,1.353.44,2.767.873,4.247,1.3261,11.6826,3.5762,27.6826,8.4737,48.6221,26.916,13.7764,12.11,21.2773,23.6338,28.5317,34.7764,5.14,7.8965,9.9956,15.3535,16.9888,22.9951,4.2534,4.6582,8.24,8.8194,12.0957,12.8428,11.9014,12.4219,23.1431,24.1543,38.6489,46.7988,8.4615,12.3135,14.7246,35.7559,18.61,69.667a5.9994,5.9994,0,0,1-5.2778,6.6436A6.1307,6.1307,0,0,1,229.5942,489.35Zm88.9663-294.8735Zm116.4307-58.334-.0024.001Z"/>
  </g>
</svg>
