<svg id="Layer_1" data-name="Layer 1" xmlns="http://www.w3.org/2000/svg" viewBox="0 0 512 512">
  <title>Head with Neck 512x512px</title>
  <g>
    <g>
      <path d="M281.24,388.3867a9.1565,9.1565,0,0,1-5.3,3.9257c-.02,0-.02,0-.02.0191l-.26.0572a70.5346,70.5346,0,0,1-38.7,0,9.1885,9.1885,0,0,1-5.7-4.6119,7.9931,7.9931,0,0,1-.2-6.7271l.88-2.0392a15.3711,15.3711,0,0,0,0-12.12,7.9468,7.9468,0,0,1,1.32-8.4043,9.7926,9.7926,0,0,1,9.14-3.1825l4.26.7242a57.6755,57.6755,0,0,0,19.32,0l4.8-.8195a9.9083,9.9083,0,0,1,8.86,2.8777,8.0259,8.0259,0,0,1,1.86,8.0039l-.72,2.2108a15.3738,15.3738,0,0,0,0,9.3l1.32,4.0972A7.99,7.99,0,0,1,281.24,388.3867Z"/>
      <path d="M281.24,435.51a9.32,9.32,0,0,1-5.3,3.9258h-.02l-.26.0763a70.2962,70.2962,0,0,1-38.7-.0191,9.1283,9.1283,0,0,1-5.7-4.612,7.95,7.95,0,0,1-.2-6.708l.88-2.0582a15.3249,15.3249,0,0,0,0-12.1014,7.985,7.985,0,0,1,1.32-8.4233,9.81,9.81,0,0,1,9.14-3.1826l4.26.7242a57.18,57.18,0,0,0,19.32,0l4.8-.8a9.9147,9.9147,0,0,1,8.86,2.8586,8.0694,8.0694,0,0,1,1.86,8.0231l-.72,2.2107a15.3122,15.3122,0,0,0,0,9.2808l1.32,4.0973A8.0327,8.0327,0,0,1,281.24,435.51Z"/>
      <path d="M281.24,481.9114a9.1562,9.1562,0,0,1-5.3,3.9258h-.02l-.26.0763a70.5346,70.5346,0,0,1-38.7,0,9.25,9.25,0,0,1-5.7-4.6119,7.9954,7.9954,0,0,1-.2-6.7272l.88-2.0582a15.3246,15.3246,0,0,0,0-12.1013,7.9852,7.9852,0,0,1,1.32-8.4234,9.8438,9.8438,0,0,1,9.14-3.1634l4.26.7242a57.6807,57.6807,0,0,0,19.32,0l4.8-.82a9.9257,9.9257,0,0,1,8.86,2.8777,8.0259,8.0259,0,0,1,1.86,8.0039l-.72,2.2107a15.3741,15.3741,0,0,0,0,9.3l1.32,4.0783A8.0236,8.0236,0,0,1,281.24,481.9114Z"/>
    </g>
    <path d="M331.58,255.84a5.9956,5.9956,0,0,0-8.82-4.82c-16.6,8.78-15.74,26.32-15.74,34.28,0,9.08,2.28,10.74-13.6,22.08a6.8207,6.8207,0,0,1-3.42,1.2185V300.64a4,4,0,0,0-4-4h-6a4,4,0,0,0-4,4v8h-4v-8a4,4,0,0,0-4-4h-6a4,4,0,0,0-4,4v8h-4v-8a4,4,0,0,0-4-4h-6a4,4,0,0,0-4,4v8h-4v-8a4,4,0,0,0-4-4h-6a4,4,0,0,0-4,4v7.9585a6.8207,6.8207,0,0,1-3.42-1.2185c-15.88-11.34-13.6-13-13.6-22.08,0-7.96.86-25.5-15.74-34.28a5.9956,5.9956,0,0,0-8.82,4.82c-.92,11.94-1.82,34.38,3.02,46.48,6.8,17,15.86,22.66,19.26,30.6s9.08,15.88,21.56,15.88c7.5,0,17.48.82,24.24,1.48a78.3212,78.3212,0,0,0,15,0c6.76-.66,16.74-1.48,24.24-1.48,12.48,0,18.16-7.94,21.56-15.88s12.46-13.6,19.26-30.6C333.4,290.22,332.5,267.78,331.58,255.84Z"/>
    <path d="M344.86,205.9c-.8-1.4-1.42-4.52-1.42-9.58a95.4386,95.4386,0,0,1,.72-10.84,91.0026,91.0026,0,0,0,12.68-46.22c0-52.66-45.62-95.52-101.72-95.52S153.38,86.6,153.38,139.26a91.1277,91.1277,0,0,0,12.68,46.24c1.4,11.68.58,18.18-.7,20.4l-.26.44c-5.9,10.34-8.32,17.56,7.88,30.8,8.58,7.02,18.36,7.92,25.48,8.58,4.1.38,8.36.76,9.18,2.2,2,3.52,3.16,4.14,3.06,15.06a10.96,10.96,0,0,0,10.98,11.04H222v8.62a4,4,0,0,0,4,4h6a4,4,0,0,0,4-4v-8.62h4v8.62a4,4,0,0,0,4,4h6a4,4,0,0,0,4-4v-8.62h4v8.62a4,4,0,0,0,4,4h6a4,4,0,0,0,4-4v-8.62h4v8.62a4,4,0,0,0,4,4h6a4,4,0,0,0,4-4v-8.7623a10.8593,10.8593,0,0,0,9.52-10.8977c-.08-10.92,1.06-11.54,3.08-15.06.82-1.44,5.06-1.82,9.18-2.2,7.12-.66,16.88-1.56,25.46-8.58,16.2-13.24,13.78-20.46,7.88-30.78ZM212.42,215a32.6752,32.6752,0,0,1-4.58.32,25.1526,25.1526,0,0,1-18.2-7.16c-11.26-11.26-8.88-31.94,5.28-46.1a41.7685,41.7685,0,0,1,23.32-12.14c9-1.26,17.1,1.18,22.78,6.86s8.12,13.76,6.84,22.78A43.672,43.672,0,0,1,212.42,215Zm32.3014,25.5458c-.03-2.4344.4488-7.0768,2.735-15.4147a29.7058,29.7058,0,0,1,6.1949-12.2289,3.6434,3.6434,0,0,1,5.4173,0,29.5357,29.5357,0,0,1,6.1949,12.2289c2.2794,8.3135,2.7623,12.9532,2.7355,15.3935-.1609-.0806-.3218-.2146-.51-.3218a19.7925,19.7925,0,0,0-22.7681.343ZM323.08,208.16a25.3271,25.3271,0,0,1-18.24,7.1c-9.42,0-19.72-4.24-27.86-12.38v-.02c-14.16-14.16-16.54-34.84-5.28-46.08,5.68-5.68,13.78-8.12,22.78-6.86a43.6716,43.6716,0,0,1,35.44,35.44C331.18,194.38,328.76,202.48,323.08,208.16Z"/>
    <path d="M26.0054,425.3169a6,6,0,0,1-3.2984-11.0161L155.2178,327.3a9.9426,9.9426,0,0,0,4.5-7.86c.8193-19.7558-3.8594-49.456-5.9092-61.3081a4.63,4.63,0,0,0-2.9424-3.5449c-8.9355-3.4385-21.3081-14.2275-29.5044-46.1015-4.8076-18.68-3.7925-32.1163,3.0166-39.9327a19.8835,19.8835,0,0,1,10.999-6.3935,118.6236,118.6236,0,0,1-2.4848-24.1851C132.8931,71.4785,188.16,17.38,256.0913,17.38S379.29,71.4785,379.29,137.9741a118.6074,118.6074,0,0,1-2.4785,24.1509,20.34,20.34,0,0,1,11.458,6.5713c6.835,7.8525,7.8809,21.24,3.11,39.79-8.1963,31.8731-20.5684,42.6626-29.5039,46.1011a4.6307,4.6307,0,0,0-2.9424,3.5444c-2.0479,11.8394-6.7227,41.5083-5.91,61.2725a9.9359,9.9359,0,0,0,4.5381,7.8833l131.711,85.7217a6,6,0,0,1-6.545,10.0576L351.0166,337.3447a21.9571,21.9571,0,0,1-9.9834-17.4477c-.8291-20.1651,3.4512-48.6348,6.0762-63.81a16.7453,16.7453,0,0,1,10.456-12.6992c4.1543-1.5986,14.6328-8.4907,22.1934-37.8906,4.8877-19.0083,1.76-26.28-.541-28.9224-2.8125-3.2334-7.4024-3.0923-9.2481-2.8838a6,6,0,0,1-6.4629-7.5508,106.3652,106.3652,0,0,0,3.7832-28.166C367.29,78.0952,317.4063,29.38,256.0913,29.38S144.8931,78.0952,144.8931,137.9741a106.3314,106.3314,0,0,0,3.7832,28.166,6,6,0,0,1-6.47,7.55c-1.7457-.2021-6.0962-.3349-8.7789,2.7447-2.2841,2.6215-5.3784,9.8833-.4433,29.06,7.56,29.4014,18.0386,36.2935,22.1929,37.8921a16.7482,16.7482,0,0,1,10.457,12.7c2.6269,15.1929,6.91,43.6909,6.0737,63.85a21.9673,21.9673,0,0,1-9.9038,17.3936L29.293,424.332A5.9707,5.9707,0,0,1,26.0054,425.3169Z"/>
  </g>
</svg>
