<svg id="Layer_1" data-name="Layer 1" xmlns="http://www.w3.org/2000/svg" viewBox="0 0 512 512">
  <title>Hip 512x512px</title>
  <g>
    <path d="M252.0246,266.6732c.45-4.276,4.9843-12.6781-12.0378-11.9972S203.11,248.78,190.5682,237.6539s-8.4566-20.7261-1.1849-13.6586c7.2583,7.0813,21.5569,6.4,14.5166-8.81-7.0269-15.2111-15.8784-18.1524-19.0647-34.9567-3.0367-16.0688-2.1245-23.613,10.3765-34.0714a2.3511,2.3511,0,0,0,.3268-3.2954c-4.6026-5.7467-19.9634-23.2182-40.88-29.8091-25.1927-7.9392-49.9359-12.4875-58.556-4.9978-8.6334,7.49-15.4423,20.2087,0,46.5317,15.4289,26.3229,29.9712,70.24,31.5644,75.4555,1.58,5.2293,5.8842-3.7312,20.4008,11.9291,14.53,15.66,11.1256,32.6824,12.256,46.3,1.1436,13.6177,7.7211,34.9429,16.5726,43.3451,0,0,8.511,9.1919,16.913,11.575,8.3887,2.3831,29.6185-2.0426,43.2361-26.786,13.6177-24.73,16.7908-32.2194,16.7908-37.6665S251.5618,270.9355,252.0246,266.6732ZM202.5382,312.66c-11.0032,1.4844-11.0169-16.5727-11.9155-29.0464-.9126-12.719,9.0829-18.275,13.9581-16.6817,4.8885,1.5933,22.1287,16.2323,26.3364,22.5781C235.1115,295.87,213.5547,311.1894,202.5382,312.66Z"/>
    <path d="M258.1641,278.7384c0,5.4471,3.1731,12.9368,16.7908,37.6665,13.6176,24.7434,34.8474,29.1691,43.2361,26.786,8.402-2.3831,16.913-11.575,16.913-11.575,8.8515-8.4022,15.429-29.7274,16.5726-43.3451,1.13-13.6177-2.274-30.64,12.256-46.3,14.5166-15.66,19.3831-7.2387,20.963-12.468,1.5931-5.2155,15.5733-48.5937,31.0022-74.9166,15.4423-26.323,8.6334-39.042,0-46.5317-8.62-7.49-33.3633-2.9414-58.556,4.9978-20.9169,6.5909-36.2777,24.0624-40.88,29.8091a2.3511,2.3511,0,0,0,.3268,3.2954c12.501,10.4584,13.4132,18.0026,10.3765,34.0714-3.1863,16.8043-12.0378,19.7456-19.0647,34.9567-7.04,15.2109,7.2583,15.8918,14.5166,8.81,7.2717-7.0675,11.357,2.5329-1.1849,13.6586s-32.3965,17.703-49.4186,17.0221-12.4873,7.7212-12.0378,11.9972C260.4382,270.9355,258.1641,273.2914,258.1641,278.7384ZM281.0828,289.51c4.2077-6.3458,21.4479-20.9848,26.3364-22.5781,4.8752-1.5933,14.8707,3.9627,13.9581,16.6817-.8986,12.4737-.9123,30.5308-11.9155,29.0464C298.4453,311.1894,276.8885,295.87,281.0828,289.51Z"/>
    <path d="M323.2334,177.5984c-5.1674,24.2851-17.9846,27.8874-19.563,41.15s1.0524,15.502-3.67,24.2851c-4.7086,8.7831-30.06,65.6641-43.9966,65.6641-13.95,0-39.2877-56.881-44.01-65.6641s-2.0912-11.0228-3.67-24.2851c-1.5652-13.2623-14.3823-16.8646-19.5629-41.15-3.7112-17.4663,3.9681-25.0432,8.5741-27.9122a5.9058,5.9058,0,0,1,6.06-.1122c2.8206,1.619,6.2753,4.0219,11.337,5.6552,6.9751,2.24,6.9751,5.2752,12.8171,8.6481,2.1913,1.2624,6.7278,2.4945,11.5472,3.5421a79.5872,79.5872,0,0,0,33.8164-.0014c4.8151-1.0474,9.3454-2.2789,11.5308-3.5407,5.842-3.3729,5.842-6.4085,12.8171-8.6481,5.0594-1.6326,8.5269-4.034,11.3329-5.6531a5.9008,5.9008,0,0,1,6.0173.081C319.2129,152.5038,326.9706,160.0727,323.2334,177.5984Z"/>
    <path d="M94.5982,435.3751h20.0875a7.9974,7.9974,0,0,0,7.9732-8.6535c-1.68-20.4313-5.5163-70.3064-3.356-74.9869,2.7235-5.9009,15.4333-9.9863,11.348-29.278s7.7167-32.0729,10.8942-30.562,19.0647-2.8013,14.9794-15.2841-8.6245-28.37-21.1074-36.0869-22.9231-4.7662-26.7814,4.3123-.0568,14.412-3.9719,19.3484-8.1706,6.2982-10.8941,3.064-13.6177-15.15-25.0225-5.7875S45.0865,293.6327,53.938,312.6974c8.5,18.3088,31.6534,52.2166,32.672,114.7806A8.0074,8.0074,0,0,0,94.5982,435.3751Z"/>
    <path d="M416.8885,435.3751H396.8011a7.9974,7.9974,0,0,1-7.9732-8.6535c1.68-20.4313,5.5162-70.3064,3.356-74.9869-2.7235-5.9009-15.4334-9.9863-11.3481-29.278s-7.7166-32.0729-10.8941-30.562-19.0647-2.8013-14.9794-15.2841,8.6245-28.37,21.1074-36.0869,22.9231-4.7662,26.7814,4.3123.0567,14.412,3.9718,19.3484,8.1706,6.2982,10.8942,3.064,13.6176-15.15,25.0224-5.7875,23.6608,32.1718,14.8093,51.2365c-8.5005,18.3088-31.6534,52.2166-32.6721,114.7806A8.0073,8.0073,0,0,1,416.8885,435.3751Z"/>
    <g>
      <path d="M26.168,435.4365a6,6,0,0,1-6-6c0-127.122,22.6133-225.6025,33.4809-272.93,3.1045-13.52,5.5567-24.2,5.5567-27.5673,0-16.209-4.5562-51.1836-4.6021-51.5352A6,6,0,0,1,66.502,75.8457c.1918,1.4658,4.7036,36.1025,4.7036,53.0938,0,4.7275-2.2061,14.3349-5.8614,30.2529C54.5757,206.0889,32.168,303.6738,32.168,429.4365A6,6,0,0,1,26.168,435.4365Z"/>
      <path d="M485.832,435.4365a6,6,0,0,1-6-6c0-125.7627-22.4077-223.3476-33.1762-270.2441-3.6553-15.918-5.8614-25.5254-5.8614-30.2529,0-16.9913,4.5118-51.628,4.7036-53.0938a6,6,0,0,1,11.8985,1.5586c-.0459.3516-4.6021,35.3262-4.6021,51.5352,0,3.3671,2.4522,14.0468,5.5567,27.5673,10.8677,47.3272,33.4809,145.8077,33.4809,272.93A6,6,0,0,1,485.832,435.4365Z"/>
      <path d="M244.1938,435.4375a6.0034,6.0034,0,0,1-5.9384-6.9072l14.2134-93.0547a6,6,0,0,1,11.8935.2353l10.4683,93.0547a6,6,0,0,1-11.9248,1.3418l-5.4087-48.0781-7.3794,48.3135A6.0016,6.0016,0,0,1,244.1938,435.4375Z"/>
    </g>
  </g>
</svg>
