<svg id="Layer_1" data-name="Layer 1" xmlns="http://www.w3.org/2000/svg" viewBox="0 0 512 512">
  <title>Jaw 512x512px</title>
  <g>
    <path d="M403.38,367.28c-.46,6.12-1.04,13.74-1.38,22.94C400.96,418,373.14,418,364,418c-15.3,0-127.66-18.68-169.34-28.14-43.68-9.94-54.54-36.82-67.1-67.94-1.02-2.5-2.04-5.06-3.1-7.64-10.44-25.32-36.24-65.2-46.86-81.18a18.0649,18.0649,0,0,1,4.8-24.78l14.3-9.84a17.8934,17.8934,0,0,1,22.42,1.62l13.58,12.54a5.9741,5.9741,0,0,0,6.12,1.22l9.68-3.52a5.9331,5.9331,0,0,0,3.64-3.74l8.82-26.44a18.0119,18.0119,0,0,1,20.6-11.96l17.82,3.56a18.0645,18.0645,0,0,1,14.18,20.8c-3.44,19.12-4.5,58.86,4.1,83.46,10.88,31.1,10.88,31.1,95.48,43.12,13.8,1.98,29.46,4.2,47.74,6.92l4.16.62c19.62,2.92,28.58,4.24,34.16,9.96C405.24,342.86,404.58,351.54,403.38,367.28Z"/>
    <g>
      <path d="M377.77,298.846h7.9346a9.5215,9.5215,0,0,1,9.5215,9.5215v9.5215a7.9346,7.9346,0,0,1-7.9346,7.9346H376.183a7.9346,7.9346,0,0,1-7.9346-7.9346v-9.5215a9.5215,9.5215,0,0,1,9.5215-9.5215Z" transform="translate(53.9195 -56.1918) rotate(9.0559)"/>
      <path d="M347.9943,294.1h7.9346a9.5215,9.5215,0,0,1,9.5215,9.5215v9.5215a7.9346,7.9346,0,0,1-7.9346,7.9346H346.4074a7.9346,7.9346,0,0,1-7.9346-7.9346v-9.5215A9.5215,9.5215,0,0,1,347.9943,294.1Z" transform="translate(52.8013 -51.5643) rotate(9.0559)"/>
      <path d="M318.2187,289.3544h7.9346a9.5215,9.5215,0,0,1,9.5215,9.5215v9.5215a7.9346,7.9346,0,0,1-7.9346,7.9346H316.6318a7.9346,7.9346,0,0,1-7.9346-7.9346v-9.5215A9.5215,9.5215,0,0,1,318.2187,289.3544Z" transform="translate(51.6832 -46.9368) rotate(9.0559)"/>
      <path d="M288.4431,284.6086h7.9346a9.5215,9.5215,0,0,1,9.5215,9.5215v9.5215a7.9346,7.9346,0,0,1-7.9346,7.9346H286.8562a7.9346,7.9346,0,0,1-7.9346-7.9346V294.13A9.5215,9.5215,0,0,1,288.4431,284.6086Z" transform="matrix(0.9875, 0.1574, -0.1574, 0.9875, 50.5651, -42.3093)"/>
      <path d="M258.6675,279.8628h7.9346a9.5215,9.5215,0,0,1,9.5215,9.5215v9.5215a7.9346,7.9346,0,0,1-7.9346,7.9346H257.0806a7.9346,7.9346,0,0,1-7.9346-7.9346v-9.5215A9.5215,9.5215,0,0,1,258.6675,279.8628Z" transform="translate(49.4469 -37.6818) rotate(9.0559)"/>
    </g>
    <g>
      <path d="M221.6938,493H23.8828a6,6,0,1,1,0-12H218.3105l34.2579-56.6426-85.56-14.4487a6,6,0,0,1,1.998-11.832l94.2623,15.9179a6,6,0,0,1,4.1352,9.021l-40.5757,67.0894A6.0007,6.0007,0,0,1,221.6938,493Z"/>
      <path d="M380.1294,446.4927a65.3884,65.3884,0,0,1-13.8882-1.6045l-2.8476-.6177c-12.3853-2.6894-25.1924-5.47-37.84-7.604l-64.2812-10.84a6,6,0,1,1,1.9951-11.833l64.2822,10.84c12.9243,2.1811,25.8706,4.9917,38.39,7.71l2.8505.6186c12.3462,2.69,21.6563,1.3784,28.4727-4.0058,15.5386-12.2769,16.1343-43.7007,16.5693-66.6451.1353-7.15.2525-13.3247.7993-18.2148,2.3794-21.4859,8.6573-26.1978,16.0074-29.7778,2.1792-1.0611,3.3662-1.6817,4.4433-3.1187.668-.89-.15-3.9189-.8071-6.3535-1.6631-6.1621-4.76-17.6333,9.7759-23.4429,7.5132-3.0078,8.2988-3.3222.3769-23.4863-1.1391-2.8994-2.43-6.1851-3.7685-9.7593-7.3306-19.5229,10.5527-29.3677,23.6108-36.5561,8.314-4.5772,16.9107-9.31,17.8135-14.7076.1865-1.1211.0728-5.9575-9.2573-20.8007-6.645-10.5713-16.0713-23.31-25.187-35.6289-16.1031-21.7623-31.313-42.3174-35.9585-56.231-6.937-20.8291,4.8237-36.1563,13.4116-47.3477,3.8481-5.0156,7.4834-9.7524,8.4936-13.6064a6,6,0,0,1,11.6079,3.042c-1.624,6.1963-5.975,11.8667-10.5815,17.87-8.0977,10.5527-16.4707,21.4653-11.5483,36.2461,4.0415,12.103,19.3842,32.8379,34.2216,52.89,24.0616,32.5175,38.7037,53.0795,36.6348,65.54-1.8628,11.1352-13.0474,17.292-23.8633,23.2466-15.188,8.3608-21.4956,12.9526-18.1621,21.8305,1.3067,3.4888,2.5791,6.7276,3.7017,9.5845,7.13,18.1489,12.2817,31.2617-7.0889,39.0161-4.4536,1.78-4.4009,2.6782-2.6474,9.1743,1.2656,4.689,2.999,11.1109-1.1783,16.6807a21.752,21.752,0,0,1-8.7885,6.707c-4.0191,1.9575-7.49,3.648-9.336,20.3159-.4858,4.3458-.5976,10.2637-.7275,17.1158-.4805,25.3379-1.1387,60.0395-21.1284,75.833C398.0264,443.8462,389.7964,446.4927,380.1294,446.4927Z"/>
    </g>
  </g>
</svg>
