<svg id="Layer_1" data-name="Layer 1" xmlns="http://www.w3.org/2000/svg" viewBox="0 0 512 512">
  <title>Quad Limb 512x512px</title>
  <g>
    <path d="M237.9534,71.5609c10.1893-23.4444,14.8751-30.4462,12.4394-36.1875s-10.1777-4.1754-12.8744-4.6974-7.829-10.0472-16.5714-7.307-8.7424,8.22-5.8718,15.2665,2.8707,18.6592-4.7844,42.1462-10.7866,36.8834-17.2238,59.6745-12.8743,38.2751,2.7837,48.54,34.2736,5.2277,39.145-3.04,1.2179-13.3135-6.9591-16.0971-8.324-13.7443-9.4683-17.7458-7.4076-8.6989-1.1444-26.0967S235.9526,76.1644,237.9534,71.5609Z"/>
    <path d="M341.6125,327.6705c-2.0008-3.7406,3.3926-7.3941-1.6528-10.9606s-30.7072-28.5324-38.884-38.1012c-2.2985-2.69-5.4445-6.2617-9-10.3456-7.0373-13.8312-20.2794-39.9894-24.0555-48.3649-5.2193-11.5766-11.9815-25.1383-17.3978-27.5493-.0216-.01-.0349-.0085-.0561-.0175-1.3445-1.5031-3.374-2.4643-6.4971-2.4291-11.6131.13-10.7262,6.78-14.6293,7.698-16.9238,3.98-17.0926,9.6774-16.9187,17.1585s5.7412,9.7427,12.1785,12.0044,7.1331,9.2209,16.006,14.6143,54.3681,49.8446,66.8945,64.72,26.4446,36.6224,29.4022,38.0142,6.0893-6.7852,5.3064-9.4819S343.6132,331.411,341.6125,327.6705ZM253.0931,208.6361a25.7384,25.7384,0,0,1-.07-3.01c4.2136,7.3224,17.27,30.2385,24.469,45.418-5.1917-6.3789-10.2442-12.9535-14.2569-18.9964C252.2747,215.5416,253.6828,214.1165,253.0931,208.6361Z"/>
    <path d="M192.7947,204.3481c6.6231,6.2749,13.9428,12.27,16.82,5.6088s-7.8867-11.2948-12.7258-12.4954S190.2493,201.9367,192.7947,204.3481Z"/>
    <path d="M347.1389,313.13c5.7348.8283,10.8736.6089,10.5256,17.1368s.444,33.18-1.8177,35.6162-11.5487,2.0224-12.8809.86c-1.6-1.3964,1.4763-14.2937,1.9982-26.1677S344.0951,312.69,347.1389,313.13Z"/>
    <path d="M334.5078,495.1182c-3.4365,0-6.9385-.0528-10.4707-.1065-5.2539-.08-10.6846-.165-16.206-.1015h-.1368c-5.3515,0-9.6982-3.4795-11.9414-9.5684-4.2822-11.626-.7705-31.5459,10.3379-40.8037,12.1494-10.125,19.8662-27.6563,20.6416-46.8955.6836-16.958-7.833-33.0313-14.0517-44.7676-1.2539-2.3672-2.4385-4.6025-3.4629-6.6787-13.0508-26.4424-31.3135-47.6572-110.6826-110.6221-40.4639-32.1015-63.8594-77.9629-67.6573-132.6269-2.8525-41.0655,6.18-72.24,6.5655-73.5479a6,6,0,1,1,11.51,3.3985c-.15.5136-8.8486,30.8681-6.0752,69.7216,3.6944,51.7569,24.93,93.36,63.1162,123.6543C287.1787,290.58,306.0879,312.74,319.9785,340.8857c.9473,1.9209,2.0928,4.0821,3.3057,6.3711,6.8584,12.9453,16.2519,30.6729,15.4385,50.8682-.9229,22.91-10.0166,43.1875-24.95,55.6318-5.419,4.5157-8.001,14.2588-7.752,21.5479.1533,4.4814,1.292,6.9648,1.9,7.6035,5.5967-.0586,11.0371.0234,16.2988.1045,26.9424.4111,42.2989.0332,44.5391-12.4795,1.8711-10.4473.541-22.5947-.9981-36.6611-1.5664-14.31-3.3418-30.5283-2.0625-48.625.3731-5.2764.81-10.38,1.2305-15.3145,2.34-27.3955,4.1885-49.0342-7.53-64.8213q-.1771-.2388-.33-.4931c-1.54-2.5713-37.5762-63.6778-25.3575-125.5723,10.1787-51.5557,3.2588-87.91-4.3379-109.33-8.2021-23.1289-18.9375-34.3008-19.0449-34.4111a6,6,0,0,1,8.543-8.4268c.5019.5059,12.3809,12.69,21.52,38.0117,8.2832,22.9473,15.8906,61.7842,5.0928,116.4805-10.9795,55.6153,21.3877,112.794,23.747,116.8565,14.21,19.3955,12.0977,44.1191,9.6543,72.7275-.4179,4.8916-.8505,9.95-1.2168,15.1387-1.2031,17.0195.51,32.6679,2.0206,46.4736,1.6406,14.9883,3.0576,27.9326.8818,40.082C376.9678,492.7725,357.28,495.1182,334.5078,495.1182Z"/>
    <path d="M343.5723,372.7169c-.1985,3.2172-1.3048,8.7859,4.5234,7.3941s10.0908-6.0022,6.7852-9.6558S343.7705,369.5033,343.5723,372.7169Z"/>
    <path d="M347.53,390.6367c.596,7.4423,2.2182,29.8807,3.0011,34.7086s.9134,12.1349,0,13.9617,3.784,5.2194,6.6547,5.35,3.9145-2.74,2.0877-9.7862-2.9523-29.2283-3.2376-40.9718,1.7371-16.1148-3.2866-13.8965S346.8033,381.5587,347.53,390.6367Z"/>
    <path d="M349.538,442.9039a2.0865,2.0865,0,0,0-2.2137.4048c-3.0952,2.88-11.31,10.0085-11.233,11.0039.0869,1.1309,4.5234,3.2186,6.4371,2.3487s13.7443-9.5688,13.7443-10.3517C356.2727,445.724,351.7947,443.8242,349.538,442.9039Z"/>
    <path d="M338.3627,457.1129l2.4682,1.0788a2.0876,2.0876,0,0,1,1.2482,1.7948l.2588,4.5666a2.0842,2.0842,0,0,1-3.23,1.86,8.8849,8.8849,0,0,0-2.2573-1.1349,2.0685,2.0685,0,0,1-1.4118-1.9985v-4.2542A2.0878,2.0878,0,0,1,338.3627,457.1129Z"/>
    <path d="M335.1779,466.97c-1.3556,1.3425-2.9577,2.3052-1.5658,3.871s3.436,4.7409,6.7416,3.3926,3.0622-4.8279,1.9878-5.8283S335.8962,466.2581,335.1779,466.97Z"/>
    <path d="M332.1689,472.0529a10.94,10.94,0,0,0-2.1094,3.1727,1.0458,1.0458,0,0,0,1.5838,1.2547,9.2341,9.2341,0,0,1,2.8946-1.5782,1.0323,1.0323,0,0,0,.52-1.6235,4.7073,4.7073,0,0,0-1.7942-1.5011A1.0123,1.0123,0,0,0,332.1689,472.0529Z"/>
    <path d="M345.1385,389.4094c-.5832,7.1245-2.5066,28.5776-2.5105,33.26s-1.0061,11.6076-2.1506,13.1932,2.7717,5.5149,5.4643,6.08,4.1211-1.9864,3.48-8.926,1.7125-28.0742,3.2517-39.2152,4.1238-14.96-.965-13.6378S345.85,380.7192,345.1385,389.4094Z"/>
    <path d="M338.6574,440.3308a2.0865,2.0865,0,0,0-2.2059.4457c-3.0412,2.9369-11.1221,10.2165-11.0271,11.21.108,1.1291,4.5824,3.1342,6.48,2.229s13.5645-9.822,13.55-10.6048C345.4432,443.0255,340.9307,441.209,338.6574,440.3308Z"/>
    <path d="M327.0067,454.774l2.27,1.45a2.0879,2.0879,0,0,1,.9538,1.9672l-.4548,4.5512a2.0842,2.0842,0,0,1-3.48,1.3352,8.8852,8.8852,0,0,0-2.0533-1.4722,2.0686,2.0686,0,0,1-1.0836-2.1939l.6619-4.2024A2.0878,2.0878,0,0,1,327.0067,454.774Z"/>
    <path d="M322.3271,464.0151c-1.5479,1.1152-3.28,1.817-2.149,3.58s2.6566,5.2178,6.1317,4.4,3.7761-4.2926,2.87-5.448S323.1474,463.4241,322.3271,464.0151Z"/>
    <path d="M318.5639,468.5684a10.9408,10.9408,0,0,0-2.5773,2.8058,1.0457,1.0457,0,0,0,1.3692,1.4859,9.2341,9.2341,0,0,1,3.1049-1.1086,1.0323,1.0323,0,0,0,.7659-1.5229,4.708,4.708,0,0,0-1.5388-1.762A1.0123,1.0123,0,0,0,318.5639,468.5684Z"/>
  </g>
</svg>
