<svg id="Layer_1" data-name="Layer 1" xmlns="http://www.w3.org/2000/svg" viewBox="0 0 512 512">
  <title>Spine 512x512px</title>
  <g>
    <path d="M225.83,80.46l-6.69-.6265a10.6463,10.6463,0,0,0-11.8319,10.6156v3.9256A10.6619,10.6619,0,0,0,219.0665,104.99l6.9481-.6451c-.1659.9031-.35,1.7878-.5529,2.6908a9.2151,9.2151,0,0,0,6.0819,10.8l2.58.8662a69.6217,69.6217,0,0,0,43.771-.0184l2.58-.8662a9.205,9.205,0,0,0,6.2845-8.7542,9.7,9.7,0,0,0-.2211-2.0642q-.3041-1.3269-.5529-2.6539l6.8743.6451a10.6738,10.6738,0,0,0,11.8321-10.6156V90.4492a10.6594,10.6594,0,0,0-11.74-10.6341l-6.7822.645.24-1.53A9.2175,9.2175,0,0,0,277.305,68.26a9.0168,9.0168,0,0,0-2.9119.4792,58.3477,58.3477,0,0,1-36.7676,0,9.2265,9.2265,0,0,0-12.0348,10.1733Z"/>
    <path d="M304.6919,151.1764v3.9071A10.6466,10.6466,0,0,1,292.86,165.6992l-6.8743-.645c.1658.903.35,1.7876.5529,2.6722a9.7,9.7,0,0,1,.2211,2.0641,9.2049,9.2049,0,0,1-6.2845,8.7542l-2.58.8663a69.45,69.45,0,0,1-43.771,0l-2.58-.8663a9.1958,9.1958,0,0,1-6.0819-10.8c.2028-.8846.387-1.7876.5529-2.6906l-6.9665.6634a10.6592,10.6592,0,0,1-11.74-10.6341v-3.9071A10.6463,10.6463,0,0,1,219.14,140.5608l6.69.6082-.24-1.53a9.23,9.23,0,0,1,12.0348-10.1917,58.3491,58.3491,0,0,0,36.7676,0,9.0168,9.0168,0,0,1,2.9119-.4792,9.2439,9.2439,0,0,1,9.1043,10.6893l-.24,1.5113,6.7822-.6267a10.6594,10.6594,0,0,1,11.74,10.6341Z"/>
    <path d="M304.6919,211.8852v3.9256A10.6736,10.6736,0,0,1,292.86,226.4263l-6.8743-.645c.1658.9031.35,1.7878.5529,2.6724a9.5728,9.5728,0,0,1,.2211,2.0641,9.24,9.24,0,0,1-6.2845,8.7542l-2.58.8662A69.7959,69.7959,0,0,1,256,243.6583a69.0727,69.0727,0,0,1-21.8763-3.52l-2.58-.8662a9.2055,9.2055,0,0,1-6.0819-10.8c.2028-.8847.387-1.7877.5529-2.6908l-6.9665.645a10.6588,10.6588,0,0,1-11.74-10.6155v-3.9256A10.6736,10.6736,0,0,1,219.14,201.27l6.69.6265-.24-1.53a9.23,9.23,0,0,1,12.0348-10.1918,58.3463,58.3463,0,0,0,36.7676,0,9.02,9.02,0,0,1,2.9119-.4791,9.2439,9.2439,0,0,1,9.1043,10.6894l-.24,1.5111,6.7822-.6265a10.6592,10.6592,0,0,1,11.74,10.6156Z"/>
    <path d="M304.6919,272.6124v3.9256A10.6739,10.6739,0,0,1,292.86,287.1536l-6.8743-.645c.1658.8846.35,1.7876.5529,2.6539a9.7438,9.7438,0,0,1,.2211,2.0825,9.24,9.24,0,0,1-6.2845,8.7542l-2.5987.8662a69.7372,69.7372,0,0,1-43.7526,0l-2.58-.8662a9.2151,9.2151,0,0,1-6.0819-10.8c.2028-.9031.387-1.7877.5529-2.6907l-6.9665.645a10.6592,10.6592,0,0,1-11.74-10.6156v-3.9256A10.6738,10.6738,0,0,1,219.14,261.9967l6.69.6267-.24-1.5481a9.2266,9.2266,0,0,1,12.0348-10.1733,58.3477,58.3477,0,0,0,36.7676,0,8.9315,8.9315,0,0,1,2.9119-.4792,9.2176,9.2176,0,0,1,9.1043,10.6709l-.24,1.53,6.7822-.6267a10.6593,10.6593,0,0,1,11.74,10.6157Z"/>
    <path d="M304.6919,333.34v3.9255A10.6464,10.6464,0,0,1,292.86,347.8624l-6.8743-.6266q.2487,1.3269.5529,2.6539a9.7,9.7,0,0,1,.2211,2.0641,9.205,9.205,0,0,1-6.2845,8.7542l-2.5987.8663a69.3929,69.3929,0,0,1-43.7526,0l-2.58-.8663a9.1847,9.1847,0,0,1-6.0819-10.7814c.2028-.9031.387-1.7878.5529-2.6908l-6.9665.6451a10.6592,10.6592,0,0,1-11.74-10.6157V333.34A10.6463,10.6463,0,0,1,219.14,322.724l6.69.6266-.24-1.5481a9.2266,9.2266,0,0,1,12.0348-10.1733,58.4759,58.4759,0,0,0,36.7676,0,8.9341,8.9341,0,0,1,2.9119-.4792,9.2177,9.2177,0,0,1,9.1043,10.671l-.24,1.53,6.7822-.645a10.6592,10.6592,0,0,1,11.74,10.6341Z"/>
    <path d="M304.6919,393.8089v3.9255A10.6464,10.6464,0,0,1,292.86,408.35l-6.8743-.645c.1658.903.35,1.7876.5529,2.6724a9.5728,9.5728,0,0,1,.2211,2.0641,9.24,9.24,0,0,1-6.2845,8.7542l-2.5987.8661a69.3892,69.3892,0,0,1-43.7526,0l-2.58-.8661a9.1959,9.1959,0,0,1-6.0819-10.8c.2028-.8847.387-1.7878.5529-2.6908l-6.9481.6635a10.6621,10.6621,0,0,1-11.7582-10.6341v-3.9255A10.6735,10.6735,0,0,1,219.14,383.1933l6.69.6265-.24-1.53a9.23,9.23,0,0,1,12.0348-10.1918,58.3463,58.3463,0,0,0,36.7676,0,8.9368,8.9368,0,0,1,2.9119-.4792,9.244,9.244,0,0,1,9.1043,10.6894l-.24,1.5112,6.7822-.6265a10.659,10.659,0,0,1,11.74,10.6156Z"/>
    <path d="M304.6919,454.9527v3.9255A10.6464,10.6464,0,0,1,292.86,469.4938l-6.8743-.645c.1658.9031.35,1.7877.5529,2.6724a9.5728,9.5728,0,0,1,.2211,2.0641,9.24,9.24,0,0,1-6.2845,8.7542l-2.5987.8662a69.391,69.391,0,0,1-43.7526,0l-2.58-.8662a9.1959,9.1959,0,0,1-6.0819-10.8c.2028-.8847.387-1.7877.5529-2.6908l-6.9481.6635a10.6621,10.6621,0,0,1-11.7582-10.6341v-3.9255A10.6735,10.6735,0,0,1,219.14,444.3371l6.69.6265-.24-1.53a9.23,9.23,0,0,1,12.0348-10.1918,58.3463,58.3463,0,0,0,36.7676,0,8.8552,8.8552,0,0,1,2.9119-.4792,9.244,9.244,0,0,1,9.1043,10.6894l-.24,1.5112,6.7822-.6265a10.659,10.659,0,0,1,11.74,10.6156Z"/>
    <g>
      <path d="M463.855,213.6284a6.0028,6.0028,0,0,1-5.8252-4.583c-.1851-.7607-18.7075-76.4536-36.84-112.7173-11.8393-23.6792-33.1914-24.6533-50.3481-25.4355-7.57-.3457-14.1074-.6436-19.1826-2.8189-15.064-6.456-53.6035-36.8193-55.2368-38.1084a6,6,0,1,1,7.4355-9.4189c10.78,8.51,41.2319,31.6562,52.5288,36.498,3.0713,1.3164,8.8662,1.5806,15.0015,1.86,18.1372.8271,45.5454,2.0776,60.5351,32.0571C450.6626,128.44,468.9219,203.0513,469.69,206.209a6.005,6.005,0,0,1-5.8349,7.4194Z"/>
      <path d="M383.0308,489.2563a6,6,0,0,1-5.9854-5.6669c-.02-.3706-2.16-37.7569-10.311-94.815-8.5508-59.8574-6.0547-68.8638,8.6377-106.6435,14.0156-36.0411,18.2256-82.8457,18.2661-83.314a6,6,0,0,1,11.9551,1.0405c-.1724,1.981-4.3877,48.9531-19.0376,86.6231-13.9956,35.9887-16.0865,43.581-7.9419,100.5966,8.2314,57.6177,10.3921,95.4708,10.4131,95.8462a6,6,0,0,1-5.6578,6.3238Q383.1993,489.2566,383.0308,489.2563Z"/>
      <path d="M441.0679,342.1172a6.0013,6.0013,0,0,1-5.4156-3.4087l-47.665-99.4751a6,6,0,0,1,10.8223-5.1855l47.665,99.475a6.0025,6.0025,0,0,1-5.4067,8.5943Z"/>
      <path d="M48.145,213.6284A6.005,6.005,0,0,1,42.31,206.209c.768-3.1577,19.0273-77.7686,37.7666-115.2471,14.99-29.9795,42.3979-31.23,60.5351-32.0571,6.1353-.28,11.93-.544,15.0015-1.86,11.2969-4.8418,41.7485-27.9878,52.5288-36.498a6,6,0,0,1,7.4355,9.4189c-1.6333,1.2891-40.1728,31.6524-55.2368,38.1084-5.0752,2.1753-11.6128,2.4732-19.1826,2.8189-17.1567.7822-38.5088,1.7563-50.3481,25.4355C72.6777,132.5918,54.1553,208.2847,53.97,209.0454A6.0028,6.0028,0,0,1,48.145,213.6284Z"/>
      <path d="M128.9692,489.2563c-.1123,0-.2246-.0029-.3383-.0092a6,6,0,0,1-5.6578-6.3238c.021-.3754,2.1817-38.2285,10.4131-95.8462,8.1446-57.0156,6.0537-64.6079-7.9419-100.5966-14.65-37.67-18.8652-84.6421-19.0376-86.6231a6,6,0,0,1,11.9551-1.0405c.04.4683,4.2505,47.2729,18.2661,83.314,14.6924,37.78,17.1885,46.7861,8.6377,106.6435-8.1587,57.11-10.2905,94.4444-10.311,94.815A6,6,0,0,1,128.9692,489.2563Z"/>
      <path d="M70.9321,342.1172a6.0026,6.0026,0,0,1-5.4067-8.5943l47.665-99.475a6,6,0,0,1,10.8223,5.1855l-47.665,99.4751A6.0018,6.0018,0,0,1,70.9321,342.1172Z"/>
    </g>
  </g>
</svg>
