<svg id="Layer_1" data-name="Layer 1" xmlns="http://www.w3.org/2000/svg" viewBox="0 0 512 512">
  <title>Tail 512x512px</title>
  <g>
    <g>
      <path d="M80.345,156.0912c1.9981,4.3935,5.0729,5.5559,15.3656,9.881s15.5018,15.7,20.6361,14.3127,15.2814-9.5825,9.2967-16.062-19.68-12.1941-27.1608-20.2934-12.1154-2.9211-15.0541,1.7355-4.3693,8.1886-3.3944,9.9359"/>
      <path d="M119.4685,185.4941c.6727,4.7794,3.2928,6.7646,11.94,13.826s10.4241,19.4457,15.7411,19.5683,17.3688-4.8653,13.4627-12.7737-15.4236-17.2657-20.3062-27.1513-10.7932-6.2308-14.93-2.5964-6.5084,6.617-6.0679,8.5688"/>
      <path d="M152.4287,224.1329c.1523,3.8058,2.27,5.5276,9.2121,11.6116s7.3662,15.9473,12.0214,16.3643,15.69-2.7868,12.9867-9.2524-11.9539-14.5312-15.3328-22.6132-8.9016-5.5589-12.8651-2.9448-6.3188,4.8209-6.1111,6.3851"/>
      <path d="M181.563,256.7591c.1523,3.8058,2.27,5.5275,9.2122,11.6115s7.3661,15.9474,12.0214,16.3643,15.69-2.7867,12.9866-9.2524-11.9538-14.5311-15.3327-22.6132-8.9016-5.5588-12.8652-2.9447-6.3187,4.8209-6.1111,6.385"/>
      <path d="M209.0987,290.8557c.3331,3.7943,2.53,5.4133,9.7539,11.16s8.1163,15.579,12.7861,15.7741,15.54-3.53,12.5319-9.86-12.6314-13.9462-16.3908-21.8584-9.1559-5.1292-12.9907-2.33-6.0823,5.116-5.8,6.6685"/>
      <path d="M239.0694,322.7967c.7323,3.1038,2.6107,4.2374,8.84,8.3146s8.1492,12.1174,11.7324,11.8448,11.397-4.3594,8.307-9.31-11.3841-10.3491-15.2466-16.5369-7.624-3.3873-10.1933-.7182-3.99,4.7916-3.58,6.0481"/>
      <path d="M265.2678,346.6119c.7025,2.9782,2.5049,4.0659,8.4821,7.978s7.8192,11.6267,11.2574,11.3652,10.9355-4.1829,7.9707-8.9327-10.9232-9.93-14.6293-15.8673-7.3152-3.25-9.7806-.6891-3.8285,4.5976-3.4346,5.8032"/>
      <path d="M290.7909,368.5607c.5435,2.3036,1.9376,3.1449,6.5609,6.1708s6.0481,8.9932,8.7074,8.7909,8.4585-3.2354,6.1652-6.9093-8.4489-7.6808-11.3155-12.2731-5.6583-2.514-7.5652-.5331-2.9613,3.5562-2.6566,4.4887"/>
      <path d="M311.845,386.8968c1.1556,2.0656,2.7272,2.4914,8.0041,4.13s8.2866,6.9848,10.788,6.0595,7.2437-5.4353,4.0291-8.3376-10.2344-5.0631-14.2527-8.6909-6.1313-.8623-7.42,1.5664-1.87,4.2331-1.3208,5.046"/>
      <path d="M335.8968,400.0448c1.3212,1.7227,2.8114,1.8943,7.8418,2.6612s8.4673,5.2228,10.6327,4.0356,5.916-5.9484,2.6065-8.15-9.9988-3.2041-14.1357-5.9561-5.7107.0583-6.5754,2.4482-1.163,4.1136-.5568,4.7786"/>
      <path d="M358.0658,408.2574c1.1663,1.5313,2.5164,1.6574,7.07,2.2524s7.588,4.5556,9.5778,3.44,5.4891-5.4923,2.5264-7.4177-9.0183-2.701-12.7217-5.1078-5.1876.1642-6.02,2.3413-1.1365,3.7411-.5989,4.33"/>
      <path d="M379.3327,415.8524c1.3488,1.3734,2.704,1.33,7.2962,1.35s8.0984,3.57,9.933,2.2147,4.7587-6.1359,1.5784-7.6755-9.2855-1.5514-13.2609-3.4758-5.1263.812-5.6793,3.0761-.66,3.8539-.0524,4.3712"/>
      <path d="M401.5633,420.5248c1.5038,1.2015,2.844.9953,7.4055.4645s8.4684,2.5724,10.127,1.0064,3.9878-6.6628.6457-7.8094-9.4046-.4256-13.5822-1.859-4.9918,1.4214-5.2691,3.7356-.1921,3.9051.4727,4.3459"/>
      <path d="M423.8483,420.35c1.248.529,2.1176.1346,5.11-1.0919s6.2311.1356,7.0583-1.2414,1.4383-5.2755-1.0458-5.4182-6.458,1.498-9.5632,1.32-3.1148,1.9122-2.8632,3.5341.6116,2.6845,1.1461,2.8571"/>
      <path d="M439.09,416.5394c.9413.2356,1.5125-.14,3.4923-1.3395s4.4214-.5959,4.8535-1.6615.4314-3.89-1.3411-3.7155-4.4005,1.7764-6.6162,1.9951-1.99,1.698-1.6323,2.817.7305,1.8305,1.1277,1.8932"/>
      <path d="M449.1585,409.5066c-.884.3414-.6525,2.614.2933,3.1353s10.255-3.38,11.9369-4.4143C460.0005,407.5013,453.3946,407.8707,449.1585,409.5066Z"/>
    </g>
    <path d="M51.8858,119.0255C63.7637,126.82,81.51,132.8312,81.51,142.8978s-13.518,14.0932-31.9255,12.9427-27.3236-16.3941-21.2837-27.6112S42.682,112.9856,51.8858,119.0255Z"/>
    <path d="M405.7861,453.375c-27.0966.0029-62.0439-8.2881-106.8476-31.4385-81.7764-42.2529-126.9571-94.4873-163.2608-136.459C100.3086,244.5864,72.3721,212.2881,25.69,207.2539a6,6,0,0,1,1.2862-11.9307c51.3808,5.5406,80.6816,39.4161,117.7778,82.3038,35.6294,41.1923,79.9717,92.457,159.6924,133.6494,51.5019,26.6093,94.3545,35.6357,127.3691,26.8261,28.3-7.5527,41.7188-26.4121,47.1983-36.9824a5.4136,5.4136,0,0,0-.4043-5.79,5.4947,5.4947,0,0,0-5.3926-2.2578c-61.6563,9.4-115.6494-6.8545-165.0508-49.6934-42.542-36.89-75.9946-88.6851-105.5093-134.3828-9.0346-13.9888-17.5683-27.2012-26.146-39.7275C110.0107,72.1533,27.2261,70.6694,26.3975,70.666a6,6,0,0,1,.0258-12H26.45c.9268.0039,23.0518.25,53.93,13.2642,28.23,11.8989,69.541,37.2685,106.0317,90.5581,8.669,12.66,17.2451,25.9389,26.3252,39.9971,60.1231,93.09,128.27,198.6035,258.6709,178.7236a17.5527,17.5527,0,0,1,18.26,25.4346C482.4043,420.6533,459.5986,453.37,405.7861,453.375Z"/>
  </g>
</svg>
