<svg id="Layer_1" data-name="Layer 1" xmlns="http://www.w3.org/2000/svg" viewBox="0 0 512 512">
  <title>Tentacle 512x512px</title>
  <g>
    <path d="M291.2119,308.377a5.97,5.97,0,0,1-3.4131-1.0694A174.4322,174.4322,0,0,1,265.7471,288.69a6,6,0,0,1,8.3593-8.6094,162.8568,162.8568,0,0,0,20.5284,17.3642,6.0009,6.0009,0,0,1-3.4229,10.9327Z"/>
    <path d="M211.394,226.4951a5.9838,5.9838,0,0,1-4.4526-1.9765q-4.2282-4.6758-8.7344-9.6094a196.2407,196.2407,0,0,0-18.5649-17.8379A6,6,0,0,1,187.37,187.89a208.3537,208.3537,0,0,1,19.6953,18.9249q4.5307,4.9467,8.7779,9.6572a6,6,0,0,1-4.4488,10.0234Z"/>
    <path d="M27,157.5947a6,6,0,0,1-1.3706-11.8408c.9912-.2344,24.6728-5.6777,57.9419-1.9648A6,6,0,1,1,82.24,155.7148c-31.2285-3.4863-53.6372,1.667-53.86,1.7188A5.991,5.991,0,0,1,27,157.5947Z"/>
    <path d="M358.62,325.4a6,6,0,0,1-.0195-12l.123-.0049c.15-.0068.2989-.0117.4434-.0146a51.2235,51.2235,0,0,0,25.0518-7.4248c.121-.0879.2441-.1719.371-.25,11.2207-6.9834,20.4415-18.7735,27.4063-35.042l.0967-.2412c.0156-.0391.0312-.0772.0478-.1153,7.0869-16.623,10.2305-34.1,11.6211-45.834a6,6,0,0,1,11.916,1.4121c-1.48,12.4991-4.8457,31.1534-12.4716,49.0664l-.0987.2452c-.0166.041-.0332.081-.05.1211-7.8965,18.4716-18.6064,32.06-31.8369,40.3935-.1387.1006-.2627.1826-.3672.249-.0459.03-.0381.0245-.0849.0537a63.05,63.05,0,0,1-31.21,9.36c-.0791.0029-.1592.0049-.2383.0049l-.0732.0039C359.041,325.3936,358.8311,325.4,358.62,325.4Zm24.8692-18.8145-.0069.0059Z"/>
    <path d="M332.3018,408.1221c-44.4073.0009-87.9483-15.1035-133.7393-45.9326-69.3623-46.7-169.6509-32.0381-170.6562-31.8877A6,6,0,1,1,26.0938,318.44c1.0756-.1641,26.7387-4.001,61.6923-1.8418,32.4165,2,79.1114,9.8056,117.4785,35.6367,61.962,41.7168,119.3711,53.2558,180.6739,36.3183,51.6045-14.2588,87.9355-70.6445,92.0029-114.7089,4.5518-49.3067-6.6709-74.4551-16.956-90.8565-10.1153-16.13-17.2461-46.7178-20.417-62.4072-5.6651,7.0556-13.125,23.41-11.3428,59.998.7676,15.7647,3.5644,29.5733,6.2695,42.9278,7.9639,39.3154,14.8418,73.27-43.5019,119.833-19.8037,15.8047-39.5049,22.14-58.6787,22.1406C286.5615,365.4844,242.9116,327.833,208.32,298c-7.6147-6.5674-14.8071-12.7695-21.5859-18.2119-48.7886-39.169-115.1074-42.2744-158.9922-44.3291l-1.0225-.0479a6,6,0,1,1,.5616-11.9863l1.0219.0479c45.4395,2.1269,114.1075,5.3427,165.9439,46.958,6.9433,5.5742,14.2134,11.8437,21.91,18.4824,48.1363,41.5127,108.0454,93.1777,168.35,45.0469,52.6133-41.9893,46.9981-69.708,39.2276-108.0713-2.6641-13.15-5.6836-28.0547-6.4951-44.7266-3.2627-66.999,22.8076-76.2685,25.791-77.1055a6.0014,6.0014,0,0,1,7.5371,4.7832c.08.4776,8.168,47.9737,20.584,67.7725,16.7695,26.7393,22.5488,57.0674,18.7392,98.335-2.2783,24.6845-13.4424,51.95-30.6279,74.8047-18.97,25.2255-43.875,43.1132-70.1289,50.3671A212.4032,212.4032,0,0,1,332.3018,408.1221Z"/>
    <g>
      <path d="M153.78,138.96c-14.02-8.08-29.48-11.88-43.54-10.66-14.86,1.28-26.48,7.92-32.7,18.72-6.24,10.78-6.18,24.16.14,37.68,5.98,12.78,17,24.28,31.02,32.36,12.3,7.1,25.72,10.9,38.32,10.9,1.76,0,3.5-.08,5.2-.22,14.86-1.28,26.48-7.94,32.72-18.72C197.36,187.48,183.38,156.06,153.78,138.96Zm-4.98,49.2c-1.94,3.38-6.14,4.2-8.46,4.42a27.1328,27.1328,0,0,1-15.28-3.86v-.02a26.9585,26.9585,0,0,1-10.98-11.28c-1-2.12-2.36-6.18-.42-9.56,1.7-2.94,5.5-4.44,10.08-4.44a28.0842,28.0842,0,0,1,13.66,3.9C146.78,172.72,152.1,182.46,148.8,188.16Z"/>
      <path d="M358.82,301.92c-5.32-7.64-13.74-13.84-23.68-17.5s-20.36-4.38-29.36-2.02c-9.78,2.56-16.78,8.4-19.74,16.44-5.92,16.04,6.4,34.86,28.04,42.82a53.5806,53.5806,0,0,0,18.38,3.38,43.9168,43.9168,0,0,0,10.98-1.36c9.78-2.58,16.8-8.42,19.74-16.44C366.14,319.2,364.6,310.2,358.82,301.92Zm-22.88,14.26c-1.1,3.88-6.94,5.6-13.02,3.86-6.1-1.74-10.14-6.28-9.02-10.16,1.1-3.86,6.94-5.6,13.02-3.86S337.06,312.32,335.94,316.18Z"/>
      <path d="M283.26,256.86c-2.96-10.32-9.76-20.78-19.16-29.4-9.38-8.62-20.36-14.52-30.92-16.6-11.6-2.3-21.46.22-27.76,7.06-12.38,13.5-6.04,38.82,14.48,57.66,12.4,11.4,26.74,17.44,38.88,17.44,7.92,0,14.9-2.58,19.8-7.9C284.86,278.28,286.52,268.24,283.26,256.86Zm-29.68,4.7c-3.52,4.06-11.56,2.86-17.96-2.68s-8.72-13.32-5.2-17.38c3.52-4.08,11.56-2.88,17.96,2.66S257.1,257.48,253.58,261.56Z"/>
      <path d="M423.2,274.94l-.04.14c-.02.04-.08.2-.1.24-7.96,18.6-18.76,32.26-32.14,40.58a5.9625,5.9625,0,0,1-3.16.9,6.1472,6.1472,0,0,1-1.8-.28,5.9433,5.9433,0,0,1-3.72-3.38,33.3071,33.3071,0,0,1-2.7-13.2,33.6728,33.6728,0,0,1,33.62-33.64,33.0287,33.0287,0,0,1,5.48.44,6.02,6.02,0,0,1,4.26,3A5.9454,5.9454,0,0,1,423.2,274.94Z"/>
    </g>
  </g>
</svg>
