<svg id="Layer_1" data-name="Layer 1" xmlns="http://www.w3.org/2000/svg" viewBox="0 0 512 512">
  <title>Wing 512x512px</title>
  <g>
    <path d="M421.0176,157.2813a6.0007,6.0007,0,0,1-2.9424-11.2334c36.8486-20.6783,52.123-58.4258,52.2734-58.8047a6,6,0,0,1,11.167,4.3911c-.164.4179-16.8906,42.0522-57.5674,64.8784A5.9738,5.9738,0,0,1,421.0176,157.2813Z"/>
    <path d="M421.7119,120.26a6.0011,6.0011,0,0,1-2.4209-11.4917c.0244-.0108.0488-.0215.0742-.0323l-.0009-.0005c28.0986-12.186,46.1171-20.4253,53.5634-24.4912a5.9988,5.9988,0,0,1,7.2159,9.4688l-.0206.02a6.0265,6.0265,0,0,1-1.3056.9673c-7.6856,4.2148-26.0459,12.6255-54.5762,25A6.0318,6.0318,0,0,1,421.7119,120.26Z"/>
    <path d="M429.7451,191.1909a6,6,0,0,1-3.81-10.6382,107.4451,107.4451,0,0,0,25.84-31.6816c-13.5264,3.1719-33.4258,9.2466-58.584,17.9023a6,6,0,0,1-3.9043-11.3476c34.585-11.8989,58.8262-18.8345,72.05-20.6138a6,6,0,0,1,6.4629,7.9282c-.3808,1.0874-9.6015,26.8594-34.2509,47.0889A5.9784,5.9784,0,0,1,429.7451,191.1909Z"/>
    <path d="M396.6533,238.5718a6.0012,6.0012,0,0,1-2.1758-11.5938c10.5459-4.1006,33.126-23.1533,47.7471-36.2568-19.4014-.3355-50.9668,5.69-91.1416,17.5537a6,6,0,0,1-3.3984-11.5088c53.6738-15.8506,90.5937-21.3057,109.7334-16.2182a6,6,0,0,1,2.5742,10.165c-4.375,4.1235-43.2588,40.4858-61.1651,47.45A5.9885,5.9885,0,0,1,396.6533,238.5718Z"/>
    <path d="M374.585,287.9551a6.0014,6.0014,0,0,1-2.4795-11.4678c25.2168-11.4219,40.7129-29.9858,48.1084-40.8174-19.48,1.1157-53.4776,7.543-97.958,18.5869a6,6,0,0,1-2.8926-11.6464c38.8076-9.6348,89.7539-20.7369,111.9668-18.9092a6,6,0,0,1,4.9121,8.5879c-.7139,1.48-17.9629,36.457-59.1856,55.13A6.001,6.001,0,0,1,374.585,287.9551Z"/>
    <path d="M346.499,330.6152a6.001,6.001,0,0,1-1.9-11.6923c21.7549-7.2676,40.0391-21.875,50.3955-31.4659-5.5839-.03-12.3212.126-20.1337.4893-23.7159,1.1152-52.6534,3.915-72.752,6.0674a6,6,0,1,1-1.2773-11.9317c20.2607-2.17,49.4541-4.9941,73.4687-6.122,16.1992-.7549,27.6885-.6719,35.1289.2509a6,6,0,0,1,3.7979,9.8809c-1.1211,1.2949-27.8868,31.873-64.8252,44.2119A5.9942,5.9942,0,0,1,346.499,330.6152Z"/>
    <path d="M298.9844,364.0781a167.1272,167.1272,0,0,1-28.8789-2.6552,6.0005,6.0005,0,1,1,2.0742-11.82c28.1836,4.9473,52.89,2.28,71.4365-7.706a64.2017,64.2017,0,0,0,13.7266-9.8213c-15.3428-2.4775-43.6133-4.3955-80.59-5.4033a6,6,0,0,1,.16-11.9981c.0557,0,.11.001.166.002,34.1641.9316,78.0635,3.0771,93.1855,8.0088a6,6,0,0,1,3.2793,8.8C372.6221,333.0146,353.1846,364.0762,298.9844,364.0781Z"/>
    <path d="M289.5049,419.7764c-12.1055,0-36.7285-1.3682-49.9805-11.7032a6,6,0,1,1,7.3809-9.4628c10.7812,8.41,35.16,9.4638,46.4209,9.124,1.0439-2.8721.917-11.251-8.461-27.75-15.73-27.6739-50.6-33.5781-50.95-33.6348a6,6,0,0,1,1.9082-11.8476c1.6622.2675,40.9317,6.9316,59.4737,39.5527,8.8818,15.625,12.1318,27.9336,9.66,36.584-1.581,5.5322-4.9267,7.7119-5.915,8.248a6.01,6.01,0,0,1-2.4981.7158C296.1465,419.626,293.5107,419.7764,289.5049,419.7764Zm3.2656-11.0782Z"/>
    <path d="M250.5781,443.8369c-11.7412.001-36.0117-4.2969-58.1689-35.3476a6,6,0,1,1,9.7676-6.9707c17.8964,25.0791,36.6806,29.7382,46.3271,30.2773-10.1543-29.1641-39.8291-60.9131-40.1514-61.2559a6,6,0,0,1,8.7364-8.2265c1.5136,1.6074,37.1533,39.7549,45.1347,73.6728a6.0015,6.0015,0,0,1-4.5371,7.23A34.9767,34.9767,0,0,1,250.5781,443.8369Z"/>
    <path d="M198.8262,480.5645c-.1123,0-.2227-.002-.33-.0049-15.8594-.4092-33.2061-31.7813-35.6514-44.9883-3.1855-17.1983-7.999-46.6973-8.0478-46.9932a6,6,0,1,1,11.8437-1.9316c.0479.2949,4.8418,29.668,8.003,46.7392,1.7734,9.5743,12.5732,28.0606,21.1884,33.8487,2.1319,1.4336,3.0557,1.332,3.0635,1.3252-.001-.001,1.3828-.8145,2.5322-5.6241,5.37-22.458-12.42-64.415-19.7275-78.6875a6,6,0,0,1,10.6816-5.4687c1.1553,2.2559,28.208,55.6191,20.7178,86.9473C210.0361,478.5332,202.9834,480.5635,198.8262,480.5645Z"/>
    <path d="M151.0254,487.5928a17.18,17.18,0,0,1-2.125-.1338c-18.2041-2.2764-24.69-36.7481-28.83-87.8067a6,6,0,0,1,11.961-.9687c1.3076,16.1279,3.2812,36.7236,6.9726,52.9619,5.1113,22.49,10.7578,23.8272,11.3848,23.9053,6.7207.8613,15.125-15.3281,18.5927-27.3242a6,6,0,0,1,11.5274,3.332,102.34,102.34,0,0,1-7.2442,17.6885C166.7578,481.4326,159.2842,487.5928,151.0254,487.5928Z"/>
    <path d="M96.6807,490.876a6.0029,6.0029,0,0,1-5.4551-3.5L75.8369,453.8252a6,6,0,1,1,10.9082-5.002l12.7793,27.8614c12.2676-8.377,22.4043-29.8535,25.583-38.3907a6,6,0,0,1,11.249,4.1778c-1.5146,4.083-15.4433,40.1191-37.6582,48.0537A5.9958,5.9958,0,0,1,96.6807,490.876Z"/>
    <path d="M64.1,472.5781a6,6,0,0,1-4.6416-2.1963c-.76-.9267-18.4043-23.0791-.6309-55.7822A6,6,0,0,1,69.37,420.33c-10.0058,18.4111-6.0908,32.1133-2.9834,38.5058,12.9639-8.8183,24.8867-39.2295,29.7793-58.2021a6,6,0,0,1,11.6211,2.9922c-1.5967,6.207-16.3437,60.87-41.9346,68.69A5.9907,5.9907,0,0,1,64.1,472.5781Z"/>
    <path d="M43.8662,325.2422A6.0015,6.0015,0,0,1,42.27,313.457c22.8877-6.3349,83.9532-27.9424,91.5528-51.5263,2.2519-6.9829,4.1123-14.3081,6.083-22.0635,7.01-27.5923,14.2578-56.124,39.8388-70.3228,8.4854-4.7124,28.1719-13.0537,55.419-24.5981,69.4629-29.4307,185.7226-78.69,241.5635-122.54a6,6,0,0,1,9.706,4.7187c0,.6118-.0888,15.2036-7.7939,33.8794-7.0674,17.13-22.1836,41.188-54.0625,58.5234a6,6,0,1,1-5.7324-10.542C441.7754,96.5156,458.0918,79,467.34,56.9243a97.7259,97.7259,0,0,0,5.2569-16.5117c-60.2061,42.4775-167.17,87.7964-232.752,115.583-25.8945,10.9712-46.3467,19.6367-54.2754,24.04-21.0517,11.6851-27.6513,37.6636-34.0332,62.7867-1.93,7.5942-3.9248,15.4472-6.292,22.79-4.8086,14.919-23.3095,29.5-54.9912,43.3379a373.5144,373.5144,0,0,1-44.7851,16.0732A6.0136,6.0136,0,0,1,43.8662,325.2422Z"/>
    <path d="M46.3565,336.7487c-3.767-.9171-11.0165-4.6581-14.0478,11.0892s3.6831,18.4776,11.8881,22.4521,22.1346,5.8423,23.1363-4.486,9.0276-17.166,30.3716-23.2912,47.8715-7.785,57.0066-3.887,20.1615-2.7722,18.919-6.69-6.8421-8.9943-6.7023-14.7529,6.9465-11.7571-1.6042-13.2422-14.8057,7.65-23.7174,10.9822S98.4428,327.1479,81.218,331.2768s-20.8171,9.9132-25.0045,8.9877S49.6041,337.5394,46.3565,336.7487Z"/>
    <path d="M174.9535,307.3877c-5.0287.2941-5.9426,13.1293-2.6807,19.0279s7.2866,10.0957,12.9757,5.6525,13.9879-29.3575,19.6631-39.85,14.6152-38.4725,18.1647-52.3682,11.974-32.6373,16.6176-38.0076-.16-13.9188-8.1734-7.3189-11.892,18.9138-15.8981,32.82-16.4532,52.8947-21.4384,61.6349S183.7847,306.8712,174.9535,307.3877Z"/>
    <path d="M168.0649,302.7285c3.6847,2.85,10.3082,5.9128,15.1793-3.4173a14.7038,14.7038,0,0,0,1.1151-9.2565c-1.01-6.1406,4.9689-34.8855,15.2045-53.2373,10.2421-18.3638,16.7966-35.4338,21.81-38.4749s7.1781-13.6158-1.39-14.3479-15.1982,18.1687-23.8415,35.3623-15.2455,44.3522-18.54,55.0628c-2.8692,9.3269-7.8093,15.4046-11.0048,22.5A4.842,4.842,0,0,0,168.0649,302.7285Z"/>
    <path d="M269.1651,172.111c-14.2733,6.3149-32.1139-.169-36.8065-2.0423-4.6931-1.8459-5.5141,15.8138-5.5141,15.8138,3.2017,5.7442,4.6619,3.01,15.4594,4.2567,10.8114,1.2336,25.1113,17.1773,35.4468,6.7072s16.8492-3.5969,27.7287-8.5052a15.9208,15.9208,0,0,0,7.39-6.139c2.8287-4.6256,1.7761-9.84-.7593-12.5157-2.5622-2.7037-2.2023-4.2333-2.4587-6.0431,0,0,.0142-.0135.0015-.0554A6.4637,6.4637,0,0,0,308.43,160.56C305.8658,156.9129,283.4385,165.7961,269.1651,172.111Zm9.3879,16.5472c-9.3672,4.3665-25.3783-2.0685-25.3783-2.0685-.98-2.2313,2.8214-1.7824,12.677-7.287,9.8694-5.5176,28.6843-5.3592,34.3428-4.86S287.9068,184.2775,278.553,188.6582Z"/>
    <path d="M338.1535,173.2316c-1.81,2.0674-10.2315,4.8085-16.2576,6.3207a1.9444,1.9444,0,0,1-2.4244-1.9236,10.2706,10.2706,0,0,0-4.8051-9.152c-3.2512-1.8179-3.3631-3.3853-4.1469-5.0366,0,0,.01-.0171-.0151-.0534-.0229-.6418-.1942-8.3295,9.4933-7.8991,7.8022.3674,16.8516-3.7343,23.655-5.7281a5.0347,5.0347,0,0,1,6.3494,3.9024l.4782,2.5018a5.0287,5.0287,0,0,1-3.3357,5.7221c-5.333,1.7883-14.1449,4.8323-16.3157,6.1271C327.67,169.8857,340.8776,170.1275,338.1535,173.2316Z"/>
    <path d="M352.5345,156.7113l-1.4829-6.5647a1.96,1.96,0,0,1,1.72-2.3833c4.9117-.4937,16.722-1.21,21.6085,2.62,5.9611,4.6729-4.3769.999-19.1509,7.6894A1.9519,1.9519,0,0,1,352.5345,156.7113Z"/>
    <path d="M244.0126,172.2916a1.9688,1.9688,0,0,1-.4226-3.7355c7.9329-3.4319,22.6851-10.1581,30.3768-15.8514,10.8479-8.03,9.5868-8.41,12.5777-3.5915s-8.3928,15.9595-13.8234,19.853C268.0263,172.332,256.2851,174.66,244.0126,172.2916Z"/>
  </g>
</svg>
