<svg id="icons" xmlns="http://www.w3.org/2000/svg" viewBox="0 0 256 256">
  <title>Animal Spine 256x256px</title>
  <g>
    <path d="M58.417,197.8052a3.0018,3.0018,0,0,1-2.7373-4.2246c4.6514-10.4126,8.9551-16.5249,13.1553-18.6856,3.5341-1.8144,7.3261-2.14,12.1269-2.5522,7.9805-.6851,18.9082-1.6231,35.8975-10.4453,28.23-14.6636,47.11-5.8824,47.8994-5.501a3.0027,3.0027,0,0,1,1.3164,1.24c.123.22,12.4658,22.1787,26.2881,34.9659a3,3,0,0,1-4.0742,4.4042c-13.0547-12.0766-24.39-31.1157-26.9356-35.5371-3.6435-1.3862-19.1562-5.9707-41.7285,5.753-18.05,9.373-29.667,10.3706-38.1494,11.0986-4.3057.37-7.417.6367-9.8985,1.9111-1.3115.6744-4.956,3.566-10.4189,15.7959A3.001,3.001,0,0,1,58.417,197.8052Z"/>
    <path d="M29.4053,197.8008c-.0791,0-.1582-.0029-.2393-.0093a2.9994,2.9994,0,0,1-2.7539-3.2266c1.3594-17.2373-.5732-20.9668-.9746-21.54-3.4883-4.9946-11.4775-14.0161-14.75-17.6631a3,3,0,1,1,4.4648-4.0078c4.1573,4.6318,11.6582,13.1592,15.2012,18.2314,1.5606,2.2261,3.4727,7.2911,2.0391,25.4507A2.9992,2.9992,0,0,1,29.4053,197.8008Z"/>
    <g>
      <g>
        <path d="M30.9389,105.3135c1.2317-1.1586,5.3538-5.4472,6.6385-6.5466s3.6477.2168,2.98,1.0977-4.7121,5.7636-3.2452,6.3217,1.3682.6838.8366,2.9523.6308,5.6013-1.8786,4.74-7.9147-3.9494-8.09-4.7818C27.6441,106.5566,29.883,106.3069,30.9389,105.3135Z"/>
        <path d="M41.7523,104.4882c1.73-1.28,4.7974-6.29,6.6454-6.635s2.0395,2.335.18,4.5447-3.76,4.3717-2.51,4.8686,2.7649-.14,2.4618.902a7.5528,7.5528,0,0,0-.41,3.566c.2675,1.1313,1.9841,3.6189-1.64,3.3817-2.66-.1742-5.3162-.5638-6.7223-.79a1.0579,1.0579,0,0,1-.8873-1.1352c.0673-.8051.1463-1.9491.1358-2.7863A6.5213,6.5213,0,0,1,41.7523,104.4882Z"/>
        <path d="M49.2319,107.9219c.9206-.4217,3.0475-2.8659,4.69-6.7208s4.7423-5.6053,4.9183-4.295a14.6624,14.6624,0,0,1-1.7722,6.716c-1.12,1.9042-1.3914,4.1986-.1128,3.8348s1.132,1.5236,1.2544,3.5244,1.3852,3.6271-2.3826,3.8437-5.5454,1.6375-6.6495-.8409S48.3675,108.3178,49.2319,107.9219Z"/>
        <path d="M58.5819,108.8284a3.7924,3.7924,0,0,1,.734-2.384,29.5689,29.5689,0,0,0,3.7928-6.9606c1.0064-3.1171,2.1447-5.2515,3.482-3.6888s-1.3329,6.4259-1.2968,7.7485,1.863,1.9485,2.0291,3.3866-.53,1.4534.0581,3.7219.4136,3.1913-1.1561,3.2777-5.5112.58-6.3714.3283-1.0756-1.797-1.17-3.1936C58.64,110.4143,58.6058,109.558,58.5819,108.8284Z"/>
        <path d="M67.8953,108.1629a3.7925,3.7925,0,0,1,.7341-2.384,29.5689,29.5689,0,0,0,3.7928-6.9606c1.0063-3.1171,2.7553-5.0651,4.0926-3.5024s-1.9436,6.24-1.9074,7.5621,1.863,1.9485,2.0291,3.3866-.53,1.4534.0581,3.7219-.0648,3.2322-1.6344,3.3186-5.0329.54-5.8932.2874-1.0755-1.797-1.17-3.1936C67.9533,109.7488,67.9192,108.8925,67.8953,108.1629Z"/>
        <path d="M77.2133,107.1474a3.3657,3.3657,0,0,1,.7355-2.2482,26.9456,26.9456,0,0,0,3.8319-6.5538c1.0091-2.9392,2.7837-4.7692,4.1588-3.2848s-1.9477,5.8837-1.9029,7.1336,1.652,1.147,1.83,2.5067-.27,2.0752.3439,4.2221.2481,3.0315-1.3545,3.1038-5.4315.5015-6.3116.2582-1.1092-1.7043-1.2138-3.0244C77.2821,108.6461,77.2421,107.8368,77.2133,107.1474Z"/>
        <path d="M86.45,106.2287a2.9912,2.9912,0,0,1,.4928-2.0437,23.9489,23.9489,0,0,0,2.9318-6.0772c.6864-2.6752,2.1293-4.422,3.4525-3.204s-1.31,5.35-1.1819,6.4545,1.5446.9,1.7986,2.0915-.0926,1.8576.603,3.7163.4339,2.6683-.9807,2.8456-4.7767.828-5.5737.6747-1.103-1.4316-1.289-2.5938C86.6163,107.5516,86.5237,106.8375,86.45,106.2287Z"/>
        <path d="M94.3518,104.7626a2.6939,2.6939,0,0,1,.1844-1.8844,21.5656,21.5656,0,0,0,1.8563-5.7864c.2782-2.4717,1.3472-4.21,2.6794-3.2887s-.5,4.9356-.2484,5.9045.0418.5942,1.1947,1.8136c.7541.7976.82,1.4958,1.6724,3.0667s.72,2.3258-.52,2.66a37.0005,37.0005,0,0,1-4.8871,1.2975c-.73-.0373-1.1625-1.1391-1.4735-2.1524C94.6658,105.9217,94.494,105.2963,94.3518,104.7626Z"/>
        <path d="M101.103,102.2033a4.8438,4.8438,0,0,1,.0177-3.2873c.8792-2.3972,2.6084-6.4989,3.7421-5.21,1.5743,1.7895-1.7825,4.4646-.4558,5.8643s2.3566-.5294,3.2215,2.0475.8183,3.1752-.7083,3.7512-3.4041,1.6379-4.1929.3225A18.8533,18.8533,0,0,1,101.103,102.2033Z"/>
        <path d="M109.23,97.402l-.5354-.8989a1.4165,1.4165,0,0,1,.797-2.0776l1.3136-.4078a1.4166,1.4166,0,0,1,1.522.4629l1.6171,2.0027a1.4162,1.4162,0,0,0,1.3548.5039l.0342-.0062a1.42,1.42,0,0,1,1.6482,1.6325,3.4624,3.4624,0,0,0,.2082,2.2951,6.0217,6.0217,0,0,0,.4144.5344,1.419,1.419,0,0,1-.7482,2.3228l-1.2287.2754a1.4109,1.4109,0,0,0-.8814.6156,25.4042,25.4042,0,0,1-2.7092,3.7277c-.6976.5082-.5795-3.1-.3142-3.5774.1118-.2015-.2776-.0309-.77.1153a1.418,1.418,0,0,1-1.7992-1.1009,9.7568,9.7568,0,0,0-.9816-3.1651c-.3831-.52.0724-1,.6268-1.3513A1.4036,1.4036,0,0,0,109.23,97.402Z"/>
        <path d="M120.3664,92.1933l1.6248.0024a1.1593,1.1593,0,0,1,.8947.424l1.8739,2.2836a.3986.3986,0,0,0,.3408.1444l1.3025-.1071a.3967.3967,0,0,1,.4007.55c-.3784.8986-.9483,2.5991-.419,3.7188.4435.9381.8753,1.6966,1.1535,2.1589a.3969.3969,0,0,1-.2747.5961l-3.8972.6737a.3884.3884,0,0,0-.2445.1452c-.4776.6149-2.727,3.4239-4.2408,3.7906-1.259.3049-.5667-2.6793.08-3.8315a2.1814,2.1814,0,0,0-.51-1.8453,5.62,5.62,0,0,1-.4832-3.13,1.9871,1.9871,0,0,1,1.27-1.6364l.7627-.2926a.3985.3985,0,0,0,.1941-.5852l-.81-1.28A1.16,1.16,0,0,1,120.3664,92.1933Z"/>
        <path d="M129.2277,90.6842l1.6248-.003a1.16,1.16,0,0,1,.8961.421L133.63,93.38a.3984.3984,0,0,0,.3412.1432l1.3021-.1113a.3966.3966,0,0,1,.4025.5483c-.3754.9-.94,2.6021-.4067,3.72.4465.9366.8808,1.6938,1.16,2.1551a.3969.3969,0,0,1-.2727.597l-3.895.6864a.3889.3889,0,0,0-.244.146c-.4756.6166-2.7158,3.4328-4.2284,3.8045-1.258.3091-.5755-2.6774.0675-3.8317.1583-.2844.1182-.9736-.4332-1.8557a5.2777,5.2777,0,0,1-.5663-2.7932,2.4829,2.4829,0,0,1,1.2545-1.9637l.7617-.295a.3987.3987,0,0,0,.1922-.586l-.8139-1.2769A1.16,1.16,0,0,1,129.2277,90.6842Z"/>
        <path d="M138.3832,88.8806l1.6245.0333a1.1594,1.1594,0,0,1,.8865.4409l1.83,2.3189a.3985.3985,0,0,0,.338.1508l1.3042-.0823a.3966.3966,0,0,1,.39.5571c-.3954.8912-.9975,2.5806-.4895,3.71.4255.9463.8428,1.7129,1.1122,2.18a.3969.3969,0,0,1-.286.5908l-3.9093.5994a.3885.3885,0,0,0-.2472.1405c-.4892.6058-2.7917,3.3715-4.3121,3.7093-1.2646.281-.5157-2.6895.1528-3.8292.1647-.2808.14-.9708-.3917-1.8649a5.2778,5.2778,0,0,1-.5039-2.8052,2.4829,2.4829,0,0,1,1.2979-1.9352l.7682-.278a.3986.3986,0,0,0,.2052-.5815l-.7853-1.2947A1.16,1.16,0,0,1,138.3832,88.8806Z"/>
        <path d="M147.4049,87.3767l1.6245.0332a1.16,1.16,0,0,1,.8865.441l1.83,2.3188a.3988.3988,0,0,0,.338.1509l1.3042-.0823a.3966.3966,0,0,1,.39.5571c-.3954.8912-.9975,2.5806-.4895,3.71.4255.9463.8428,1.7129,1.1122,2.18a.3969.3969,0,0,1-.286.5908l-3.9093.5994a.3885.3885,0,0,0-.2472.1405c-.4892.6058-2.7917,3.3714-4.3121,3.7093-1.2646.281-.5157-2.6895.1528-3.8293.1647-.2807.14-.9707-.3917-1.8648a5.2778,5.2778,0,0,1-.5039-2.8052,2.4829,2.4829,0,0,1,1.2979-1.9352l.7682-.278a.3986.3986,0,0,0,.2052-.5815l-.7853-1.2947A1.16,1.16,0,0,1,147.4049,87.3767Z"/>
        <path d="M156.0711,86.33l1.6244-.0382a1.16,1.16,0,0,1,.905.4015l1.93,2.2363a.3987.3987,0,0,0,.3443.1359l1.2993-.1395a.3967.3967,0,0,1,.4144.5394c-.356.9077-.8833,2.6219-.3262,3.7281.4667.9267.9173,1.6743,1.2069,2.1294a.3969.3969,0,0,1-.26.6028l-3.8792.7706a.3881.3881,0,0,0-.2408.1512c-.4622.6267-2.6409,3.4908-4.1451,3.8951-1.251.3363-.6333-2.6643-.0155-3.8323.1522-.2877.0972-.9759-.4732-1.8458a5.2779,5.2779,0,0,1-.6267-2.78,2.4833,2.4833,0,0,1,1.2117-1.99l.7553-.3115a.3985.3985,0,0,0,.1794-.59l-.8413-1.259A1.1594,1.1594,0,0,1,156.0711,86.33Z"/>
        <path d="M165.24,84.7631l1.6244-.0381a1.159,1.159,0,0,1,.905.4015l1.93,2.2363a.3985.3985,0,0,0,.3442.1358l1.2994-.1395a.3967.3967,0,0,1,.4143.54c-.3559.9077-.8832,2.6219-.3261,3.7281.4666.9267.9173,1.6742,1.2069,2.1294a.397.397,0,0,1-.26.6028l-3.8792.77a.3888.3888,0,0,0-.2408.1513c-.4621.6267-2.6408,3.4908-4.145,3.8951-1.251.3363-.6333-2.6643-.0155-3.8323.1522-.2877.0971-.9759-.4733-1.8458a5.2788,5.2788,0,0,1-.6266-2.78,2.483,2.483,0,0,1,1.2117-1.99l.7552-.3115a.3986.3986,0,0,0,.1795-.59l-.8414-1.259A1.16,1.16,0,0,1,165.24,84.7631Z"/>
        <path d="M110.379,110.4672a1.12,1.12,0,0,0,.8064,1.0259c1.4614.4312,4.5773,1.7174,5.5576,5.0164a14.2812,14.2812,0,0,1-.3055,8.0585.8485.8485,0,0,0,.495,1.0514h0a.8447.8447,0,0,0,1.1106-.51,17.8145,17.8145,0,0,0,.7484-9.3642c-.8353-3.448-4.6527-5.4619-6.8716-6.3608a1.1183,1.1183,0,0,0-1.5409,1.0832Z"/>
        <path d="M112.2765,118.5931c-2.0591-7.405-4.3322-9.313-5.0752-9.7726a.7173.7173,0,0,0-.5667-.0882.7275.7275,0,0,0-.403,1.14,30.0488,30.0488,0,0,1,5.0752,13.5508c.49,3.4368.782,5.7464.9594,7.253a1.307,1.307,0,0,1-.4574,1.16c-.1807.1515-.3881.3362-.6259.5616a1.3348,1.3348,0,0,1-2.2474-.79c-.6138-4.9144-1.7391-10.9229-3.7933-15.2305-1.4928-3.145-2.5332-5.1074-3.2521-6.3257a1.2889,1.2889,0,0,0-1.5921-.5631,1.3821,1.3821,0,0,0-.71,2.04c1.379,2.1724,6.0387,10.0308,6.662,17.99.2415,3.0984.3675,5.5356.4259,7.4026a1.317,1.317,0,0,1-.33.9134q-.3291.3714-.66.7249a1.33,1.33,0,0,1-2.301-.8322,70.2934,70.2934,0,0,0-2.9409-17.3517c-2.0213-6.1079-3.9355-8.4881-5.1949-9.4137a1.3869,1.3869,0,0,0-2.04.5163l-.1008.2078a1.3881,1.3881,0,0,0,.2141,1.5616c1.6939,1.82,6.0953,7.4051,7.021,17.0329a84.7976,84.7976,0,0,1,.4772,12.0161,1.3186,1.3186,0,0,1-.5413,1.0069q-.4.29-.7736.5447a1.3356,1.3356,0,0,1-2.0877-1.123,65.2227,65.2227,0,0,0-.5946-10.5305c-1.5616-8.9792-7.745-18.0089-7.745-18.0089-.4219-1.1271-4.1307-1.9016-3.0792-.2393s7.6507,11.624,8.5511,23.2982c.5495,7.1432-.5043,15.8953-1.8446,19.7651a1.2936,1.2936,0,0,1-.7759.7938c-1.1886.4419-2.45.8941-3.7622,1.34a1.331,1.331,0,0,1-1.73-1.54,55.2232,55.2232,0,0,0,.0713-22.8841c-1.3539-6.5424-7.3484-21.321-7.3484-21.321-.4282-1.1208-2.96.233-1.9079,1.9017,1.0516,1.6623,6.8761,16.1072,7.77,27.7752a36.3756,36.3756,0,0,1-3.0587,17.5234,1.3087,1.3087,0,0,1-.8445.7257c-.9042.2511-1.8167.4892-2.7309.7126a1.3351,1.3351,0,0,1-1.6279-1.5669,66.9936,66.9936,0,0,0,.1015-24.0419c-1.3473-6.5431-7.0115-21.5148-7.0115-21.5148-.4233-1.1264-2.9587.2332-1.907,1.8962s6.7435,14.6986,7.6426,26.3688c.591,7.6712-2.9107,18.9544-2.9335,19.1112a1.3726,1.3726,0,0,1-1.2,1.1054c-.907.1294-2.2605.2211-3.2935.2806a1.2563,1.2563,0,0,1-1.3244-1.3781c.197-1.9864.5286-5.4448.5875-6.8.2675-6.1538-1.5105-14.73-3.3379-20.3577-2.0079-6.1833-3.433-12.9682-3.3158-17.3318l.0417-1.2777a1.3375,1.3375,0,0,0-.4661-1.0589l-.0429-.0368a1.3361,1.3361,0,0,0-2.2011.8977,41.1916,41.1916,0,0,0,.3443,6.086c.3806,4.4127,3.0319,11.2842,5.1422,22.3336a43.4185,43.4185,0,0,1-.3864,17.9935,1.2471,1.2471,0,0,1-1.31.9511c-1.7169-.1315-5.1338-.4169-6.9356-.73a1.34,1.34,0,0,1-1.1044-1.5186c.2658-1.7475.5116-3.5432.6075-4.6138a91.509,91.509,0,0,0-1.146-20.3765c-1.3223-6.36-2.2164-13.23-1.6938-17.5617l.1574-1.2594a1.3461,1.3461,0,0,0-.3652-1.1145l-.1637-.17a1.2443,1.2443,0,0,0-2.1157.636,36.977,36.977,0,0,0-.6234,6.2213c-.0315,4.4329,2.3424,11.5735,3.4128,22.7755a43.6573,43.6573,0,0,1-1.1,14.6256,1.3353,1.3353,0,0,1-1.6933.9545,29.5974,29.5974,0,0,1-8.17-4.2594,1.3241,1.3241,0,0,1-.3932-1.747c2.58-4.4627,1.945-13.2985,1.4575-23.054a66.1506,66.1506,0,0,1,.9482-15.6052,1.2373,1.2373,0,0,0-1.4572-1.4486l-.0015,0a1.3311,1.3311,0,0,0-.9951,1.0874,113.6362,113.6362,0,0,0-1.299,21.2853,54.7193,54.7193,0,0,1-1.612,14.664,1.3322,1.3322,0,0,1-2.2722.5889c-.09-.0962-.1715-.186-.2431-.2662-1.4853-1.6527-2.6741-3.0321-3.622-4.1858a1.32,1.32,0,0,1-.23-1.2546c.971-2.9464,2.3521-5.6744,2.4027-14.987a108.1612,108.1612,0,0,1,1.4065-16.7764,1.33,1.33,0,0,0-1.035-1.5553l-.1043-.022a1.2453,1.2453,0,0,0-1.5281,1.1c-.3033,3.6383-1.11,13.4267-1.3812,17.882-.3,4.9217-.1909,9.211-2.3838,11.8171-.2-.3066-.357-.57-.4823-.783a.9053.9053,0,0,0-1.3664-.2708l-.0252.0252a.9032.9032,0,0,0-.2141,1.1586c1.7191,2.928,9.2941,14.6149,23.1912,19.306,1.1271.3778,2.292.7179,3.501.9949.46.1071.9256.2078,1.3979.2959,8.74,1.6813,19.4256-.17,28.5119-2.695h.0189c.6989-.1889,1.3853-.3841,2.0653-.5856,2.7454-.8123,5.3082-1.6686,7.5814-2.4872,1.0893-.39,2.1157-.7682,3.06-1.1335,2.7517-1.0578,4.836-1.9457,5.9505-2.4431a1.1023,1.1023,0,0,0,.6045-1.3664,1.1147,1.1147,0,0,0-1.0516-.7682,1.0768,1.0768,0,0,0-.4534.1007c-.5742.2536-1.3537.5932-2.3034.9929a1.3407,1.3407,0,0,1-1.8543-1.3977c.2673-2.1365.4538-4.5331.563-6.9661l.0056-.0026a23.6259,23.6259,0,0,0,3.2806-1.9331c1.0012-.699,1.9835-1.4672,2.9406-2.2795,1.1083-.9508,2.1787-1.952,3.18-2.9532.9823-.9886,1.9016-1.9709,2.7328-2.8965,1.31-1.4609,2.3991-2.7958,3.1862-3.7907.4947-.6273.869-1.12,1.1-1.428a1.3156,1.3156,0,0,0,.2618-.8107A47.1963,47.1963,0,0,0,112.2765,118.5931Z"/>
      </g>
      <path d="M206.6744,106.4762c-3.8543-1.8566-5.3074-4.3667-6.91-6.7353-1.6022-2.3718-4.262-2.3659-8.5777-3.7437-4.3123-1.3772-7.6987-9.747-8.7278-10.1962-4.0828-1.7813-10.1408,1.3721-9.7392,5.9817.4021,4.6064,6.2536,6.4041,9.7648,6.9377,3.5117.53,6.6121,10.6111,9.6525,13.33s13.4007,3.3774,17.3055.8653S210.5319,108.3333,206.6744,106.4762Zm-2.1608,4.8031c-1.762,1.3707-5.8136.2459-8.0071-1.323-2.1909-1.5651-1.5978-3.0624-.4628-3.2338.4635-.07,1.4623.2018,4.9758.8222C204.5292,108.1678,206.2787,109.9092,204.5136,111.2793Z"/>
      <path d="M199.8831,91.167c.6419.7461,1.31.7982,3.5719,1.0576s3.9306,2.189,4.8566,1.6245,2.4448-2.748.9035-3.6749-4.5485-1.2643-6.4752-2.423-2.5385.12-2.8481,1.1988-.3881,1.8523-.0975,2.1388"/>
      <path d="M210.1457,94.6907c.4044.8973,1.0306,1.1364,3.1265,2.0254s3.15,3.212,4.1982,2.9326,3.1226-1.9436,1.9067-3.2689-4.0047-2.5-5.5246-4.1566-2.4685-.6039-3.0709.3436-.8966,1.6668-.699,2.0237"/>
      <path d="M191.271,85.5347c2.77.8482,6.5873,1.0123,7.1617,2.983s-1.8422,3.53-5.5114,4.3555-6.2846-1.65-5.7422-4.1909S189.1246,84.8775,191.271,85.5347Z"/>
    </g>
    <path d="M243.4834,142.2534c-.0957,0-.1914-.0044-.2881-.0137a3,3,0,0,1-2.7021-3.2709c.1367-1.4756,3.0117-36.4258-27.042-52.7735-23.8291-12.9624-58.2149-7.11-98.0274-.3359-12.2812,2.09-24.98,4.2505-38.1211,5.9951-57.997,7.6948-66.833-13.32-67.1806-14.2183a3,3,0,0,1,5.5752-2.2177c.1875.4023,8.6416,17.416,60.8164,10.4878,13.0312-1.73,25.6758-3.8809,37.9033-5.9615,40.9131-6.9624,76.2471-12.9751,101.9014.98,33.582,18.2666,30.1855,58.2119,30.1474,58.6133A3,3,0,0,1,243.4834,142.2534Z"/>
    <path d="M222.5244,197.8008A2.9994,2.9994,0,0,1,219.68,195.75c-.3067-.918-7.4443-22.6768-2.8311-40.0562a80.586,80.586,0,0,0,2.1631-29.5532,3,3,0,0,1,5.9278-.9267,85.13,85.13,0,0,1-2.292,32.019c-4.1475,15.6265,2.6552,36.4121,2.7246,36.62a3.0023,3.0023,0,0,1-2.8477,3.9478Z"/>
  </g>
</svg>
