<svg id="icons" xmlns="http://www.w3.org/2000/svg" viewBox="0 0 256 256">
  <title>Bone 256x256px</title>
  <path d="M192.4941,245.749a27.5438,27.5438,0,0,1-18.2646-6.8906c-.4717-.4053-.916-.8389-1.2832-1.207a27.6931,27.6931,0,0,1-7.9922-17.0977,57.8984,57.8984,0,0,0-16.65-35.7939L71.2393,107.6953A57.8978,57.8978,0,0,0,35.4482,91.0459a27.6359,27.6359,0,0,1,.4991-55.0977,27.6377,27.6377,0,0,1,55.0986-.498,57.898,57.898,0,0,0,16.65,35.79l77.0644,77.0645a57.8978,57.8978,0,0,0,35.7911,16.6494,27.6359,27.6359,0,0,1-.4991,55.0977,27.6118,27.6118,0,0,1-27.5586,25.6972ZM37.8867,41.8809a21.6369,21.6369,0,0,0-1.9131,43.1884,63.9059,63.9059,0,0,1,39.5069,18.3828l77.0664,77.0665a63.9061,63.9061,0,0,1,18.3838,39.5058,21.6883,21.6883,0,0,0,6.2578,13.3848c.3164.3154.6318.624.9814.9248a21.6262,21.6262,0,0,0,35.9492-16.2979A3.8844,3.8844,0,0,1,215.26,215.26a3.9936,3.9936,0,0,1,2.8535-1.1407,21.654,21.654,0,0,0,16.2627-7.3515h0a21.6478,21.6478,0,0,0-14.35-35.8369A63.9059,63.9059,0,0,1,180.52,152.5479L103.4531,75.4814A63.9061,63.9061,0,0,1,85.0693,35.9756a21.636,21.636,0,0,0-43.1884,1.9883,3.8968,3.8968,0,0,1-3.9942,3.917Z"/>
</svg>
