<svg id="icons" xmlns="http://www.w3.org/2000/svg" viewBox="0 0 256 256">
  <title>Clavicle 256x256px</title>
  <g>
    <path d="M178.6708,210.307c-1.1517-24.0747-3.4161-55.5517-12.5746-62.8249s-20.7488-17.101-10.4409-35.4544,30.687-11.1445,35.5347-9.8255,17.6956,1.5947,15.7389,18.4908-4.5748,61.7481-4.0761,79.6861c.3787,13.626,1.6711,32.9536,2.27,41.4583a3.9953,3.9953,0,0,1-4.0125,4.2751l-16.7308-.0918a4,4,0,0,1-3.9721-3.7827Z"/>
    <path d="M78.6692,79.5894c4.2954,5.6638,15.554,14.149,20.3707,16.0556s7.5261,11.9665,10.9128,12.4181,5.87-6.5477,5.2683-11.8912,15.9553-11.8913,24.7608-8.2787,18.3851,8.666,16.5788,14.9127-9.1644,11.0967-9.6159,18.7733,3.2726,22.8349-10.8765,31.1136S91.8917,186.45,84.6667,197.89s-15.28,31.4184-28.6761,38.4929S34.466,248.1236,26.4883,221.03s-5.5693-47.2638-4.2146-63.0686,11.44-50.7259,17.6111-59.6067S55.79,84.5566,60.4561,80.3922,73,72.1135,78.6692,79.5894Z"/>
    <path d="M152.6271,79.9394a8.1229,8.1229,0,0,1,4.7185-1.498c4.6436.01,14.407.5783,14.5251,5.1767.155,6.0358-6.399,15.9646-10.4065,13.9363s-7.77-5.94-13.0715-8.4611C144.1862,87.0925,149.0765,82.4556,152.6271,79.9394Z"/>
    <path d="M76.3065,51.7645c8.7224,4.0955,18.8654,10.3107,28.4988,13.3212s19.3671,5.0174,24.8862,5.0174,15.2529-1.5053,17.7616,5.218-4.2146,10.0348-15.3532,9.232-6.623-4.8167-19.2668-5.1177-12.7442,1.0035-14.8515-2.609S76.0053,70.99,61.4048,68.2179c-12.8155-2.4329-31.76-1.627-35.8242-9.3036S27.8385,47.023,35.59,41.4537s11.816-3.763,21.3741.9032S72.7713,50.1046,76.3065,51.7645Z"/>
    <path d="M225.6621,245.623a3.0008,3.0008,0,0,1-2.97-2.6015c-2.374-17.7129-1.9717-41.8877,1.2305-73.9082l.3935-3.8662c2.5313-24.6748,5.6807-55.3838-11.7656-83.9829C194.2275,51.2251,154.7383,44.9575,116.55,38.896c-38.918-6.1772-87.1406-22.5586-87.624-22.7236a3,3,0,0,1,1.9385-5.6783c.4785.1636,48.2255,16.38,86.6269,22.4761,39.5342,6.2749,80.4151,12.7637,100.1826,45.169,18.4981,30.3256,15.0957,63.4975,12.6114,87.7192l-.3916,3.8525c-3.1553,31.55-3.5655,55.27-1.254,72.5137a3.0009,3.0009,0,0,1-2.5751,3.3721A3.1127,3.1127,0,0,1,225.6621,245.623Z"/>
    <path d="M146.9785,246.38a3,3,0,0,1-2.9961-2.9l-1.5107-45.49a3,3,0,1,1,5.9961-.1993l1.5107,45.49a2.9984,2.9984,0,0,1-2.8984,3.0976C147.0459,246.3789,147.0127,246.38,146.9785,246.38Z"/>
    <path d="M133.94,245.624a3.0855,3.0855,0,0,1-.5859-.0576,3.0016,3.0016,0,0,1-2.36-3.5264c3.9424-19.9111,11.5313-44.78,11.6075-45.0293a3,3,0,1,1,5.7363,1.7559c-.0752.2461-7.5752,24.8311-11.457,44.4395A3.0028,3.0028,0,0,1,133.94,245.624Z"/>
  </g>
</svg>
