<svg id="icons" xmlns="http://www.w3.org/2000/svg" viewBox="0 0 256 256">
  <title>Eyes 256x256px</title>
  <g>
    <g>
      <path d="M128.004,70.6614A57.3386,57.3386,0,1,0,185.3427,128,57.4,57.4,0,0,0,128.004,70.6614Zm0,95.9119A38.5733,38.5733,0,1,1,166.5773,128,38.6195,38.6195,0,0,1,128.004,166.5733Z"/>
      <path d="M160.1612,124.74a32.3221,32.3221,0,1,1-63.9143-2.7333,4.1084,4.1084,0,0,1,5.3452-3.1216,13.55,13.55,0,0,0,17.297-17.2968,4.1084,4.1084,0,0,1,3.1215-5.3453,32.3053,32.3053,0,0,1,38.1506,28.497Z"/>
    </g>
    <path d="M128.0986,198.7637c-52.8847,0-96.9375-40.9087-113.4228-58.4966a17.6388,17.6388,0,0,1,.0517-24.1558C31.48,98.4092,76.06,57.2363,128.0986,57.2363c51.9092,0,96.4317,41.0205,113.1651,58.6568a17.5878,17.5878,0,0,1,0,24.2138C224.53,157.7432,180.0078,198.7637,128.0986,198.7637Zm0-135.5274c-49.708,0-92.7949,39.8614-109.0136,56.9991a11.6311,11.6311,0,0,0-.0313,15.9287c15.95,17.0175,58.5059,56.6,109.0449,56.6,49.5821,0,92.6133-39.7124,108.8116-56.7866a11.5872,11.5872,0,0,0,0-15.9542h0C220.7119,102.9487,177.6807,63.2363,128.0986,63.2363Z"/>
  </g>
</svg>
