<svg id="icons" xmlns="http://www.w3.org/2000/svg" viewBox="0 0 256 256">
  <title>Finger 256x256px</title>
  <g>
    <path d="M159.9033,135.4414a3,3,0,0,1-2.9975-2.918L154.0151,26.4648a10.4635,10.4635,0,0,0-20.9023-.3066L127.65,116.3428a3,3,0,0,1-5.9893-.3633L127.124,25.792a16.4637,16.4637,0,0,1,32.8887.501l2.8911,106.0664a3.0006,3.0006,0,0,1-2.9175,3.081C159.9585,135.4414,159.9307,135.4414,159.9033,135.4414Z"/>
    <path d="M106.5962,124.8711a3,3,0,0,1-3-3V111.5137a9.2216,9.2216,0,0,1,7.6177-9.09l13.9111-2.4707a3,3,0,0,1,1.0488,5.9082l-13.9111,2.4707a3.2276,3.2276,0,0,0-2.6665,3.1817v10.3574A3,3,0,0,1,106.5962,124.8711Z"/>
    <path d="M86.5049,134.0059a3,3,0,0,1-3-3V122.94a12.4236,12.4236,0,0,1,9.6929-12.0586l12.7534-2.8077a3,3,0,0,1,1.29,5.8594L94.4878,116.74a6.3875,6.3875,0,0,0-4.9829,6.1993v8.0664A3,3,0,0,1,86.5049,134.0059Z"/>
    <path d="M88.8589,246.1143a3.0012,3.0012,0,0,1-2.771-1.8487L80.436,230.6777a221.1932,221.1932,0,0,1-17.0273-85.3086v-7.1474a16.6133,16.6133,0,0,1,12.96-16.1182l9.4927-2.084a3,3,0,1,1,1.2871,5.86l-9.49,2.084a10.5744,10.5744,0,0,0-8.25,10.2578v7.1474A215.2143,215.2143,0,0,0,85.9766,228.374l5.6513,13.5869a3.0029,3.0029,0,0,1-2.769,4.1534Z"/>
    <g>
      <path d="M146.2557,169.0616c.0764,7.8293.1684,25.6778,1.4312,28.7928s3.7885,3.1992,1.768,8.25-1.6838,10.44-5.6407,10.0186-10.1869,1.2628-10.6079-4.5463-.3367-4.5462,1.0945-9.0924,2.02-22.7311,1.0945-28.0351-5.6407-10.8183-7.6613-25.4672,11.113-12.7547,13.4493-9.7239,10.4184-1.4523,8.3979,7.0719S146.146,157.82,146.2557,169.0616Z"/>
      <path d="M146.55,240.6015c-1.7679,1.7048-2.3362,4.0411-6.63,3.1571S129.4389,240.16,124.83,243.38s-12.3758,3.544-14.3964.5723-.6945-11.3064,1.9574-11.3064,4.9251,4.42,9.4082,3.4728,9.2819-5.1145,12.1232-4.4831,5.1777,3.3466,8.2085,3.2834,5.8722,3.7254,4.7357,5.5565"/>
      <path d="M108.7493,232.7508c-.2723,1.0166-2.1468,4.6936-2.3573,5.4513s-.7787,3.7675-3.8516,2.0837-6.0827-4.76-6.5457-8.7153.7156-4.1657,3.1991-3.1554,4.3779,2.2731,6.3984,1.4312S109.3808,230.3935,108.7493,232.7508Z"/>
      <path d="M158.7683,219.5752a3.8367,3.8367,0,0,1,4.1674,2.3363c.6314,1.2312.0947,3.0308-1.01,4.42s-1.8942,2.0837-3.1571,2.2416-1.7364.5051-3.5675,3.1886-7.9243,2.652-8.9346,1.5786-1.5154-5.0514-1.1681-9.1556,2.0521-7.3876,3.6938-8.5242,4.1358,1.01,5.02,1.8S156.0532,219.9541,158.7683,219.5752Z"/>
      <path d="M142.4672,222.7534c.2718,3.0291-.5262,6.7351-1.2418,7.6822s-1.305.7156-3.094-.1894-3.3886-1.9784-5.0934-1.1786-3.6707.7787-4.75-1.768-1.5638-4.7988-.7219-7.3666,3.5149-2.1889,4.8829-1.2418a2.9429,2.9429,0,0,0,3.5991.1263C137.3948,218.123,142.1725,219.47,142.4672,222.7534Z"/>
      <path d="M125.0505,220.5855a11.4647,11.4647,0,0,0,.3473,6.3773c.884,2.2416,1.4838,4.3253-1.8,5.6828s-12.66-1.8311-13.26-4.1989.0316-3.0135.9156-3.9377a4.4093,4.4093,0,0,0,1.0418-3.6078c-.1263-1.4523.9156-5.2092,3.5991-5.1461s2.7151,1.3576,4.6409,1.0419S125.7135,216.8917,125.0505,220.5855Z"/>
      <path d="M108.6967,213.7977c2.7558,1.9028,2.5257,3.9148,1.9258,6.1248s-2.4309,2.1153-3.2518,3.7569-1.1365,4.2937-3.3465,3.757-3.5359-.9471-3.7569-4.1358-.2842-1.768,1.7048-3.9464.8208-2.7467,1.8-4.9882S107.3707,212.8822,108.6967,213.7977Z"/>
      <path d="M101.3407,210.63c.6659,2.22.8,3.2413-1.0734,4.7567s-3.01,3.3465-2.7783,5.1987,1.1366,3.9779-.3578,4.2305a4.48,4.48,0,0,1-4.2358-1.8785c-.9155-1.3733-3.3939-4.8461-3.1729-8.0664s2.1469-3.1886,3.6623-2.9045,2.8414.0947,3.5044-.9787.8208-1.689,1.8784-1.9732S100.8355,208.9463,101.3407,210.63Z"/>
      <path d="M159.7613,178.8547c.0471,6.3357.3345,15.7162-3.7565,20.7958s-9.0139,11.5615-5.9427,14.7005,6.9475.6674,8.109,1.9068,6.892,6.2772,8.1705-3.282.6148-12.1939,1.9828-18.1381,4.012-7.4235,6.5246-9.63,1.5683-7.6081-2.3886-7.3316-3.69.5412-5.9741-1.707S159.7121,172.2274,159.7613,178.8547Z"/>
      <path d="M133.76,154.2411c-3.3582-.9314-6.5768-3.676-4.3885-5.8166s4.8017-.2962,8.2967-1.9122,6.3688-2.9032,8.8726-.2055.8419,7.6-.1813,8.937-2.3,1.8825-5.2424.4359C137.955,154.1254,136.775,155.0774,133.76,154.2411Z"/>
      <path d="M148.1078,91.1023c-1.2522,4.6333-3.7043,14.06-1.6,23.32s4.7147,19.1952,3.1151,22.31-5.9775,1.8522-7.0719-.5893-4.0411-.421-5.8933-.5893-6.9877-.1684-4.883-12.2917,4.2937-24.5833,3.8727-29.3821-3.2834-10.0185.6735-10.9446,6.0617,1.4313,7.4929.5894S151.4754,78.6423,148.1078,91.1023Z"/>
      <path d="M135.5636,62.6042c-1.2,5.8722-3.5359,11.05-2.21,15.0909s3.8516,2.5889,5.8722,1.5155,4.1042.1737,6.3142,1.16,5.1776,1.3022,5.367-1.0341-2.3362-6.8193-2.9045-12.8178-.0631-10.9236,1.2629-13.7649-2.652-1.8943-4.9251-1.3892-4.4831-3.0308-6.5037-2.0837-.5682,4.4831-1.01,6.5668S135.5636,62.6042,135.5636,62.6042Z"/>
      <path d="M138.9312,30.3176c.3368,3.536-1.1786,10.2711-1.0945,12.7126s1.8522,5.8932,5.1356,5.5565,7.8717,0,5.7249-4.7357-.19-10.5447-2.0837-13.8281-2.4195-3.0729-3.0725-3.2413-2.2946-1.8521-3.8521-.8418-.3847,3.5365-.5472,4.462"/>
      <path d="M122.5143,158.7905c.046,12.2927,3.6328,26.6038,5.7733,33.5074s4.4978,10.1027,3.4875,12.2074a14.6073,14.6073,0,0,0-1.1786,6.9036c.0842,2.4414,0,4.1486-5.1356,3.9264s-8.5873-3.2529-9.0082-8.3043,1.6837-9.0083,0-17.09-2.2732-14.7332-5.5565-25.2568-5.5565-19.532-1.6838-22.226,13.47-3.62,13.3019,1.4312S122.5067,156.7734,122.5143,158.7905Z"/>
      <path d="M123.8508,128.2719a10.4794,10.4794,0,0,1-.9471,2.8414c-.4736,1.0734.663,4.4515-.5683,5.7775s-1.5154,1.6732-4.2937.7261a5.9611,5.9611,0,0,0-5.4933.5364c-1.105.6317-4.7988,2.084-4.2305-1.7045s3.9148-5.5881,5.7143-6.3458,3.5044-3.4412,4.2937-4.4515S124.04,122.4944,123.8508,128.2719Z"/>
      <path d="M96.163,172.5134c2.8324,11.71,4.6725,20.4159,4.7988,25.4673s.5052,10.9346,3.978,10.9291,3.8516,3.53,6.8193,2.1412,3.7254-4.1673.7577-10.5447-7.5139-19.7-7.83-26.267-1.148-7.9559.5941-13.7019-.6572-10.7972-5.3929-10.4815-9.5976.7577-8.65,6.5036S95.3955,169.34,96.163,172.5134Z"/>
      <path d="M100.7724,133.0707c-1.4084,2.2194-3.6622,5.6828-4.9251,6.8193s-4.3568,7.0088,0,7.1982,6.5668.442,7.3876,0,2.1469-2.5888,1.7049-6.2511,1.4522-4.1673,1.4522-7.0087S103.6012,128.6129,100.7724,133.0707Z"/>
      <path d="M92.88,183.2054a91.3669,91.3669,0,0,0,6.8194,17.7429c.9471,1.6417.2525,3.6623-2.0837,6.1248s-4.7216,2.5257-6.4966-.3157-1.8381-11.6181-3.8587-18.0586-8.7136-12.7547-9.0293-17.0484,1.3891-5.367,2.9045-7.577-1.01-4.8619,3.7254-4.3568,5.1145,5.3671,5.43,8.461S92.1851,180.5052,92.88,183.2054Z"/>
      <path d="M86.1024,142.9208c-1.3856,2.0521-3.4518,5.7249-4.5462,6.3142s-5.5065,3.4939-3.3636,6.7773,3.3636.9261,5.09.6735,2.231.6314,3.9148.463,2.35-1.1786,1.9538-4.2936.1229-4.42,1.968-7.0719,1.1295-6.3984-1.1857-5.7249A6.2538,6.2538,0,0,0,86.1024,142.9208Z"/>
      <path d="M161.6522,150.8008a61.4277,61.4277,0,0,0,10.468,10.5981c4.2911,3.5217,6.7418,4.8265,2.8243,10.5275s-7.9068,3.7018-10.177.0765-1.4647-6.687-7.9881-8.9518-11.1116-3.6774-5.3187-11.7671S160.6878,149.5028,161.6522,150.8008Z"/>
    </g>
    <path d="M167.3662,246.1143a3.0026,3.0026,0,0,1-2.75-4.1973A268.9421,268.9421,0,0,0,186.12,155.79l.439-5.5224a10.4806,10.4806,0,0,0-4.6338-9.5459l-23.9673-15.9649a3,3,0,0,1,3.3262-4.9941l23.9673,15.9648a16.4867,16.4867,0,0,1,7.289,15.0147l-.4389,5.5224a274.9616,274.9616,0,0,1-21.982,88.045A3.0011,3.0011,0,0,1,167.3662,246.1143Z"/>
  </g>
</svg>
