<svg id="icons" xmlns="http://www.w3.org/2000/svg" viewBox="0 0 256 256">
  <title>Foot 256x256px</title>
  <g>
    <g>
      <path d="M161.282,13.05c.2463,14.1924,1.5671,73.9116,6.5983,93.805a5.0885,5.0885,0,0,0,4.9419,3.8359h.1157a5.2738,5.2738,0,0,0,5.2891-5.2693V13a3,3,0,0,0-3-3H164.2816A2.9981,2.9981,0,0,0,161.282,13.05Z"/>
      <path d="M208.83,159.9892c-8.4113,12.1352-24.3133,15.7094-35.5068,7.9617s-13.4623-23.8852-5.0512-36.0418a28.499,28.499,0,0,1,7.2157-7.2444,26.5027,26.5027,0,0,0,11.1478-21.8654V13a3,3,0,0,1,3-3h14.3325a3,3,0,0,1,3,3V118a27.6052,27.6052,0,0,0,3.753,13.5671C215.4317,139.8932,215.0279,151.0275,208.83,159.9892Z"/>
      <path d="M153.3539,152.7174c3.1158,5.3362,8.3226,13.0533,15.2225,19.0331a5.046,5.046,0,0,1,.21,7.3389l-15.8852,16.0915a5.07,5.07,0,0,1-7.3554-.1243c-4.7187-5.1477-12.772-14.21-16.2831-19.8037a5.0845,5.0845,0,0,1,.5086-6.0957l15.388-17.2753A5.0843,5.0843,0,0,1,153.3539,152.7174Z"/>
      <path d="M159.235,199.0583a4.5286,4.5286,0,0,0,1.0181,6.1451c7.764,5.8759,26.7446,20.36,33.2254,26.3942,8.2267,7.6593,32.9067,7.0919,37.7292-5.39s6.2409-15.0349,1.7021-26.6657-8.2267-33.474-19.7629-27.4222-25.72,4.9171-30.4481,4.9171-7.1865,2.6476-12.86,8.3212C166.1773,189.02,161.8464,195.1619,159.235,199.0583Z"/>
      <path d="M129.5281,198.079,120.18,208.4029a4.1834,4.1834,0,0,0,.2375,5.8579l18.414,17.2885a4.1835,4.1835,0,0,0,2.8635,1.1335H166.07a4.1818,4.1818,0,0,0,2.612-7.4512c-10.2952-8.2052-26.269-21.0769-33.2413-27.44A4.1712,4.1712,0,0,0,129.5281,198.079Z"/>
      <path d="M103.7244,193.1107l3.9094,8.47a4.7951,4.7951,0,0,0,7.5349,1.5785L126.78,192.8651a4.795,4.795,0,0,0,.963-6l-3.3357-5.7306a4.795,4.795,0,0,0-6.6709-1.6631l-12.1851,7.5547A4.7952,4.7952,0,0,0,103.7244,193.1107Z"/>
      <path d="M44.337,218.35l5.3041,8.4578a5.0413,5.0413,0,0,0,7.7771.9642c5.9488-5.748,16.77-14.5582,24.4177-11.2806,11.06,4.74,22.2779,4.108,22.2779-11.3759s-20.54-13.5806-26.3859-10.1873c-4.37,2.5362-22.5084,11.7386-31.3925,16.2254A5.0515,5.0515,0,0,0,44.337,218.35Z"/>
      <path d="M38.26,220.7315l4.9357,7.1554a5.5107,5.5107,0,0,1-.9114,7.28h0a5.5111,5.5111,0,0,1-3.8607,1.3549L26.62,236.0158a5.5106,5.5106,0,0,1-3.5975-9.4645l6.8675-6.65A5.5106,5.5106,0,0,1,38.26,220.7315Z"/>
    </g>
    <path d="M223.0059,245.8965c-14.7847,0-158.5611-1.1494-202.2749-1.501A11.2217,11.2217,0,0,1,9.6289,232.1563c.5488-5.8418,1.8936-10.1192,3.9971-12.7159,6.3994-7.8965,35.4155-27.0068,71.1421-40.9052,37.5971-14.626,52.3374-46.1514,57.1811-56.5113,7.103-15.1909,2.9317-77.688-.2661-108.6118a3,3,0,0,1,5.9678-.6172c.3847,3.7178,9.3086,91.292-.2661,111.77-5.0962,10.899-20.6031,44.064-60.4414,59.5621-35.9556,13.9873-63.396,32.6-68.6558,39.0908-.7573.9345-2.1133,3.4121-2.6851,9.499a5.111,5.111,0,0,0,1.3155,3.9443,5.2018,5.2018,0,0,0,3.8618,1.7344c43.7075.3525,187.4639,1.501,202.2261,1.501,5.7485,0,9.872-1.4531,12.6064-4.4424,4.1455-4.5322,5.5864-13.17,4.4043-26.4072-.8262-9.2578-4.0415-20.8877-7.4453-33.1992-4.5264-16.3721-9.6567-34.9278-10.5615-52.7935-1.5572-30.7554,1.3413-109.2729,1.3706-110.0625a3,3,0,0,1,5.9961.2236c-.0293.7871-2.918,79.0425-1.3745,109.5352.8715,17.2065,5.9082,35.4243,10.352,51.4985,3.4785,12.5811,6.7642,24.4649,7.6392,34.2647,1.3584,15.2168-.5332,25.0634-5.9536,30.99C236.1592,243.7461,230.4287,245.8965,223.0059,245.8965Z"/>
  </g>
</svg>
