<svg id="icons" xmlns="http://www.w3.org/2000/svg" viewBox="0 0 256 256">
  <title>Hand 256x256px</title>
  <g>
    <g>
      <path d="M149.9,229.64c-2.07-.15-3.7-2.37-8.45-3.11-4.74-.74-9.19-6.23-13.75-6.9-4.2068-.6051-7.75,12.2215-4.6692,24.817A2.0171,2.0171,0,0,0,124.9827,246h30.88a2.004,2.004,0,0,0,1.9993-1.9513,26.1838,26.1838,0,0,1,.3484-4.1787C160.28,226.82,151.98,229.79,149.9,229.64Z"/>
      <path d="M174.96,222.67c-2.74-2.59-6.89,1.78-11.56,3.26-4.67,1.49-5.13,7.58-2.08,14.09a12.93,12.93,0,0,1,.8774,4.2022A2.0074,2.0074,0,0,0,164.1843,246h10.6372a2.0019,2.0019,0,0,0,2-2,50.6617,50.6617,0,0,1,.5086-9.02C178.96,226.67,177.7,225.27,174.96,222.67Z"/>
      <path d="M126.3667,214.1837c2.7231,1.2814,6.8386,5.8018,11.3422,7.6823s10.8973,4.3825,11.7313,4.5493,2.7242-2.4464.6671-6.1159-5.3931-3.6139-7.061-5.2818-1.112-5.7822-3.1691-6.95-7.3945-2.0015-9.563-.5S122.5861,212.4045,126.3667,214.1837Z"/>
      <path d="M128.8131,201.7852c-1.1676-3.7807-1.4455-9.5629-2.4464-10.9529s-2.7242-1.6679-4.8369,3.7251c-1.2628,3.2234-5.6712,6.06-7.0055,7.0054s-.9452,3.3915,1.39,4.2255,3.8362,1.89,3.8362,4.0031.89,4.1142,4.0032.8339S129.9807,205.5659,128.8131,201.7852Z"/>
      <path d="M154.3513,225.2292c1.4827.037,9.044-.6846,12.5652-3.3632s2.7058-5.9773-.1853-7.497-9.6-2.7059-11.2679-1.9275-4.8927,3.7437-4.67,5.4487C151.0769,220.0671,152.8687,225.1921,154.3513,225.2292Z"/>
      <path d="M133.8169,204.3427c1.4456.8062,6.3938,1.64,7.3113,1.251s.2224-8.2286,0-10.87-1.7792-5.671-6.8386-4.6146c-4.211.8791-5.4488,2.4462-4.6425,5.56S132.3713,203.5366,133.8169,204.3427Z"/>
      <path d="M149.6069,189.0161c-6.5981,0-8.3027,2.4463-6.4494,6.1529s.593,7.5613-.1482,10.156,1.6308,10.23,4.8926,9.3405,4.5961-3.1877,6.7459-4.2255,3.04-2.7429,1.112-6.5236.6422-7.1165,1.0625-9.4887S155.5374,189.0161,149.6069,189.0161Z"/>
      <path d="M167.12,190.1651c-3.6139,1.1676-6.407-.0555-7.7348,2.3351-2.0121,3.623-1.9208,7.1908-1.55,10.9715s.519,5.8564,3.1877,6.7459,4.3738,2.5946,6.3753-3.0394,5.2632-9.34,5.1892-12.3058S170.7343,188.9976,167.12,190.1651Z"/>
      <path d="M181.7057,196.0585c-2.15-1.3343-4.9668-.9637-6.0047.2966a21.2114,21.2114,0,0,0-3.1121,6.0787c-1.7034,4.4664-5.3388,7.5144-4.5974,9.7619s3.1135,2.5387,3.7806,4.3946.9637,4.3022,3.9289.8922,4.2255-9.2664,4.67-12.1575S183.8555,197.3929,181.7057,196.0585Z"/>
      <path d="M90.2543,176.9327c4.12,2.1128,12.1483,9.0575,15.9513,14.678,3.1014,4.5835,5.2819,9.6741,8.6623,7.5614s4.4369-6.5606,5.3877-7.5614,4.4368-4.4479,0-5.1151-12.0428-2.8911-16.48-9.8965-4.12-12.2316-8.4509-14.0108a8.1491,8.1491,0,0,0-10.4583,4.2255C83.1765,170.4833,86.1343,174.82,90.2543,176.9327Z"/>
      <path d="M68.5609,151.105c4.5336,4.7861,6.8687,9.6256,8.9562,11.5928s3.3833,3.3725,5.5974.4216,2.416-3.9345,4.7056-4.2858,4.4443-4.5669,0-5.1993-10.101-2.2483-13.3333-8.01-.3367-9.3446-3.771-9.8364-8.8215,5.7613-8.6867,8.22S65.4644,147.8359,68.5609,151.105Z"/>
      <path d="M55.0472,131.36c-6.2921.1737-5.8278-1.9981-9.3348-3.1448s-6.1374.834-6.1374,2.7626.4642,3.2317,4.7448,4.0656,9.2146,5.8031,11.4151,6.4981,3.06-1.39,4.7448-3.2664,2.51-3.5444,1.1347-5.4556S58.4849,131.265,55.0472,131.36Z"/>
      <path d="M116.915,122.4112c-7.2277,3.0343-5.4487,10.1866-2.0014,12.5707s5.1045,10.7518,5.56,13.0043c2.1035,10.4052,4.1142,20.9151,4.7815,24.6s-2.0125,9.7532-.1724,13.4377,8.0673,4.5515,11.292.7586,1.8145-5.6352-.8718-10.5118-4.075-19.6147-6.4386-28.2842-2.8085-8.6695-1.8078-16.58S124.1428,119.3768,116.915,122.4112Z"/>
      <path d="M144.6506,119.9264c-8.2158,1.1531-4.6844,8.6483-2.0178,12.9s1.1006,11.9662.8648,21.909c-.1045,4.4074.05,8.4214.0788,14.92.0277,6.3034-4.0349,5.9986-3.6824,11.3473.2217,3.3607,1.73,6.3085,7.7173,6.3085s4.4624-5.2611,5.0391-8.6483-1.6576-7.0628-1.6576-10.5942.9369-25.008.9369-31.9266,3.8917-7.8556,3.7475-10.7384S152.8666,118.7733,144.6506,119.9264Z"/>
      <path d="M155.3337,176.82c-2.3481,6.9713-1.3941,9.3929,3.0822,10.4936s6.8246-1.6143,6.6844-6.6778a90.3628,90.3628,0,0,1,1.8279-20.914,91.6428,91.6428,0,0,1,5.8706-18.7125c2.1282-4.9166,3.1555-11.3009,0-12.6217s-6.0907-.0734-8.5857,0-4.4763,3.5957-2.1281,9.0994,1.7107,9.03,0,16.0707C160.177,161.41,157.6821,169.8485,155.3337,176.82Z"/>
      <path d="M174.2185,173.671c-1.26,3.1876-5.8564,4.003-6.82,6.5235s-2.8911,4.79,1.705,7.3618,6.9684,4.5448,9.34,0,1.7051-8.4738,3.2619-13.8853a203.8527,203.8527,0,0,1,8.5992-22.6842c2.4463-5.0409,4.522-10.8973-.593-13.4919s-8.4509,3.1877-7.7838,7.4873a21.1435,21.1435,0,0,1-.7413,10.0447C179.0591,160.915,175.4788,170.4833,174.2185,173.671Z"/>
      <path d="M113.9583,120.7784a14.3749,14.3749,0,0,1,8.7531-2.3109c3.011.14.56-3.9914-2.9411-8.9632s-5.462-11.9743-6.4423-19.537-3.5713-8.1229-7.7028-7.4928-4.2885,5.1211-3.8513,6.7225c1.1828,4.3324,4.4115,7.3526,5.9871,14.2851s2.0658,7.4227,1.8557,12.0444S110.8772,122.6691,113.9583,120.7784Z"/>
      <path d="M97.6826,75.3393c.4885,4.913.14,7.2291,3.3506,5.334s3.0017-2.5266,6.1428-2.2459,3.0714-2.3161.3491-7.229-3.3507-6.9483-3.2808-11.3-2.7224-4.8428-5.6542-4.2814-3.9092,5.685-1.6055,9.6856C98.4888,67.9153,97.194,70.4263,97.6826,75.3393Z"/>
      <path d="M94.7109,53.153c.9081,1.2169,4.151-.5477,4.9294-.5477s4.6514.3042,2.9742-2.86-2.65-2.7381-2.3905-6.8757-1.4918-4.2593-3.7618-3.3466-2.58,1.7117-1.8809,3.7269a13.4048,13.4048,0,0,1,.6809,4.0615Q93.3458,51.3276,94.7109,53.153Z"/>
      <path d="M147.4774,69.22c-4.9912-1.6309-5.37.4448-6.2547.7413s-3.475.89-1.9587,6.7459a42.616,42.616,0,0,1,1.6427,10.8973c.4313,6.5191,1.4532,17.3468.6319,20.09s-2.3378,4.5961-1.706,7.2648,1.0109,3.7066,3.7908,2.0757,6.5707-.2965,7.7711-.2965,3.9173-3.7066,1.39-6.82-2.9063-6.7459-3.0958-14.53-.9477-14.0108-.3159-17.1985S152.4686,70.851,147.4774,69.22Z"/>
      <path d="M138.2913,62.9005c-.9709,2.335.4087,4.5034,1.38,4.67s3.8832-1.112,5.3138-.6116,6.0293.834,5.0584-3.2247-2.35-5.7266-2.708-10.8417a25.197,25.197,0,0,1,.92-9.2849c.4089-1.8348-.7663-4.9483-5.2627-4.5035s-4.4453,2.3352-3.832,4.7815.5488,6.6671.5109,9.0069C139.5924,57.729,139.262,60.5653,138.2913,62.9005Z"/>
      <path d="M141.7972,37.1213c1.35-.4818,2.141-.2965,4.3478.8155s2.1738-3.6325.9551-5.1151-1.3689-2.753-1.5569-4.8556c-.1809-2.0205.9641-3.2988.8982-6.0788s-3.2278-3.1505-5.303-1.8532-.79,3.7807,0,6.3753-.23,4.7443-1.7456,7.5243S140.4468,37.6031,141.7972,37.1213Z"/>
      <path d="M165.3228,116.071c-1.5569,3.1877-3.929,2.8911-2.743,6.3753s2.5946,4.7444,5.7823,3.5583,5.115,1.9069,7.6355.4345,3.1877-1.7458,1.1861-6.7982.4447-11.65,1.5568-17.8031.8895-12.8247,2.0757-14.6039.8895-6.5235-3.1878-6.82-6.7458-.6672-6.5976,3.1877a59.23,59.23,0,0,1-1.1861,14.8262C168.3168,105.4766,166.8794,112.8834,165.3228,116.071Z"/>
      <path d="M173.4179,74.1242c-1.0807,1.8158-1.4566,3.0608.8927,3.6834s3.5709-.2594,5.1214.9856,3.8527,1.66,3.5709-4.669.4228-12.347,1.55-14.8891.6108-5.6029-3.5239-6.1736-5.7791,2.9571-4.6985,5.24.3123,4.6931-.0469,6.5885C175.4119,69.4908,174.4985,72.3085,173.4179,74.1242Z"/>
      <path d="M179.4963,50.29c2.0569-.2537,3.6038,1.2308,4.96,1.581s1.4441-2.7108.4666-4.9791-1.073-2.8353-.4438-5.8458,1.3-4.343.3818-6.7172a3.1786,3.1786,0,0,0-2.3436-2.5079c-1.9946-.41-4.3083,3.1122-2.9367,6.9927s-1.1226,5.6305-2.0415,7.4978S177.44,50.5437,179.4963,50.29Z"/>
      <path d="M201.4128,109.2513c-.299,3.6045-1.5119,5.5013-4.0988,9.6219-2.7007,4.3018-5.378,7.231-7.8975,8.5721s-4.9172,3.2993-3.4485,5.8651,4.0257,1.5108,5.6256,3.3,2.167,3.538,3.984,2.5013,1.1138-5.4067,2.413-8.19,5.5316-12.0659,7.0723-13.5593,4.7419-1.47,4.7059-6.48-3.8695-4.0577-4.8508-4.1545S201.7119,105.6467,201.4128,109.2513Z"/>
      <path d="M212.0134,89.4365c-.5993,2.0512-.17,2.6884-.75,4.5927-.7656,2.5152-4.0165,5.7065-5.0206,6.7685s-2.5936,2.943-.8185,3.443,2.8721.0732,4.048,1.939,2.18,1.0283,2.8907-2.2794,1.4947-6.045,2.777-7.63,3.0558-5.7232,1.7251-7.0985S212.613,87.3853,212.0134,89.4365Z"/>
      <path d="M219.4677,73.0109c-1.726-.29-2.4925,1.11-2.4125,3.9094A7.6374,7.6374,0,0,1,214.57,82.712c-1.7261,1.6893-2.1459,2.3167-.8864,3.1372s2.799.29,3.9186,1.11,1.6327-.1931,1.3529-3.9577,1.5859-5.6469,2.2858-6.9984S221.1936,73.3,219.4677,73.0109Z"/>
    </g>
    <path d="M114.7969,246.1162a3.0005,3.0005,0,0,1-2.9766-2.6582c-1.8037-15.7451-4.6709-26.8525-8.292-32.1221a155.4044,155.4044,0,0,0-18.71-22.6445c-1.9517-2.0371-3.97-4.1426-6.1426-6.5215a89.0916,89.0916,0,0,1-9.0938-12.2724c-3.5634-5.4737-6.9292-10.6446-13.2011-16.1582-9.5015-8.3682-16.49-10.5069-22.1055-12.2266-.7754-.2373-1.5161-.4639-2.2236-.6943-3.794-1.2344-6.0874-5.01-5.8413-9.6182a11.5294,11.5294,0,0,1,9.0122-10.91c8.9438-1.8838,25.976-2.2744,36.24,4.378a97.2583,97.2583,0,0,1,12.36,9.9809c3.4174,3.0986,6.645,6.0264,8.6289,6.5606a8.14,8.14,0,0,0,6.6538-.6885c1.541-1.0762,2.4448-3.0322,2.687-5.8154.7773-9.0362.8892-19.5733-4.1753-29.1924C92.3857,95.57,89.4023,78.311,87.6133,66.1943c-.1992-1.35-.417-2.7026-.6362-4.0688-1.1709-7.2925-2.3824-14.8335-1.4312-24.2412A11.2612,11.2612,0,0,1,97.0806,27.5049H97.12a12.6874,12.6874,0,0,1,12.687,11.7573,152.5019,152.5019,0,0,0,7.917,35.7769c1.3325,3.9672,2.3892,7.1889,3.27,9.8764,2.2793,6.95,3.32,10.1216,4.9038,13.3789,2.38,4.9043,3.1451,4.5855,4.2061,4.1436,1.4541-.6089,1.8867-1.1372,1.3066-8.1753-.5649-6.729-1.7407-32.2285-1.56-49.0088.1938-18.0552.2661-24.811,2.1548-28.4653a12.4724,12.4724,0,0,1,11.9106-6.9019c6.4292.12,10.9209,4.896,12.0161,12.7764C156.89,29.56,157.6138,49.9,157.74,56.8315c.0625,3.6739.3194,11.4454.5674,18.961.2691,8.1509.5235,15.85.5235,18.084,0,1.3764,0,4.2309.4917,4.8305.0058-.0078.1269.023.3784.023.0356,0,.0742-.0005.1152-.002,1.105-.0385,1.584-.6689,2.24-7.2016.5966-5.8487,3.5312-25.9419,5.227-37.3994.311-2.087.5464-3.73.7505-5.1529.689-4.8135,1.0351-7.229,2.7353-15.7451a12.73,12.73,0,0,1,13.2193-10.69c4.6909.33,10.3413,3.77,10.8276,12.3779.5225,9.2559-.4814,18.293-1.3677,26.2661-.3725,3.3521-.7241,6.5186-.914,9.3257-.63,9.4663-4.7075,30.3784-6.2915,35.8516-.6778,2.3212-.3867,3.7612-.0449,4.125.1362.1455.6274.2128,1.4116.0346,2.7964-.6382,8.4643-7.3115,13.876-18.83,1.7343-3.6987,3.3193-7.896,4.8515-11.955,3.4585-9.1607,5.4033-14.0127,8.4136-15.5582,2.9892-1.5395,7.5224-2.0986,10.9018.127,2.1163,1.394,4.5455,4.3926,4.1011,10.7612-.5019,7.3042-3.7676,16.1587-6.9258,24.7217-1.6259,4.4077-3.1611,8.5713-4.289,12.4053-1.4375,4.894-4.3418,10.1743-7.4165,15.7646-4.3394,7.89-8.8267,16.0479-9.022,22.9746-.354,12.5118-4.1436,36.1114-7.7041,52.9551-1.3843,6.5586-2.2642,20.1387-2.5454,39.2735a3,3,0,1,1-5.999-.0879c.2905-19.794,1.19-33.3955,2.6738-40.4248,3.4194-16.1768,7.2368-39.8584,7.5767-51.8858.2368-8.3769,5.0795-17.1816,9.7626-25.6963,2.9126-5.2959,5.6641-10.2973,6.9175-14.5649,1.1846-4.0288,2.7544-8.2842,4.416-12.79,3.0118-8.1665,6.126-16.6108,6.5694-23.06.11-1.5742.0718-4.356-1.416-5.336-1.3164-.8681-3.6153-.4179-4.8008.17-1.3423,1.0908-3.8013,7.6045-5.6006,12.37-1.5728,4.166-3.1992,8.4736-5.0332,12.3852-2.8535,6.0733-10.3154,20.3824-17.9785,22.1314-3.9077.8867-6.1323-.7334-7.1123-1.7759-2.0552-2.1865-2.5454-5.7983-1.3452-9.91,1.3681-4.7265,5.4492-25.3012,6.0669-34.5786.1987-2.9394.5571-6.1679.937-9.5869.86-7.7387,1.8349-16.51,1.3408-25.2646-.2261-3.9991-2.1919-6.5152-5.2588-6.7315-2.8149-.1968-6.0908,1.7588-6.9141,5.88-1.6679,8.3545-1.9853,10.5689-2.68,15.4209-.2051,1.4321-.4419,3.0859-.7544,5.1841-1.3589,9.1807-4.5865,31.1821-5.1929,37.1221-.5811,5.7905-1.2407,12.3593-8,12.5932a6.3729,6.3729,0,0,1-4.8657-1.6948c-2.3281-2.2485-2.3281-5.9165-2.3281-9.1528,0-2.1353-.2647-10.1421-.52-17.8858-.249-7.54-.5068-15.3354-.57-19.0537-.1528-8.3686-.8891-27.2368-1.7519-33.4482-.4756-3.4248-1.9351-7.524-6.1846-7.6031-3.1006-.0644-5.1538,1.1036-6.4668,3.6539-1.2363,2.392-1.3306,11.1948-1.4868,25.7788-.1787,16.604.9814,41.8,1.539,48.4467.5191,6.2925.9668,11.7227-4.9707,14.208-7.0586,2.9512-10.3408-3.8085-11.9174-7.0566-1.7618-3.6221-2.9136-7.1343-5.2085-14.1309-.8775-2.6767-1.93-5.8852-3.2564-9.8344a158.1591,158.1591,0,0,1-8.2026-37.1182,6.62,6.62,0,0,0-6.732-6.3281H97.082a5.257,5.257,0,0,0-5.5664,4.9824c-.872,8.6279.2754,15.7749,1.3858,22.687.2231,1.3911.4443,2.7691.6474,4.1441.9937,6.73,4.0181,27.2133,9.3775,37.4013,5.7861,10.99,5.6953,22.5977,4.8432,32.503-.5024,5.7793-3.1211,8.7461-5.2295,10.2177a13.9315,13.9315,0,0,1-11.6547,1.5616c-3.376-.9092-6.7818-3.9981-11.0933-7.9082A92.5794,92.5794,0,0,0,68.2,129.7031c-8.68-5.624-24.0762-5.1572-31.74-3.5415a5.5961,5.5961,0,0,0-4.2583,5.3589c-.0733,1.377.33,3.1445,1.7075,3.5928.6767.22,1.3833.4365,2.1226.6631,5.8417,1.7881,13.8417,4.2373,24.3125,13.459C67.2319,155.29,70.9824,161.0518,74.61,166.624a83.1159,83.1159,0,0,0,8.4936,11.4971c2.1265,2.3281,4.1192,4.4082,6.0464,6.42a162.2761,162.2761,0,0,1,19.3262,23.4c4.2314,6.1582,7.3633,17.8789,9.3052,34.833a3,3,0,0,1-2.6392,3.3223A2.9338,2.9338,0,0,1,114.7969,246.1162Z"/>
  </g>
</svg>
