<svg id="icons" xmlns="http://www.w3.org/2000/svg" viewBox="0 0 256 256">
  <title>Head with Neck 256x256px</title>
  <g>
    <g>
      <path d="M140.62,195.5191a4.5778,4.5778,0,0,1-2.65,1.9629c-.01,0-.01,0-.01.01l-.13.0286a35.2684,35.2684,0,0,1-19.35,0,4.5946,4.5946,0,0,1-2.85-2.306,3.9968,3.9968,0,0,1-.1-3.3636l.44-1.0195a7.686,7.686,0,0,0,0-6.06,3.9733,3.9733,0,0,1,.66-4.2022,4.8963,4.8963,0,0,1,4.57-1.5912l2.13.362a28.8351,28.8351,0,0,0,9.66,0l2.4-.41a4.954,4.954,0,0,1,4.43,1.4389,4.0128,4.0128,0,0,1,.93,4.0019l-.36,1.1054a7.6878,7.6878,0,0,0,0,4.65l.66,2.0486A3.9946,3.9946,0,0,1,140.62,195.5191Z"/>
      <path d="M140.62,219.0808a4.659,4.659,0,0,1-2.65,1.9629h-.01l-.13.0382a35.1486,35.1486,0,0,1-19.35-.01,4.5639,4.5639,0,0,1-2.85-2.3059,3.9754,3.9754,0,0,1-.1-3.3541l.44-1.0291a7.6626,7.6626,0,0,0,0-6.0506,3.9925,3.9925,0,0,1,.66-4.2117,4.9047,4.9047,0,0,1,4.57-1.5913l2.13.3621a28.5887,28.5887,0,0,0,9.66,0l2.4-.4a4.9573,4.9573,0,0,1,4.43,1.4293,4.0346,4.0346,0,0,1,.93,4.0115l-.36,1.1054a7.6568,7.6568,0,0,0,0,4.64l.66,2.0486A4.0162,4.0162,0,0,1,140.62,219.0808Z"/>
      <path d="M140.62,242.2815a4.5778,4.5778,0,0,1-2.65,1.9629h-.01l-.13.0382a35.2684,35.2684,0,0,1-19.35,0,4.6255,4.6255,0,0,1-2.85-2.306,3.9979,3.9979,0,0,1-.1-3.3636l.44-1.0291a7.6626,7.6626,0,0,0,0-6.0506,3.9925,3.9925,0,0,1,.66-4.2117,4.9221,4.9221,0,0,1,4.57-1.5818l2.13.3621a28.8351,28.8351,0,0,0,9.66,0l2.4-.41a4.9628,4.9628,0,0,1,4.43,1.4388,4.0129,4.0129,0,0,1,.93,4.002l-.36,1.1054a7.6875,7.6875,0,0,0,0,4.65l.66,2.0392A4.0116,4.0116,0,0,1,140.62,242.2815Z"/>
    </g>
    <path d="M165.79,129.2456a2.9978,2.9978,0,0,0-4.41-2.41c-8.3,4.39-7.87,13.16-7.87,17.14,0,4.54,1.14,5.37-6.8,11.04a3.41,3.41,0,0,1-1.71.6093v-3.9793a2,2,0,0,0-2-2h-3a2,2,0,0,0-2,2v4h-2v-4a2,2,0,0,0-2-2h-3a2,2,0,0,0-2,2v4h-2v-4a2,2,0,0,0-2-2h-3a2,2,0,0,0-2,2v4h-2v-4a2,2,0,0,0-2-2h-3a2,2,0,0,0-2,2v3.9793a3.41,3.41,0,0,1-1.71-.6093c-7.94-5.67-6.8-6.5-6.8-11.04,0-3.98.43-12.75-7.87-17.14a2.9978,2.9978,0,0,0-4.41,2.41c-.46,5.97-.91,17.19,1.51,23.24,3.4,8.5,7.93,11.33,9.63,15.3s4.54,7.94,10.78,7.94c3.75,0,8.74.41,12.12.74a39.1525,39.1525,0,0,0,7.5,0c3.38-.33,8.37-.74,12.12-.74,6.24,0,9.08-3.97,10.78-7.94s6.23-6.8,9.63-15.3C166.7,146.4356,166.25,135.2156,165.79,129.2456Z"/>
    <path d="M172.43,104.2756a11.0484,11.0484,0,0,1-.71-4.79,47.7208,47.7208,0,0,1,.36-5.42,45.5008,45.5008,0,0,0,6.34-23.11c0-26.33-22.81-47.76-50.86-47.76s-50.87,21.43-50.87,47.76a45.5638,45.5638,0,0,0,6.34,23.12c.7,5.84.29,9.09-.35,10.2l-.13.22c-2.95,5.17-4.16,8.78,3.94,15.4,4.29,3.51,9.18,3.96,12.74,4.29,2.05.19,4.18.38,4.59,1.1,1,1.76,1.58,2.07,1.53,7.53a5.48,5.48,0,0,0,5.49,5.52H111v4.31a2,2,0,0,0,2,2h3a2,2,0,0,0,2-2v-4.31h2v4.31a2,2,0,0,0,2,2h3a2,2,0,0,0,2-2v-4.31h2v4.31a2,2,0,0,0,2,2h3a2,2,0,0,0,2-2v-4.31h2v4.31a2,2,0,0,0,2,2h3a2,2,0,0,0,2-2v-4.3811a5.43,5.43,0,0,0,4.76-5.4489c-.04-5.46.53-5.77,1.54-7.53.41-.72,2.53-.91,4.59-1.1,3.56-.33,8.44-.78,12.73-4.29,8.1-6.62,6.89-10.23,3.94-15.39Zm-66.22,4.55a16.3364,16.3364,0,0,1-2.29.16,12.5762,12.5762,0,0,1-9.1-3.58c-5.63-5.63-4.44-15.97,2.64-23.05a20.8845,20.8845,0,0,1,11.66-6.07,12.5586,12.5586,0,0,1,14.81,14.82,21.836,21.836,0,0,1-17.72,17.72Zm16.1507,12.7729a29.9372,29.9372,0,0,1,1.3675-7.7073,14.8529,14.8529,0,0,1,3.0975-6.1145,1.8215,1.8215,0,0,1,2.7086,0,14.7681,14.7681,0,0,1,3.0975,6.1145,30.026,30.026,0,0,1,1.3677,7.6967c-.0805-.04-.1609-.1073-.2548-.1609a9.8962,9.8962,0,0,0-11.384.1715ZM161.54,105.4056a12.6635,12.6635,0,0,1-9.12,3.55,20.1609,20.1609,0,0,1-13.93-6.19v-.01c-7.08-7.08-8.27-17.42-2.64-23.04a13.1054,13.1054,0,0,1,11.39-3.43,21.836,21.836,0,0,1,17.72,17.72A13.1117,13.1117,0,0,1,161.54,105.4056Z"/>
    <path d="M13.0029,213.9844a3,3,0,0,1-1.6494-5.5083l66.2554-43.5005a4.97,4.97,0,0,0,2.25-3.93c.41-9.8774-1.9292-24.728-2.9541-30.6543a2.3159,2.3159,0,0,0-1.4712-1.7725c-4.4678-1.7187-10.6543-7.1128-14.7524-23.0507-2.4039-9.34-1.896-16.0577,1.5083-19.9659a9.9439,9.9439,0,0,1,5.4995-3.1972A59.2936,59.2936,0,0,1,66.4463,70.313c0-33.2481,27.6333-60.2969,61.5991-60.2969s61.5991,27.0488,61.5991,60.2969a59.2958,59.2958,0,0,1-1.2392,12.0757,10.1715,10.1715,0,0,1,5.73,3.2861c3.417,3.9263,3.9395,10.6191,1.5547,19.8936-4.0986,15.9375-10.2851,21.332-14.7529,23.0507a2.3142,2.3142,0,0,0-1.4707,1.772c-1.0234,5.92-3.3613,20.7549-2.9561,30.6367a4.9714,4.9714,0,0,0,2.2706,3.9419l65.8554,42.8609a3,3,0,1,1-3.2734,5.0283L175.5078,169.998a10.9807,10.9807,0,0,1-4.9912-8.7231c-.4141-10.083,1.7256-24.3179,3.0381-31.9058a8.3721,8.3721,0,0,1,5.2285-6.35c2.0772-.7993,7.3154-4.2446,11.0967-18.9453,2.4433-9.5034.8789-13.1391-.27-14.4609-1.4073-1.6162-3.7051-1.5479-4.625-1.4419a3,3,0,0,1-3.2315-3.7759,53.1593,53.1593,0,0,0,1.8916-14.0825c0-29.94-24.9414-54.2969-55.5991-54.2969S72.4463,40.3735,72.4463,70.313a53.1775,53.1775,0,0,0,1.8916,14.0825,3,3,0,0,1-3.2349,3.7754,5.1135,5.1135,0,0,0-4.39,1.3726c-1.1416,1.311-2.689,4.9419-.2217,14.53,3.7808,14.7012,9.02,18.1465,11.0967,18.9458a8.3753,8.3753,0,0,1,5.2285,6.3492c1.314,7.5976,3.4551,21.8471,3.0371,31.9262a10.9858,10.9858,0,0,1-4.9521,8.6963L14.6465,213.4917A2.9868,2.9868,0,0,1,13.0029,213.9844Z"/>
  </g>
</svg>
