<svg id="icons" xmlns="http://www.w3.org/2000/svg" viewBox="0 0 256 256">
  <title>Hip 256x256px</title>
  <g>
    <path d="M126.0123,134.7741c.2247-2.138,2.4921-6.339-6.0189-5.9986s-18.4384-2.9482-24.7093-8.511-4.2283-10.3631-.5924-6.8293c3.6291,3.5406,10.7784,3.2,7.2583-4.4053-3.5135-7.6055-7.9392-9.0762-9.5324-17.4783-1.5183-8.0344-1.0622-11.8065,5.1883-17.0357a1.1756,1.1756,0,0,0,.1634-1.6477c-2.3013-2.8734-9.9817-11.6091-20.44-14.9046-12.5963-3.9695-24.9679-6.2437-29.278-2.4988-4.3166,3.7448-7.7211,10.1043,0,23.2658,7.7145,13.1614,14.9857,35.12,15.7822,37.7277.79,2.6146,2.9421-1.8656,10.2,5.9646,7.2649,7.83,5.5627,16.3412,6.1279,23.15.5719,6.8088,3.8606,17.4714,8.2863,21.6725,0,0,4.2555,4.596,8.4565,5.7875,4.1944,1.1916,14.8092-1.0213,21.6181-13.393,6.8088-12.3648,8.3953-16.11,8.3953-18.8332S125.7809,136.9053,126.0123,134.7741Zm-24.7432,22.9934c-5.5016.7422-5.5084-8.2863-5.9577-14.5232-.4563-6.3595,4.5414-9.1375,6.979-8.3408,2.4443.7966,11.0644,8.1161,13.1682,11.289C117.5558,149.3722,106.7773,157.0322,101.2691,157.7675Z"/>
    <path d="M129.0821,140.8067c0,2.7235,1.5865,6.4684,8.3953,18.8332,6.8089,12.3717,17.4237,14.5846,21.6181,13.393,4.201-1.1915,8.4565-5.7875,8.4565-5.7875,4.4257-4.2011,7.7144-14.8637,8.2863-21.6725.5652-6.8088-1.137-15.32,6.1279-23.15,7.2584-7.83,9.6916-3.6194,10.4815-6.234.7966-2.6078,7.7867-24.2969,15.5012-37.4583,7.7211-13.1615,4.3166-19.521,0-23.2658-4.31-3.7449-16.6817-1.4707-29.278,2.4988-10.4585,3.2955-18.1389,12.0312-20.44,14.9046a1.1756,1.1756,0,0,0,.1634,1.6477c6.25,5.2292,6.7066,9.0013,5.1883,17.0357-1.5932,8.4021-6.0189,9.8728-9.5324,17.4783-3.52,7.6054,3.6292,7.9459,7.2583,4.4053,3.6359-3.5338,5.6785,1.2664-.5924,6.8293s-16.1983,8.8515-24.7093,8.511-6.2436,3.8606-6.0189,5.9986C130.2191,136.9053,129.0821,138.0832,129.0821,140.8067Zm11.4593,5.3858c2.1038-3.1729,10.7239-10.4924,13.1682-11.289,2.4376-.7967,7.4353,1.9813,6.979,8.3408-.4493,6.2369-.4561,15.2654-5.9577,14.5232C149.2227,157.0322,138.4442,149.3722,140.5414,146.1925Z"/>
    <path d="M161.6167,90.2368c-2.5837,12.1425-8.9923,13.9436-9.7815,20.5748s.5262,7.751-1.8349,12.1425c-2.3543,4.3916-15.03,32.832-21.9982,32.832-6.9751,0-19.6439-28.44-22.0049-32.832s-1.0457-5.5114-1.8349-12.1425c-.7826-6.6312-7.1911-8.4323-9.7814-20.5748-1.8556-8.7332,1.984-12.5216,4.287-13.9562a2.9533,2.9533,0,0,1,3.03-.0561,26.7932,26.7932,0,0,0,5.6685,2.8276c3.4876,1.12,3.4876,2.6376,6.4086,4.3241a24.433,24.433,0,0,0,5.7736,1.7711,39.7936,39.7936,0,0,0,16.9082-.0008,24.3409,24.3409,0,0,0,5.7654-1.77c2.921-1.6865,2.921-3.2043,6.4085-4.3241a26.61,26.61,0,0,0,5.6665-2.8265,2.95,2.95,0,0,1,3.0086.04C159.6064,77.69,163.4853,81.4739,161.6167,90.2368Z"/>
    <path d="M47.2992,219.125H57.3429a3.9987,3.9987,0,0,0,3.9866-4.3267c-.84-10.2157-2.7581-35.1532-1.678-37.4935,1.3617-2.9505,7.7167-4.9931,5.674-14.639s3.8583-16.0364,5.4471-15.2809,9.5323-1.4007,7.49-7.6421S73.95,125.5577,67.7086,121.6994s-11.4615-2.3831-13.3907,2.1561-.0284,7.206-1.9859,9.6742-4.0853,3.1491-5.4471,1.532-6.8088-7.5748-12.5112-2.8938-11.83,16.0859-7.4046,25.6183c4.25,9.1544,15.8266,26.1083,16.336,57.39A4.0037,4.0037,0,0,0,47.2992,219.125Z"/>
    <path d="M208.4442,219.125H198.4005a3.9987,3.9987,0,0,1-3.9866-4.3267c.84-10.2157,2.7581-35.1532,1.678-37.4935-1.3618-2.9505-7.7167-4.9931-5.674-14.639s-3.8584-16.0364-5.4471-15.2809-9.5324-1.4007-7.49-7.6421,4.3123-14.1851,10.5537-18.0434,11.4615-2.3831,13.3907,2.1561.0284,7.206,1.9859,9.6742,4.0853,3.1491,5.4471,1.532,6.8088-7.5748,12.5112-2.8938,11.83,16.0859,7.4046,25.6183c-4.25,9.1544-15.8267,26.1083-16.336,57.39A4.0037,4.0037,0,0,1,208.4442,219.125Z"/>
    <path d="M13.084,219.1553a3,3,0,0,1-3-3c0-63.5615,11.3066-112.8008,16.74-136.4649,1.5523-6.76,2.7783-12.1,2.7783-13.7832,0-8.1045-2.2778-25.5918-2.3007-25.7676A3,3,0,1,1,33.251,39.36c.0962.7334,2.3515,18.0517,2.3515,26.5468,0,2.3633-1.103,7.168-2.9306,15.126C27.2876,104.4814,16.084,153.2744,16.084,216.1553A3,3,0,0,1,13.084,219.1553Z"/>
    <path d="M242.916,219.1553a3,3,0,0,1-3-3c0-62.8809-11.2036-111.6739-16.5879-135.1221-1.8276-7.958-2.9306-12.7627-2.9306-15.126,0-8.4951,2.2553-25.8134,2.3515-26.5468a3,3,0,1,1,5.9492.7792c-.0229.1758-2.3007,17.6631-2.3007,25.7676,0,1.6836,1.226,7.0235,2.7783,13.7832,5.4336,23.6641,16.74,72.9034,16.74,136.4649A3,3,0,0,1,242.916,219.1553Z"/>
    <path d="M122.0972,219.1553a3.0336,3.0336,0,0,1-.4571-.0342,3.0007,3.0007,0,0,1-2.5127-3.419l7.1065-46.5263a3.0007,3.0007,0,0,1,2.9648-2.5469c.02,0,.04,0,.06.001a2.9992,2.9992,0,0,1,2.9219,2.664L137.415,215.82a3,3,0,1,1-5.9619.67l-2.7046-24.0381-3.6894,24.1563A3.0007,3.0007,0,0,1,122.0972,219.1553Z"/>
  </g>
</svg>
