<svg id="icons" xmlns="http://www.w3.org/2000/svg" viewBox="0 0 256 256">
  <title>Jaw 256x256px</title>
  <g>
    <path d="M201.69,183.64c-.23,3.06-.52,6.87-.69,11.47C200.48,209,186.57,209,182,209c-7.65,0-63.83-9.34-84.67-14.07-21.84-4.97-27.27-18.41-33.55-33.97-.51-1.25-1.02-2.53-1.55-3.82-5.22-12.66-18.12-32.6-23.43-40.59a9.0325,9.0325,0,0,1,2.4-12.39l7.15-4.92a8.9467,8.9467,0,0,1,11.21.81l6.79,6.27a2.987,2.987,0,0,0,3.06.61l4.84-1.76a2.9665,2.9665,0,0,0,1.82-1.87l4.41-13.22a9.0059,9.0059,0,0,1,10.3-5.98l8.91,1.78a9.0323,9.0323,0,0,1,7.09,10.4c-1.72,9.56-2.25,29.43,2.05,41.73,5.44,15.55,5.44,15.55,47.74,21.56,6.9.99,14.73,2.1,23.87,3.46l2.08.31c9.81,1.46,14.29,2.12,17.08,4.98C202.62,171.43,202.29,175.77,201.69,183.64Z"/>
    <g>
      <path d="M188.885,149.423h3.9673a4.7608,4.7608,0,0,1,4.7608,4.7608v4.7608a3.9673,3.9673,0,0,1-3.9673,3.9673h-5.5542a3.9673,3.9673,0,0,1-3.9673-3.9673v-4.7608a4.7608,4.7608,0,0,1,4.7608-4.7608Z" transform="translate(26.9597 -28.0959) rotate(9.0559)"/>
      <path d="M173.9972,147.05h3.9673a4.7608,4.7608,0,0,1,4.7608,4.7608v4.7608a3.9673,3.9673,0,0,1-3.9673,3.9673h-5.5542a3.9673,3.9673,0,0,1-3.9673-3.9673v-4.7608a4.7608,4.7608,0,0,1,4.7608-4.7608Z" transform="translate(26.4007 -25.7822) rotate(9.0559)"/>
      <path d="M159.1094,144.6772h3.9673a4.7608,4.7608,0,0,1,4.7608,4.7608v4.7608a3.9673,3.9673,0,0,1-3.9673,3.9673h-5.5542a3.9673,3.9673,0,0,1-3.9673-3.9673V149.438a4.7608,4.7608,0,0,1,4.7608-4.7608Z" transform="translate(25.8416 -23.4684) rotate(9.0559)"/>
      <path d="M144.2216,142.3043h3.9673a4.7608,4.7608,0,0,1,4.7608,4.7608v4.7608a3.9673,3.9673,0,0,1-3.9673,3.9673h-5.5542a3.9673,3.9673,0,0,1-3.9673-3.9673v-4.7608a4.7608,4.7608,0,0,1,4.7608-4.7608Z" transform="translate(25.2825 -21.1547) rotate(9.0559)"/>
      <path d="M129.3337,139.9314h3.9673a4.7608,4.7608,0,0,1,4.7608,4.7608v4.7608a3.9673,3.9673,0,0,1-3.9673,3.9673H128.54a3.9673,3.9673,0,0,1-3.9673-3.9673v-4.7608a4.7608,4.7608,0,0,1,4.7608-4.7608Z" transform="translate(24.7235 -18.8409) rotate(9.0559)"/>
    </g>
    <g>
      <path d="M110.8467,246.5H11.9414a3,3,0,1,1,0-6h97.2139l17.1289-28.3218-42.78-7.2241a3,3,0,1,1,.999-5.916l47.1314,7.959a3,3,0,0,1,2.0674,4.5107l-20.2881,33.5449A3,3,0,0,1,110.8467,246.5Z"/>
      <path d="M190.0649,223.2466a32.69,32.69,0,0,1-6.9443-.8023l-1.4351-.3115c-6.1889-1.3437-12.5888-2.7334-18.9086-3.8l-32.1412-5.42a3,3,0,0,1,.9981-5.916l32.1411,5.42c6.4585,1.0893,12.9272,2.4941,19.1836,3.8525l1.4365.312c6.1729,1.3448,10.83.69,14.2363-2.0034,7.77-6.1382,8.0674-21.85,8.2847-33.3222.0679-3.5752.1265-6.6626.4-9.108,1.19-10.7426,4.3286-13.0986,8.0039-14.8886a5.2719,5.2719,0,0,0,2.2217-1.5591c.3335-.4453-.0752-1.96-.4038-3.1768-.8315-3.0815-2.38-8.8169,4.8882-11.7216,3.7563-1.5039,4.1489-1.6612.188-11.7437-.5806-1.4785-1.2173-3.0986-1.8843-4.8794-3.665-9.7612,5.2768-14.6841,11.8057-18.2783,4.1567-2.2881,8.4555-4.6548,8.9067-7.3535.67-4.0347-9.6714-18.01-17.2222-28.2144-8.0512-10.8813-15.6562-21.1587-17.9795-28.1157-3.4682-10.4146,2.4121-18.0781,6.7056-23.6738,1.9243-2.5078,3.7417-4.8765,4.2471-6.8033a3,3,0,1,1,5.8037,1.5206c-.8115,3.0986-2.9873,5.9335-5.2905,8.9355-4.0489,5.2764-8.2354,10.7324-5.774,18.123,2.02,6.0513,9.6919,16.4185,17.1109,26.4444,12.0307,16.2588,19.352,26.54,18.3173,32.77-.9316,5.5679-6.5234,8.6465-11.9316,11.6235-7.5937,4.1807-10.7475,6.4761-9.081,10.9151.6557,1.7505,1.28,3.3413,1.8505,4.7925,3.565,9.0747,6.1412,15.6313-3.5444,19.5083-2.2266.89-2.2,1.3393-1.3232,4.5869.6328,2.3447,1.5,5.5556-.5894,8.34a10.8706,10.8706,0,0,1-4.3945,3.3535c-2.0093.979-3.7447,1.8242-4.6675,10.1582-.2432,2.1729-.2993,5.1319-.3643,8.5581-.24,12.669-.5688,30.02-10.5639,37.9165A19.2444,19.2444,0,0,1,190.0649,223.2466Z"/>
    </g>
  </g>
</svg>
