<svg id="icons" xmlns="http://www.w3.org/2000/svg" viewBox="0 0 256 256">
  <title>Quad Limb 256x256px</title>
  <g>
    <path d="M117.5108,34.3431c5.0947-11.7222,7.4376-15.2231,6.22-18.0938s-5.0889-2.0877-6.4372-2.3487-3.9145-5.0236-8.2858-3.6535-4.3712,4.11-2.9358,7.6333,1.4353,9.33-2.3922,21.0731-5.3934,18.4418-8.612,29.8373-6.4372,19.1377,1.3918,24.27,17.1369,2.6139,19.5726-1.52.609-6.6567-3.48-8.0486-4.1621-6.8721-4.7342-8.8729-3.7038-4.3494-.5722-13.0484S116.5105,36.6449,117.5108,34.3431Z"/>
    <path d="M169.3406,162.3983c-1-1.87,1.6963-3.6971-.8264-5.48s-15.3537-14.2663-19.4421-19.0507c-1.1493-1.3448-2.7222-3.1308-4.5-5.1728-3.5187-6.9156-10.14-19.9948-12.0278-24.1825-2.61-5.7883-5.9907-12.5692-8.6989-13.7747-.0108-.0049-.0175-.0043-.0281-.0088a4.0269,4.0269,0,0,0-3.2485-1.2145c-5.8066.0652-5.3631,3.39-7.3147,3.849-8.4619,1.99-8.5463,4.8387-8.4594,8.5792s2.8707,4.8714,6.0893,6.0023,3.5666,4.6105,8.003,7.3071,27.1841,24.9224,33.4474,32.36,13.2223,18.3113,14.7011,19.0072,3.0447-3.3926,2.6532-4.7409S170.3409,164.2685,169.3406,162.3983Zm-44.26-59.5174a12.8582,12.8582,0,0,1-.0349-1.505c2.1068,3.6612,8.6351,15.1193,12.2345,22.7091-2.5959-3.1895-5.1221-6.4768-7.1285-9.4983C124.6716,106.3337,125.3756,105.6211,125.0808,102.8809Z"/>
    <path d="M94.9314,100.7369c3.3116,3.1374,6.9715,6.1348,8.41,2.8044s-3.9433-5.6474-6.3629-6.2477A2.0725,2.0725,0,0,0,94.9314,100.7369Z"/>
    <path d="M172.1038,155.1277c2.8674.4142,5.4368.3045,5.2628,8.5685s.222,16.59-.9089,17.8081-5.7743,1.0112-6.44.43c-.8-.6982.7381-7.1469.9991-13.0839S170.5819,154.9079,172.1038,155.1277Z"/>
    <path d="M165.7881,246.1221c-1.7178,0-3.4678-.0264-5.2334-.0528-2.626-.04-5.3428-.0839-8.1045-.0507-2.7344.0234-4.9082-1.7149-6.0391-4.7852-2.1416-5.8135-.3857-15.7734,5.168-20.4014,6.0762-5.0625,9.9346-13.8281,10.3213-23.4482.3418-8.4785-3.916-16.5156-7.0264-22.3838-.6357-1.2-1.2265-2.3164-1.7314-3.3389-6.5244-13.2216-15.6563-23.8291-55.34-55.3105C77.57,100.2988,65.8721,77.3682,63.9727,50.0361a113.8484,113.8484,0,0,1,3.2832-36.7744A3,3,0,0,1,73.01,14.9609a110.0163,110.0163,0,0,0-3.0371,34.8614C71.82,75.7,82.4385,96.5029,101.5313,111.6494c40.5927,32.2031,50.0468,43.2832,56.9921,57.3555.4815.9756,1.0459,2.041,1.6524,3.1855,3.43,6.4727,8.1269,15.3369,7.7207,25.4356-.4619,11.4541-5.0088,21.5928-12.4756,27.8154-2.71,2.2588-4.001,7.13-3.876,10.7754a6.722,6.722,0,0,0,.95,3.8008c2.8037-.0293,5.5215.0127,8.1514.0517,13.4765.2071,21.1474.0166,22.2676-6.2392.9355-5.2237.27-11.2979-.4991-18.3311-.7832-7.1543-1.6709-15.2636-1.0312-24.3125.1855-2.6308.4033-5.1836.6152-7.6572,1.17-13.6982,2.0938-24.5176-3.7656-32.4111-.0586-.0791-.1133-.1621-.1641-.2461-.77-1.2862-18.789-31.8389-12.68-62.7862,9.7217-49.2421-11.4755-71.6513-11.6914-71.872A3,3,0,0,1,157.97,12.001c.9727.9814,23.69,24.6543,13.3067,77.247-5.4893,27.8077,10.6943,56.3965,11.874,58.4278,7.1045,9.6982,6.0488,22.06,4.8262,36.3642-.208,2.4454-.4239,4.9688-.6084,7.57-.6006,8.5087.2558,16.333,1.0107,23.2363.82,7.4941,1.5293,13.9658.4414,20.04C187.0186,244.95,177.1738,246.1221,165.7881,246.1221Z"/>
    <path d="M170.3205,184.9216c-.0993,1.6085-.6524,4.3929,2.2617,3.697s5.0454-3.0011,3.3926-4.8279S170.42,183.3147,170.3205,184.9216Z"/>
    <path d="M172.3,193.8814c.298,3.7212,1.1091,14.94,1.5005,17.3544s.4567,6.0675,0,6.9809,1.8921,2.61,3.3274,2.6749,1.9572-1.37,1.0439-4.8931-1.4762-14.6142-1.6189-20.486.8686-8.0574-1.6432-6.9483S171.936,189.3424,172.3,193.8814Z"/>
    <path d="M173.3033,220.0152a1.0432,1.0432,0,0,0-1.1068.2023c-1.5476,1.44-5.6549,5.0043-5.6166,5.502.0435.5654,2.2618,1.6093,3.2186,1.1744s6.8722-4.7844,6.8722-5.1759C176.6707,221.4252,174.4317,220.4753,173.3033,220.0152Z"/>
    <path d="M167.7157,227.12l1.234.5394a1.0439,1.0439,0,0,1,.6242.8974l.1294,2.2833a1.042,1.042,0,0,1-1.615.93,4.4466,4.4466,0,0,0-1.1287-.5674,1.0342,1.0342,0,0,1-.7059-.9992v-2.1271A1.0439,1.0439,0,0,1,167.7157,227.12Z"/>
    <path d="M166.1232,232.048c-.6778.6712-1.4788,1.1526-.7829,1.9355s1.7181,2.37,3.3709,1.6963a1.9028,1.9028,0,0,0,.9939-2.9142C169.1679,232.2655,166.4824,231.6923,166.1232,232.048Z"/>
    <path d="M164.6188,234.59a5.47,5.47,0,0,0-1.0547,1.5863.5229.5229,0,0,0,.7919.6274,4.6151,4.6151,0,0,1,1.4472-.7891.5162.5162,0,0,0,.26-.8118,2.3534,2.3534,0,0,0-.8972-.75A.5059.5059,0,0,0,164.6188,234.59Z"/>
    <path d="M171.1036,193.2678c-.2917,3.5623-1.2534,14.2889-1.2553,16.63s-.503,5.8039-1.0753,6.5967,1.3859,2.7574,2.7321,3.04,2.0606-.9932,1.74-4.463.8562-14.0372,1.6258-19.6077,2.0619-7.48-.4825-6.8189S171.4593,188.9227,171.1036,193.2678Z"/>
    <path d="M167.863,218.7286a1.0432,1.0432,0,0,0-1.1029.2228c-1.5207,1.4685-5.5611,5.1083-5.5136,5.6052.054.5645,2.2912,1.5671,3.24,1.1145s6.7823-4.911,6.775-5.3024C171.2559,220.0759,169,219.1677,167.863,218.7286Z"/>
    <path d="M162.0377,225.95l1.1351.7249a1.0439,1.0439,0,0,1,.4769.9836l-.2274,2.2756a1.0421,1.0421,0,0,1-1.74.6676,4.44,4.44,0,0,0-1.0267-.7362,1.0342,1.0342,0,0,1-.5417-1.0969l.3309-2.1012A1.0439,1.0439,0,0,1,162.0377,225.95Z"/>
    <path d="M159.6978,230.5708c-.7739.5576-1.64.9084-1.0745,1.79s1.3283,2.6089,3.0659,2.2a1.9027,1.9027,0,0,0,1.4352-2.724C162.6716,231.2593,160.108,230.2753,159.6978,230.5708Z"/>
    <path d="M157.8162,232.8474a5.47,5.47,0,0,0-1.2886,1.4029.5229.5229,0,0,0,.6846.743,4.6168,4.6168,0,0,1,1.5524-.5543.5162.5162,0,0,0,.383-.7615,2.3552,2.3552,0,0,0-.7694-.881A.5063.5063,0,0,0,157.8162,232.8474Z"/>
  </g>
</svg>
