<svg id="icons" xmlns="http://www.w3.org/2000/svg" viewBox="0 0 256 256">
  <title>Spine 256x256px</title>
  <g>
    <path d="M112.9152,41.1022l-3.3451-.3133a5.323,5.323,0,0,0-5.9159,5.3078V48.06a5.3309,5.3309,0,0,0,5.8791,5.3078l3.474-.3226c-.0829.4516-.175.8939-.2765,1.3454a4.6078,4.6078,0,0,0,3.041,5.4l1.29.4331a34.8118,34.8118,0,0,0,21.8855-.0092l1.29-.4331a4.6025,4.6025,0,0,0,3.1422-4.3771,4.85,4.85,0,0,0-.1105-1.0321q-.1521-.6634-.2765-1.327l3.4372.3226a5.337,5.337,0,0,0,5.916-5.3078V46.0967a5.33,5.33,0,0,0-5.87-5.317l-3.3911.3225.12-.7648a4.6086,4.6086,0,0,0-4.5521-5.3355,4.5076,4.5076,0,0,0-1.456.24,29.1739,29.1739,0,0,1-18.3838,0,4.6132,4.6132,0,0,0-6.0173,5.0866Z"/>
    <path d="M152.3459,76.46v1.9535a5.3231,5.3231,0,0,1-5.916,5.3078l-3.4372-.3225c.0829.4515.1751.8938.2765,1.3361a4.8509,4.8509,0,0,1,.1105,1.0321,4.6024,4.6024,0,0,1-3.1422,4.3771l-1.29.4331a34.724,34.724,0,0,1-21.8855,0l-1.29-.4331a4.598,4.598,0,0,1-3.041-5.4c.1015-.4423.1936-.8939.2765-1.3454l-3.4832.3317a5.3294,5.3294,0,0,1-5.87-5.317V76.46a5.3231,5.3231,0,0,1,5.9159-5.3079l3.3451.3041-.12-.7648a4.6146,4.6146,0,0,1,6.0173-5.0958,29.1753,29.1753,0,0,0,18.3838,0,4.5076,4.5076,0,0,1,1.456-.24,4.6217,4.6217,0,0,1,4.5521,5.3446l-.12.7556,3.3911-.3133a5.33,5.33,0,0,1,5.87,5.3171Z"/>
    <path d="M152.3459,106.8146v1.9628a5.337,5.337,0,0,1-5.916,5.3078l-3.4372-.3225c.0829.4515.1751.8938.2765,1.3361a4.7872,4.7872,0,0,1,.1105,1.0321,4.62,4.62,0,0,1-3.1422,4.3771l-1.29.4331A34.899,34.899,0,0,1,128,122.7012a34.5371,34.5371,0,0,1-10.9381-1.76l-1.29-.4331a4.6029,4.6029,0,0,1-3.041-5.4c.1015-.4424.1936-.8939.2765-1.3454l-3.4832.3225a5.33,5.33,0,0,1-5.87-5.3078v-1.9628a5.3368,5.3368,0,0,1,5.9159-5.3078l3.3451.3133-.12-.7648a4.6147,4.6147,0,0,1,6.0173-5.0959,29.1739,29.1739,0,0,0,18.3838,0,4.51,4.51,0,0,1,1.456-.24,4.6219,4.6219,0,0,1,4.5521,5.3447l-.12.7556,3.3911-.3133a5.33,5.33,0,0,1,5.87,5.3078Z"/>
    <path d="M152.3459,137.1782v1.9628a5.337,5.337,0,0,1-5.916,5.3078l-3.4372-.3225c.0829.4423.1751.8938.2765,1.3269a4.8723,4.8723,0,0,1,.1105,1.0413,4.62,4.62,0,0,1-3.1422,4.3771l-1.2994.4331a34.8692,34.8692,0,0,1-21.8762,0l-1.29-.4331a4.6078,4.6078,0,0,1-3.041-5.4c.1015-.4515.1936-.8938.2765-1.3453l-3.4832.3225a5.33,5.33,0,0,1-5.87-5.3078v-1.9628A5.3367,5.3367,0,0,1,109.57,131.87l3.3451.3133-.12-.7741a4.6132,4.6132,0,0,1,6.0173-5.0866,29.1739,29.1739,0,0,0,18.3838,0,4.4665,4.4665,0,0,1,1.456-.24,4.6086,4.6086,0,0,1,4.5521,5.3354l-.12.7649,3.3911-.3133a5.33,5.33,0,0,1,5.87,5.3078Z"/>
    <path d="M152.3459,167.5418v1.9628a5.3231,5.3231,0,0,1-5.916,5.2985l-3.4372-.3133q.1243.6634.2765,1.327a4.8493,4.8493,0,0,1,.1105,1.032,4.6024,4.6024,0,0,1-3.1422,4.3771l-1.2994.4332a34.6971,34.6971,0,0,1-21.8762,0l-1.29-.4332a4.5925,4.5925,0,0,1-3.041-5.3907c.1015-.4515.1936-.8939.2765-1.3454l-3.4832.3226a5.33,5.33,0,0,1-5.87-5.3078v-1.9628a5.323,5.323,0,0,1,5.9159-5.3078l3.3451.3132-.12-.774a4.6133,4.6133,0,0,1,6.0173-5.0867,29.2369,29.2369,0,0,0,18.3838,0,4.4691,4.4691,0,0,1,1.456-.2395,4.6086,4.6086,0,0,1,4.5521,5.3354l-.12.7648,3.3911-.3225a5.33,5.33,0,0,1,5.87,5.3171Z"/>
    <path d="M152.3459,197.7763v1.9628a5.3233,5.3233,0,0,1-5.916,5.3078l-3.4372-.3225c.0829.4515.1751.8938.2765,1.3362a4.7863,4.7863,0,0,1,.1105,1.032,4.62,4.62,0,0,1-3.1422,4.3771l-1.2994.4331a34.6952,34.6952,0,0,1-21.8762,0l-1.29-.4331a4.5981,4.5981,0,0,1-3.041-5.4c.1015-.4424.1936-.8939.2765-1.3454l-3.474.3317a5.331,5.331,0,0,1-5.8791-5.317v-1.9628a5.3368,5.3368,0,0,1,5.9159-5.3078l3.3451.3133-.12-.7648a4.6147,4.6147,0,0,1,6.0173-5.0959,29.1725,29.1725,0,0,0,18.3838,0,4.4691,4.4691,0,0,1,1.456-.24,4.6219,4.6219,0,0,1,4.5521,5.3447l-.12.7556,3.3911-.3133a5.33,5.33,0,0,1,5.87,5.3078Z"/>
    <path d="M152.3459,228.3482v1.9627a5.3233,5.3233,0,0,1-5.916,5.3079l-3.4372-.3225c.0829.4515.1751.8938.2765,1.3361a4.7872,4.7872,0,0,1,.1105,1.0321,4.62,4.62,0,0,1-3.1422,4.3771l-1.2994.4331a34.6952,34.6952,0,0,1-21.8762,0l-1.29-.4331a4.5981,4.5981,0,0,1-3.041-5.4c.1015-.4424.1936-.8939.2765-1.3454l-3.474.3317a5.331,5.331,0,0,1-5.8791-5.3171v-1.9627A5.3367,5.3367,0,0,1,109.57,223.04l3.3451.3133-.12-.7648a4.6147,4.6147,0,0,1,6.0173-5.0959,29.1739,29.1739,0,0,0,18.3838,0,4.4281,4.4281,0,0,1,1.456-.24,4.6218,4.6218,0,0,1,4.5521,5.3446l-.12.7557,3.3911-.3133a5.33,5.33,0,0,1,5.87,5.3078Z"/>
    <g>
      <path d="M231.9272,107.686a3.0016,3.0016,0,0,1-2.9126-2.2915c-.0922-.38-9.354-38.2265-18.4194-56.3584C204.6753,37.1968,194,36.71,185.4209,36.3184c-3.7852-.1729-7.0542-.3218-9.5913-1.41-7.5322-3.2275-26.8018-18.4092-27.6182-19.0542a3,3,0,0,1,3.7178-4.709c5.39,4.2549,20.6152,15.8281,26.2637,18.2485,1.5361.6582,4.4336.7906,7.5014.93,9.0684.4141,22.7725,1.0391,30.2671,16.0283,9.37,18.74,18.499,56.045,18.8833,57.6241a3.0016,3.0016,0,0,1-2.9175,3.7094Z"/>
      <path d="M191.5156,245.5a3.0008,3.0008,0,0,1-2.9931-2.8335c-.01-.1855-1.08-18.8779-5.1553-47.4072-4.2754-29.9292-3.0274-34.4322,4.3188-53.3218,7.0078-18.02,9.1123-41.4229,9.1328-41.6572a3,3,0,0,1,5.9776.52c-.0864.9907-2.1939,24.477-9.5186,43.312-6.998,17.9941-8.0434,21.7905-3.9712,50.2983,4.1158,28.8091,5.1963,47.7354,5.2071,47.9229a3,3,0,0,1-2.8291,3.1616C191.6279,245.4985,191.5713,245.5,191.5156,245.5Z"/>
      <path d="M220.5337,171.93a3,3,0,0,1-2.7075-1.7041l-23.8325-49.7373a3,3,0,1,1,5.4111-2.5928l23.8325,49.7373a3.0008,3.0008,0,0,1-2.7036,4.2969Z"/>
      <path d="M24.0728,107.686a3.0016,3.0016,0,0,1-2.9175-3.7094c.3843-1.5791,9.5136-38.8843,18.8833-57.6241,7.4946-14.9892,21.1987-15.6142,30.2671-16.0283,3.0678-.14,5.9653-.272,7.5014-.93,5.6485-2.42,20.8736-13.9936,26.2637-18.2485a3,3,0,1,1,3.7178,4.709c-.8164.645-20.086,15.8267-27.6182,19.0542-2.5371,1.0879-5.8061,1.2368-9.5913,1.41-8.5786.3911-19.2544.8784-25.1743,12.7177-9.0689,18.1387-18.3272,55.9785-18.4194,56.3584A3.0012,3.0012,0,0,1,24.0728,107.686Z"/>
      <path d="M64.4844,245.5c-.0562,0-.1123-.0015-.169-.0049a3,3,0,0,1-2.8291-3.1616c.0108-.1875,1.0913-19.1138,5.2071-47.9229,4.0722-28.5078,3.0268-32.3042-3.9712-50.2983-7.3247-18.835-9.4322-42.3213-9.5186-43.312a3,3,0,0,1,5.9776-.52c.0205.2343,2.125,23.6367,9.1328,41.6572,7.3462,18.89,8.5942,23.3926,4.3188,53.3218-4.0757,28.5293-5.145,47.2217-5.1553,47.4072A3.0008,3.0008,0,0,1,64.4844,245.5Z"/>
      <path d="M35.4663,171.93a3.0008,3.0008,0,0,1-2.7036-4.2969L56.5952,117.896a3,3,0,1,1,5.4111,2.5928L38.1738,170.2261A3.0009,3.0009,0,0,1,35.4663,171.93Z"/>
    </g>
  </g>
</svg>
