<svg id="icons" xmlns="http://www.w3.org/2000/svg" viewBox="0 0 256 256">
  <title>Tail 256x256px</title>
  <g>
    <g>
      <path d="M40.3393,87.9335c.999,2.1968,2.5364,2.778,7.6828,4.9405s7.7509,7.85,10.318,7.1564,7.6407-4.7913,4.6484-8.031-9.84-6.097-13.58-10.1467-6.0577-1.46-7.527.8678-2.1847,4.0942-1.6973,4.9679"/>
      <path d="M59.901,102.635c.3364,2.39,1.6464,3.3823,5.97,6.913s5.2121,9.7228,7.8706,9.7841,8.6844-2.4326,6.7314-6.3868S72.7613,104.3124,70.32,99.37s-5.3967-3.1154-7.4649-1.2981-3.2542,3.3084-3.0339,4.2843"/>
      <path d="M76.3811,121.9543c.0761,1.903,1.1349,2.7638,4.606,5.8058s3.6831,7.9737,6.0107,8.1822,7.8449-1.3934,6.4934-4.6262-5.977-7.2656-7.6664-11.3066-4.4508-2.7794-6.4326-1.4724-3.1593,2.41-3.0555,3.1925"/>
      <path d="M90.9482,138.2674c.0762,1.9029,1.135,2.7638,4.6061,5.8058s3.6831,7.9737,6.0107,8.1821,7.8449-1.3933,6.4933-4.6262-5.9769-7.2655-7.6664-11.3066-4.4507-2.7794-6.4325-1.4723-3.1594,2.41-3.0556,3.1925"/>
      <path d="M104.716,155.3157c.1666,1.8971,1.2651,2.7067,4.877,5.58s4.0581,7.79,6.393,7.8871,7.77-1.7649,6.266-4.93-6.3157-6.9731-8.1954-10.9292-4.578-2.5646-6.4953-1.1648-3.0412,2.558-2.9,3.3343"/>
      <path d="M119.7014,171.2862c.3661,1.5519,1.3053,2.1187,4.42,4.1573s4.0745,6.0586,5.8662,5.9224,5.6985-2.18,4.1535-4.6548-5.6921-5.1746-7.6233-8.2685-3.812-1.6936-5.0967-.3591-1.995,2.3958-1.79,3.0241"/>
      <path d="M132.8005,183.1938c.3513,1.489,1.2525,2.0329,4.2411,3.9889s3.91,5.8134,5.6287,5.6826,5.4678-2.0914,3.9853-4.4663-5.4616-4.965-7.3146-7.9336-3.6576-1.6251-4.89-.3446-1.9142,2.2988-1.7173,2.9016"/>
      <path d="M145.5621,194.1681c.2717,1.1518.9688,1.5725,3.28,3.0855s3.0241,4.4965,4.3537,4.3954,4.2293-1.6177,3.0826-3.4547-4.2244-3.84-5.6577-6.1365-2.8291-1.257-3.7826-.2665-1.4806,1.778-1.3283,2.2443"/>
      <path d="M156.0891,203.3362c.5778,1.0328,1.3636,1.2457,4.0021,2.0651s4.1433,3.4924,5.3939,3.03,3.6219-2.7177,2.0146-4.1688-5.1172-2.5316-7.1263-4.3455-3.0657-.4311-3.71.7833-.935,2.1165-.66,2.5229"/>
      <path d="M168.115,209.91c.6606.8613,1.4057.9471,3.9209,1.3306s4.2336,2.6114,5.3163,2.0178,2.9581-2.9742,1.3033-4.075-4.9994-1.602-7.0678-2.978-2.8554.0291-3.2877,1.2241-.5815,2.0568-.2784,2.3893"/>
      <path d="M179.2,214.0165c.5832.7656,1.2582.8287,3.535,1.1261s3.794,2.2779,4.7889,1.72,2.7445-2.7462,1.2631-3.7089-4.5091-1.35-6.3608-2.5539-2.5938.0821-3.01,1.1707-.5683,1.87-.2995,2.1651"/>
      <path d="M189.8329,217.814c.6744.6867,1.352.6647,3.6481.675s4.0492,1.7852,4.9665,1.1074,2.3794-3.068.7892-3.8378-4.6427-.7757-6.63-1.7379-2.5632.406-2.84,1.5381-.33,1.9269-.0262,2.1856"/>
      <path d="M200.9482,220.15c.7519.6008,1.422.4977,3.7027.2323s4.2342,1.2862,5.0635.5032,1.9939-3.3314.3229-3.9047-4.7023-.2128-6.7911-.9295-2.4959.7107-2.6345,1.8678-.0961,1.9526.2363,2.1729"/>
      <path d="M212.0907,220.0627c.624.2645,1.0588.0673,2.5549-.5459s3.1156.0678,3.5292-.6207.7191-2.6378-.5229-2.7091-3.229.749-4.7816.66-1.5574.9561-1.4316,1.767.3058,1.3423.5731,1.4286"/>
      <path d="M219.7116,218.1575c.4707.1177.7562-.07,1.7461-.67s2.2107-.298,2.4268-.8308.2157-1.9451-.6706-1.8577-2.2.8882-3.3081.9976-.9951.849-.8161,1.4085.3652.9152.5638.9466"/>
      <path d="M224.7458,214.6411c-.442.1707-.3263,1.307.1466,1.5676s5.1275-1.69,5.9685-2.2071C230.1668,213.6384,226.8638,213.8231,224.7458,214.6411Z"/>
    </g>
    <path d="M26.11,69.4007c5.939,3.8975,14.8123,6.9028,14.8123,11.9361s-6.759,7.0467-15.9628,6.4714S11.2974,79.6111,14.3174,74.0026,21.5078,66.3808,26.11,69.4007Z"/>
    <path d="M203.06,236.5752c-13.5479.001-31.0225-4.1445-53.4239-15.72-40.8877-21.126-63.478-47.2432-81.63-68.2285-17.6846-20.4463-31.6529-36.5948-54.9942-39.1119a3,3,0,1,1,.6436-5.9658c25.69,2.77,40.34,19.708,58.8886,41.1519,17.8145,20.5957,39.9854,46.2285,79.8457,66.8242,61.9571,32.0127,82.4708,4.206,87.2842-5.0781a2.7082,2.7082,0,0,0-.2021-2.8946,2.7494,2.7494,0,0,0-2.6973-1.1289c-30.833,4.6983-57.8242-3.4277-82.5254-24.8467-21.27-18.4453-37.997-44.3427-52.7549-67.1923-4.517-6.9937-8.7832-13.6-13.0717-19.8628C55.1719,45.9648,13.78,45.2231,13.3657,45.2212a3,3,0,0,1,.0132-6h.0132c1.82.0078,44.97.7837,79.9805,51.9111,4.3344,6.33,8.622,12.9683,13.1621,19.9971,30.062,46.5464,64.143,99.3071,129.3354,89.3628A8.7755,8.7755,0,0,1,245,213.209C241.3691,220.2139,229.9658,236.5723,203.06,236.5752Z"/>
  </g>
</svg>
