<svg id="icons" xmlns="http://www.w3.org/2000/svg" viewBox="0 0 256 256">
  <title>Tentacle 256x256px</title>
  <g>
    <path d="M145.6055,154.1885a2.9814,2.9814,0,0,1-1.7071-.5352,87.1534,87.1534,0,0,1-11.0244-9.3086,3,3,0,0,1,4.18-4.3047,81.452,81.452,0,0,0,10.2647,8.6836,3,3,0,0,1-1.7129,5.4649Z"/>
    <path d="M105.6968,113.248a2.9911,2.9911,0,0,1-2.2261-.9882q-2.1145-2.3379-4.3672-4.8047a98.1521,98.1521,0,0,0-9.2822-8.92,3,3,0,1,1,3.8633-4.59,104.1169,104.1169,0,0,1,9.8476,9.4619q2.2662,2.4741,4.3887,4.8291a3,3,0,0,1-2.2241,5.0117Z"/>
    <path d="M13.5029,78.7969a3,3,0,0,1-.688-5.92c.4956-.1172,12.3355-2.8389,28.9707-.9825a3,3,0,1,1-.666,5.9629,88.5753,88.5753,0,0,0-26.9326.86A2.9981,2.9981,0,0,1,13.5029,78.7969Z"/>
    <path d="M179.31,162.7a3,3,0,0,1-.0078-6c.122-.0049.207-.0078.28-.0088a25.6241,25.6241,0,0,0,12.5313-3.7158c.06-.043.1191-.084.1816-.1221,5.6182-3.4971,10.2324-9.4023,13.7158-17.5517l.045-.1143a85.9369,85.9369,0,0,0,5.8252-22.9512,3,3,0,0,1,5.9589.7071,91.9845,91.9845,0,0,1-6.25,24.5634l-.039.0967c-3.9766,9.3057-9.3428,16.1074-15.9727,20.2735-.0547.039-.1074.0761-.1562.1064a31.5747,31.5747,0,0,1-15.6416,4.7051c-.04.001-.08.0019-.12.0019C179.5156,162.6963,179.4131,162.7,179.31,162.7Z"/>
    <path d="M166.15,204.0605c-22.2041.001-43.9746-7.5517-66.8691-22.9667-34.6319-23.3165-84.8257-16.0176-85.3292-15.9424a3,3,0,0,1-.9052-5.9317c2.1469-.3281,52.98-7.748,89.5849,16.8975,30.9805,20.8574,59.6856,26.63,90.337,18.1592,25.8027-7.1289,43.9687-35.3223,46.0019-57.3535,2.2754-24.6534-3.3359-37.2286-8.4785-45.43-5.0615-8.0713-8.6279-23.3828-10.2119-31.2217-2.81,3.5058-6.5606,11.6787-5.668,30.0185a138.4711,138.4711,0,0,0,3.1348,21.4629c3.9824,19.6582,7.4218,36.6348-21.751,59.917-9.9014,7.9024-19.752,11.0694-29.3389,11.07-23.3759.002-45.2007-18.8232-62.4961-33.7392-3.8081-3.2842-7.4043-6.3858-10.7939-9.1065-24.3941-19.584-57.5523-21.1367-79.4942-22.165l-.5136-.0234a3,3,0,0,1,.2812-5.9942l.5132.0244c22.7192,1.0645,57.0523,2.6729,82.9692,23.4785,3.4722,2.7881,7.1075,5.9229,10.9566,9.2422,24.0679,20.7559,54.021,46.585,84.1743,22.5235,26.3057-20.9951,23.499-34.8545,19.6133-54.0362A145.2817,145.2817,0,0,1,208.62,90.5811c-1.6308-33.4991,11.4033-38.1348,12.8955-38.5528a3,3,0,0,1,3.7686,2.3916c.04.2393,4.084,23.9873,10.292,33.8858,8.3838,13.3711,11.2734,28.5351,9.3691,49.1679-2.2656,24.5489-21.7295,54.67-50.3789,62.586A106.2027,106.2027,0,0,1,166.15,204.0605Z"/>
    <g>
      <path d="M76.89,69.48c-7.01-4.04-14.74-5.94-21.77-5.33-7.43.64-13.24,3.96-16.35,9.36-3.12,5.39-3.09,12.08.07,18.84,2.99,6.39,8.5,12.14,15.51,16.18a38.889,38.889,0,0,0,19.16,5.45c.88,0,1.75-.04,2.6-.11,7.43-.64,13.24-3.97,16.36-9.36C98.68,93.74,91.69,78.03,76.89,69.48ZM74.4,94.08c-.97,1.69-3.07,2.1-4.23,2.21a13.5667,13.5667,0,0,1-7.64-1.93v-.01a13.48,13.48,0,0,1-5.49-5.64c-.5-1.06-1.18-3.09-.21-4.78.85-1.47,2.75-2.22,5.04-2.22a14.0415,14.0415,0,0,1,6.83,1.95C73.39,86.36,76.05,91.23,74.4,94.08Z"/>
      <path d="M179.41,150.96a26.2761,26.2761,0,0,0-26.52-9.76c-4.89,1.28-8.39,4.2-9.87,8.22-2.96,8.02,3.2,17.43,14.02,21.41a26.7915,26.7915,0,0,0,9.19,1.69,21.9614,21.9614,0,0,0,5.49-.68c4.89-1.29,8.4-4.21,9.87-8.22C183.07,159.6,182.3,155.1,179.41,150.96Zm-11.44,7.13c-.55,1.94-3.47,2.8-6.51,1.93-3.05-.87-5.07-3.14-4.51-5.08.55-1.93,3.47-2.8,6.51-1.93S168.53,156.16,167.97,158.09Z"/>
      <path d="M141.63,128.43a35.4254,35.4254,0,0,0-25.04-23c-5.8-1.15-10.73.11-13.88,3.53-6.19,6.75-3.02,19.41,7.24,28.83,6.2,5.7,13.37,8.72,19.44,8.72a13.0562,13.0562,0,0,0,9.9-3.95C142.43,139.14,143.26,134.12,141.63,128.43Zm-14.84,2.35c-1.76,2.03-5.78,1.43-8.98-1.34s-4.36-6.66-2.6-8.69c1.76-2.04,5.78-1.44,8.98,1.33S128.55,128.74,126.79,130.78Z"/>
      <path d="M211.6,137.47l-.02.07c-.01.02-.04.1-.05.12-3.98,9.3-9.38,16.13-16.07,20.29a2.9813,2.9813,0,0,1-1.58.45,3.0736,3.0736,0,0,1-.9-.14,2.9716,2.9716,0,0,1-1.86-1.69,16.6542,16.6542,0,0,1-1.35-6.6,16.8364,16.8364,0,0,1,16.81-16.82,16.52,16.52,0,0,1,2.74.22,3.01,3.01,0,0,1,2.13,1.5A2.9728,2.9728,0,0,1,211.6,137.47Z"/>
    </g>
  </g>
</svg>
