<svg id="icons" xmlns="http://www.w3.org/2000/svg" viewBox="0 0 256 256">
  <title>Wing 256x256px</title>
  <g>
    <path d="M211.0029,78.6406a3,3,0,0,1-1.4707-5.6167C227.9463,62.69,235.5938,43.81,235.6689,43.62a3,3,0,0,1,5.5821,2.2c-.0821.209-8.47,21.0371-28.7832,32.4365A2.9808,2.9808,0,0,1,211.0029,78.6406Z"/>
    <path d="M211.35,60.13a3.0006,3.0006,0,0,1-1.1728-5.7622h0c14.0459-6.0918,23.0546-10.21,26.7773-12.2432a2.9994,2.9994,0,0,1,3.6885,4.6543l-.01.01a3.0056,3.0056,0,0,1-.7305.5615c-3.8418,2.1069-13.0253,6.314-27.2978,12.5044A3.0281,3.0281,0,0,1,211.35,60.13Z"/>
    <path d="M215.3662,95.5957a3,3,0,0,1-1.9053-5.3188,53.7363,53.7363,0,0,0,12.9209-15.8414c-6.7627,1.586-16.7138,4.6231-29.2929,8.9512a3,3,0,1,1-1.9512-5.6738c17.293-5.95,29.4141-9.4175,36.0254-10.3066a3,3,0,0,1,3.2314,3.9643,58.6832,58.6832,0,0,1-17.1269,23.544A2.9878,2.9878,0,0,1,215.3662,95.5957Z"/>
    <path d="M198.8213,119.2861a3,3,0,0,1-1.0879-5.7968c5.2725-2.0508,16.5625-11.5767,23.873-18.1289-9.7168-.1543-25.4834,2.8457-45.5712,8.7768a3,3,0,1,1-1.6993-5.7539c26.8389-7.9248,45.3008-10.6509,54.8672-8.1094a3,3,0,0,1,1.2871,5.0825c-2.1875,2.0616-21.6289,20.2427-30.583,23.7247A2.9837,2.9837,0,0,1,198.8213,119.2861Z"/>
    <path d="M187.7861,143.9775a3,3,0,0,1-1.2392-5.7334,59.318,59.318,0,0,0,24.0537-20.4087c-9.7393.5577-26.7383,3.771-48.9795,9.293a3,3,0,0,1-1.4453-5.8232c19.4043-4.8169,44.8633-10.3643,55.9834-9.4541a2.9994,2.9994,0,0,1,2.456,4.2934,63.7521,63.7521,0,0,1-29.5937,27.5645A2.9746,2.9746,0,0,1,187.7861,143.9775Z"/>
    <path d="M173.7441,165.3076a3.0007,3.0007,0,0,1-.95-5.8467c10.8467-3.623,19.9991-10.9326,25.1885-15.7324-2.7929-.01-6.1572.0635-10.0586.2451-11.8515.5567-26.3222,1.9571-36.375,3.0342a3,3,0,1,1-.6386-5.9668c10.1337-1.0849,24.7324-2.4971,36.7334-3.0615,8.1015-.3779,13.8476-.335,17.5644.125a3.0006,3.0006,0,0,1,1.8994,4.94c-.5605.6485-13.9433,15.9375-32.4131,22.1074A2.9863,2.9863,0,0,1,173.7441,165.3076Z"/>
    <path d="M149.9863,182.0391a83.5013,83.5013,0,0,1-14.4394-1.3272,3,3,0,0,1,1.0371-5.91c24.6426,4.3252,37.375-3.8174,42.5976-8.7618-7.667-1.2392-21.8086-2.1992-40.3115-2.7041a3,3,0,1,1,.1641-5.998c17.084.4668,39.0361,1.54,46.5928,4.0039a2.9994,2.9994,0,0,1,1.6386,4.4C186.8057,166.5068,177.0859,182.0381,149.9863,182.0391Z"/>
    <path d="M145.2451,209.8887c-6.0537,0-18.3633-.6846-24.9883-5.8526a3,3,0,1,1,3.6895-4.73c5.3906,4.2041,17.5771,4.7334,23.2109,4.5615.5215-1.4356.458-5.626-4.2314-13.875-7.8272-13.7695-25.3037-16.7891-25.48-16.8184a3,3,0,0,1,.959-5.9228c.832.1338,20.4658,3.4658,29.7373,19.7763,4.44,7.8125,6.0654,13.9659,4.83,18.292a6.5986,6.5986,0,0,1-2.9571,4.1241,3.0011,3.0011,0,0,1-1.249.3574C148.5674,209.8135,147.249,209.8887,145.2451,209.8887Z"/>
    <path d="M125.7842,221.9189c-5.8711,0-18.0069-2.1494-29.086-17.6748a3,3,0,0,1,4.8848-3.4843c8.9688,12.5683,18.334,14.8906,23.166,15.1465-5.0752-14.585-19.917-30.4659-20.0791-30.6368a3,3,0,1,1,4.3692-4.1132c.7568.8037,18.5761,19.8779,22.5664,36.8369a3,3,0,0,1-2.2686,3.6162A17.5258,17.5258,0,0,1,125.7842,221.9189Z"/>
    <path d="M99.9072,240.2822c-.0566,0-.1113-.0009-.165-.0019-7.9307-.2051-16.6035-15.8916-17.8262-22.4951-1.5928-8.5987-3.999-23.3477-4.0234-23.4961a3,3,0,0,1,5.9219-.9649c.0244.1475,2.4209,14.833,4.0019,23.3682.8857,4.7871,6.2852,14.03,10.5938,16.9248,1.0654.7158,1.5253.6631,1.5322.6631-.001-.001.69-.4073,1.2656-2.8125,2.6856-11.2285-6.21-32.208-9.8633-39.3438a3,3,0,0,1,5.34-2.7344c.5781,1.128,14.1054,27.81,10.3593,43.4737C105.5127,239.2676,101.9854,240.2822,99.9072,240.2822Z"/>
    <path d="M75.998,243.7949a8.4388,8.4388,0,0,1-1.0537-.0664c-9.1015-1.1377-12.3457-18.373-14.415-43.9023a3,3,0,0,1,5.98-.4844c2.7558,33.9971,7.3369,38.2031,9.1787,38.4336,3.3291.4287,7.5625-7.6631,9.2969-13.6621a3,3,0,0,1,5.7636,1.666C89.8555,228.873,85.0664,243.7949,75.998,243.7949Z"/>
    <path d="M48.834,245.4385a3,3,0,0,1-2.7266-1.75l-7.6943-16.7754a3,3,0,1,1,5.4531-2.502l6.3906,13.9327c6.1475-4.19,11.2071-14.9278,12.79-19.1954a3,3,0,0,1,5.625,2.0879c-.7578,2.041-7.7207,20.06-18.8291,24.0264A2.9842,2.9842,0,0,1,48.834,245.4385Z"/>
    <path d="M32.543,236.2891a3.0006,3.0006,0,0,1-2.32-1.0987c-.38-.4629-9.2012-11.5381-.3155-27.8906a3,3,0,0,1,5.2715,2.8652c-5,9.2-3.0332,16.0674-1.49,19.253,6.4912-4.41,12.4482-19.6153,14.8886-29.1006a3,3,0,0,1,5.8106,1.4961c-.7988,3.1035-8.1719,30.4345-20.9678,34.3447A3.0149,3.0149,0,0,1,32.543,236.2891Z"/>
    <path d="M22.4268,162.6211a3.0007,3.0007,0,0,1-.7979-5.8926c11.4443-3.168,41.9766-13.9717,45.7764-25.7627,1.126-3.4917,2.0566-7.1543,3.041-11.0322,3.5049-13.7959,7.13-28.0615,19.92-35.1611,4.2422-2.3565,14.0859-6.5269,27.709-12.2994,34.7324-14.7153,92.8623-39.3447,120.7832-61.27a3,3,0,0,1,4.8525,2.3594c0,1.2-.3515,29.5742-30.9287,46.2017a3,3,0,0,1-2.8672-5.2715c18.8565-10.253,24.9219-25.586,26.8731-34.2827-30.1055,21.2378-83.583,43.8955-116.3721,57.788-12.9463,5.4854-23.1728,9.8184-27.1367,12.02C82.7529,95.86,79.4531,108.85,76.2617,121.4111c-.9648,3.7974-1.9619,7.7237-3.1455,11.3955-5.4717,16.9766-45.3574,28.4522-49.8877,29.7051A2.9981,2.9981,0,0,1,22.4268,162.6211Z"/>
    <path d="M23.6723,168.3744c-1.8835-.4586-5.5082-2.3291-7.0239,5.5446s1.8415,9.2388,5.9441,11.226,11.0673,2.9212,11.5681-2.243,4.5138-8.583,15.1858-11.6456,23.9358-3.8925,28.5033-1.9435,10.0808-1.3861,9.46-3.3449-3.4211-4.4971-3.3512-7.3765,3.4732-5.8785-.8021-6.621-7.4029,3.825-11.8587,5.4911-21.5818,6.1124-30.1942,8.1768-10.4086,4.9566-12.5023,4.4939S25.2961,168.77,23.6723,168.3744Z"/>
    <path d="M87.9708,153.6939c-2.5143.147-2.9713,6.5646-1.34,9.5139s3.6433,5.0479,6.4878,2.8263,6.994-14.6788,9.8316-19.9248,7.3076-19.2363,9.0823-26.1841,5.9871-16.3187,8.3088-19.0039-.08-6.9594-4.0867-3.6594-5.946,9.4569-7.949,16.41-8.2266,26.4473-10.7192,30.8174S92.3864,153.4356,87.9708,153.6939Z"/>
    <path d="M84.5266,151.3643c1.8423,1.4249,5.154,2.9564,7.59-1.7087a7.3514,7.3514,0,0,0,.5575-4.6282c-.5049-3.07,2.4845-17.4428,7.6023-26.6187,5.1211-9.1819,8.3983-17.7169,10.9047-19.2375s3.5891-6.8079-.6949-7.1739-7.5991,9.0843-11.9207,17.6811-7.6228,22.1762-9.27,27.5315c-1.4346,4.6634-3.9047,7.7022-5.5024,11.25A2.421,2.421,0,0,0,84.5266,151.3643Z"/>
    <path d="M135.0767,86.0555c-7.1367,3.1575-16.057-.0845-18.4033-1.0212-2.3466-.9229-2.7571,7.9069-2.7571,7.9069,1.6009,2.8721,2.331,1.505,7.73,2.1284,5.4057.6168,12.5556,8.5886,17.7234,3.3536s8.4246-1.7985,13.8643-4.2526a7.961,7.961,0,0,0,3.695-3.0695,5.2652,5.2652,0,0,0-.38-6.2579,3.9748,3.9748,0,0,1-1.2294-3.0215s.0071-.0067.0007-.0277a3.23,3.23,0,0,0-.6112-1.5141C153.427,78.4564,142.2134,82.898,135.0767,86.0555Zm4.6939,8.2736c-4.6836,2.1832-12.6891-1.0343-12.6891-1.0343-.49-1.1156,1.4107-.8912,6.3384-3.6434,4.9348-2.7589,14.3422-2.68,17.1715-2.43S144.4475,92.1388,139.7706,94.3291Z"/>
    <path d="M169.5709,86.6158c-.9053,1.0337-5.1158,2.4042-8.1288,3.16a.9723.9723,0,0,1-1.2123-.9618,5.135,5.135,0,0,0-2.4025-4.576,3.9745,3.9745,0,0,1-2.0734-2.5183s.0047-.0085-.0076-.0267c-.0115-.3209-.0971-4.1647,4.7467-3.95,3.9011.1837,8.4258-1.8672,11.8275-2.8641a2.5175,2.5175,0,0,1,3.1747,1.9512l.2391,1.251a2.5144,2.5144,0,0,1-1.6679,2.861,76.5443,76.5443,0,0,0-8.1578,3.0635C164.3292,84.9429,170.9329,85.0637,169.5709,86.6158Z"/>
    <path d="M176.7613,78.3556l-.7414-3.2823a.98.98,0,0,1,.86-1.1916c2.4558-.2469,8.361-.6052,10.8042,1.31,2.9806,2.3365-2.1884.5-9.5754,3.8448A.9761.9761,0,0,1,176.7613,78.3556Z"/>
    <path d="M122.5,86.1458a.9844.9844,0,0,1-.2113-1.8678c3.9665-1.7159,11.3426-5.079,15.1884-7.9257,5.4239-4.0147,4.7934-4.205,6.2889-1.7957s-4.1964,7.98-6.9117,9.9265C134.5073,86.166,128.6367,87.33,122.5,86.1458Z"/>
  </g>
</svg>
