<svg id="Layer_1" data-name="Layer 1" xmlns="http://www.w3.org/2000/svg" viewBox="0 0 1024 1024">
  <title>CODE</title>
  <g>
    <path d="M929,116H95a54.0609,54.0609,0,0,0-54,54V854a54.0612,54.0612,0,0,0,54,54H929a54.0612,54.0612,0,0,0,54-54V170A54.0609,54.0609,0,0,0,929,116ZM95,152H929a18.02,18.02,0,0,1,18,18v97H77V170A18.02,18.02,0,0,1,95,152ZM929,872H95a18.0206,18.0206,0,0,1-18-18V303H947V854A18.0206,18.0206,0,0,1,929,872Z"/>
    <path d="M130,228h15a18,18,0,0,0,0-36H130a18,18,0,0,0,0,36Z"/>
    <path d="M210,228h15a18,18,0,0,0,0-36H210a18,18,0,0,0,0,36Z"/>
    <path d="M290,228h15a18,18,0,0,0,0-36H290a18,18,0,0,0,0,36Z"/>
    <path d="M430,228H895a18,18,0,0,0,0-36H430a18,18,0,0,0,0,36Z"/>
    <path d="M578.9688,428.51a17.9977,17.9977,0,0,0-23.565,9.6274l-120,285.7886a18,18,0,1,0,33.1924,13.9375l120-285.7886A18,18,0,0,0,578.9688,428.51Z"/>
    <path d="M306.9561,584.7568l84.58-84.58a18,18,0,0,0-25.456-25.456L268.772,572.0293a17.9994,17.9994,0,0,0,0,25.4551l99.2934,99.2939a18,18,0,1,0,25.4561-25.4551Z"/>
    <path d="M655.9346,474.7212a18,18,0,0,0-25.4561,25.456l86.5654,86.566-84.58,84.58a18,18,0,1,0,25.456,25.4551l97.3076-97.3076a17.9994,17.9994,0,0,0,0-25.4551Z"/>
  </g>
</svg>
