<svg id="Layer_1" data-name="Layer 1" xmlns="http://www.w3.org/2000/svg" viewBox="0 0 1024 1024">
  <title>LOG</title>
  <g>
    <path d="M170,302a18,18,0,0,0-18,18v42H115a18,18,0,0,0,0,36H225a18,18,0,0,0,0-36H188V320A18,18,0,0,0,170,302Z"/>
    <path d="M814,41H206a54.0609,54.0609,0,0,0-54,54V230H115a18,18,0,0,0,0,36H225a18,18,0,0,0,0-36H188V95a18.02,18.02,0,0,1,18-18H814a18.02,18.02,0,0,1,18,18V929a18.0206,18.0206,0,0,1-18,18H206a18.0206,18.0206,0,0,1-18-18V845a18,18,0,0,0-36,0v84a54.0612,54.0612,0,0,0,54,54H814a54.0612,54.0612,0,0,0,54-54V95A54.0609,54.0609,0,0,0,814,41Z"/>
    <path d="M115,530H225a18,18,0,0,0,0-36H188V452a18,18,0,0,0-36,0v42H115a18,18,0,0,0,0,36Z"/>
    <path d="M115,661H225a18,18,0,0,0,0-36H188V584a18,18,0,0,0-36,0v41H115a18,18,0,0,0,0,36Z"/>
    <path d="M225,793a18,18,0,0,0,0-36H188V715a18,18,0,0,0-36,0v42H115a18,18,0,0,0,0,36Z"/>
    <path d="M340,266H735a18,18,0,0,0,0-36H340a18,18,0,0,0,0,36Z"/>
    <path d="M340,403H735a18,18,0,0,0,0-36H340a18,18,0,0,0,0,36Z"/>
    <path d="M340,533H735a18,18,0,0,0,0-36H340a18,18,0,0,0,0,36Z"/>
    <path d="M340,663H735a18,18,0,0,0,0-36H340a18,18,0,0,0,0,36Z"/>
    <path d="M340,793H735a18,18,0,0,0,0-36H340a18,18,0,0,0,0,36Z"/>
  </g>
</svg>
