<svg id="Layer_1" data-name="Layer 1" xmlns="http://www.w3.org/2000/svg" viewBox="0 0 1024 1024">
  <title>POSTCODE</title>
  <g>
    <path d="M551.6572,862.6543A367.0247,367.0247,0,0,1,443,879C240.6357,879,76,714.3643,76,512S240.6357,145,443,145A366.2852,366.2852,0,0,1,799.1055,422.8853a18,18,0,0,0,34.93-8.711A403.1867,403.1867,0,0,0,71.6768,355.1284,403.2777,403.2777,0,0,0,562.3037,897.0449a18,18,0,1,0-10.6465-34.3906Z"/>
    <path d="M919.3916,532.6079A223.9991,223.9991,0,1,0,985,691,222.5347,222.5347,0,0,0,919.3916,532.6079ZM761,879c-103.6641,0-188-84.3359-188-188s84.3359-188,188-188,188,84.3359,188,188S864.6641,879,761,879Z"/>
    <path d="M804.1924,586.7529a18.0025,18.0025,0,0,0-23.5654,9.628L706.18,773.6816a18,18,0,1,0,33.1933,13.9375L813.82,610.3184A18.0006,18.0006,0,0,0,804.1924,586.7529Z"/>
    <path d="M642.4561,689.9883l47.6406-47.6416a17.9995,17.9995,0,0,0-25.4551-25.4551l-60.3691,60.3691a17.9975,17.9975,0,0,0,0,25.4551l61.6005,61.6006a17.9995,17.9995,0,1,0,25.4551-25.4551Z"/>
    <path d="M915.7275,678.4922,854.127,616.8916a17.9995,17.9995,0,1,0-25.4551,25.4551l48.872,48.873-47.6406,47.6416a17.9995,17.9995,0,1,0,25.4551,25.4551l60.3691-60.3691A17.9975,17.9975,0,0,0,915.7275,678.4922Z"/>
    <path d="M612.5693,372.5688,379.7969,605.3408,254.4307,479.9751a18,18,0,0,0-25.4551,25.4561L367.0693,643.5244a17.9981,17.9981,0,0,0,25.4551,0l245.5-245.4995a18,18,0,0,0-25.4551-25.4561Z"/>
  </g>
</svg>
