<svg id="Layer_1" data-name="Layer 1" xmlns="http://www.w3.org/2000/svg" viewBox="0 0 1024 1024">
  <title>RELOAD</title>
  <g>
    <path d="M78.1069,637.7285a18,18,0,0,0,13.2188-21.7549A435.7086,435.7086,0,0,1,304.3779,131.6479c177.1407-97.6015,395.8267-61.5063,531.8106,87.7837a434.03,434.03,0,0,1,38.792,49.3323L710.64,245.4453a18,18,0,0,0-5.0576,35.6426L907.83,309.7852a17.98,17.98,0,0,0,20.35-15.2925L956.877,92.2451a18,18,0,1,0-35.6426-5.0576l-21.802,153.65a471.5153,471.5153,0,0,0-843.08,383.6731,17.98,17.98,0,0,0,21.7548,13.2178Z"/>
    <path d="M968.6421,401.6572a18,18,0,0,0-35.05,8.2178A435.3735,435.3735,0,0,1,149.0234,753.2366l164.3409,23.3181a18,18,0,0,0,5.0576-35.6426L116.1743,712.2148a18,18,0,0,0-20.35,15.293L67.127,929.7559a18,18,0,1,0,35.6425,5.0566l21.802-153.65A471.5161,471.5161,0,0,0,968.6421,401.6572Z"/>
  </g>
</svg>
